<svg width="195" height="60" viewBox="0 0 195 60" fill="none" xmlns="http://www.w3.org/2000/svg">
<path d="M122.25 40.5C122.25 40.5 156.75 30.75 192.75 30.75" stroke="black" stroke-width="2.5" stroke-linecap="round"/>
<path d="M28.89 11.2652L28.305 10.7702L27.99 10.2302L27.63 10.0502L27.27 9.96022L26.91 9.60022L26.505 9.51022L26.145 9.19522L25.74 9.06022L25.29 8.83522L24.885 8.88022L24.48 8.52022L24.03 8.29522L23.625 8.43022L22.725 8.07022L22.32 8.25022L21.87 7.98022L21.42 8.20522L20.52 7.98022L20.07 8.02522L19.62 8.25022L19.17 8.38522L18.72 8.25022L18.27 8.34022L17.82 8.56522H16.92L16.515 8.65522L16.065 8.88022L15.66 9.10522L15.21 9.19522L14.805 9.37522L14.4 9.69022L13.995 9.91522L13.59 10.2752L13.23 10.5902H12.825L12.105 11.1302L11.745 11.4902L11.43 11.8502L11.07 11.9852L10.755 12.5252L10.395 12.7952L10.08 13.1102L9.765 13.2452L9.45 13.4702L9.135 14.0552L8.865 14.2802L8.55 14.7302L8.28 14.8202L8.01 15.3602L7.74 15.6752L7.47 15.8552L7.2 16.2602L6.93 16.5752L6.66 17.2952L6.435 17.5652L6.21 17.7902L5.94 18.1052L5.715 18.7802L5.49 19.0502L5.31 19.3202L5.085 19.9952L4.905 20.0852L4.68 20.7152L4.32 21.6152L4.14 21.7052L3.96 22.1552L3.825 22.6952L3.645 23.2352L3.51 23.5052L3.24 24.4952L3.105 24.8102L2.97 25.3952L2.88 25.8002L2.745 26.0702L2.655 26.5652L2.61 27.0602L2.52 27.3752L2.43 27.8252L2.295 29.1752L2.25 29.5802V30.8852L2.295 31.5152V31.9202L2.34 32.2352L2.385 32.7752L2.475 33.3602L2.565 33.9002L2.655 34.1252L2.79 34.5752L2.925 35.1602L3.06 35.4302L3.24 35.8802L3.42 36.4652L3.6 36.9152L3.825 37.0502L4.275 37.9502L4.545 38.1752L4.815 38.8052L5.13 38.9852L5.4 39.1652L5.76 39.5702L6.075 39.7502L6.435 40.3352L6.795 40.5602L7.2 40.6952L7.56 40.7852L7.965 41.0102L8.37 41.5052H8.82L9.225 41.6852H9.675L10.125 41.8652L10.53 42.2252L10.98 42.0452L11.43 42.1802L11.925 42.3152L12.375 42.1802L12.825 42.4502L13.725 42.1802L14.22 42.4502L14.67 42.1352L15.12 42.2252L15.57 42.2702L16.02 41.9102L16.47 42.0902L16.92 41.7752H17.37L17.775 41.3702L18.225 41.3252L18.63 41.1002L19.035 40.8302L19.44 40.8752L19.845 40.5152L20.25 40.4252L20.61 40.0202L20.97 39.9302L21.33 39.3452L21.69 39.2552L22.05 39.0302L22.365 38.6252L22.68 38.1302L23.175 37.7252L23.355 37.2302L23.535 36.5552L23.85 35.7902L24.03 35.4752L24.21 34.9352L24.39 34.4852L24.57 34.2152L24.705 33.6752L24.885 33.2702L25.065 32.8202L25.245 32.4152L25.425 32.1002L25.605 31.5152L25.74 31.2902L25.92 30.7502L26.1 30.2552L26.415 29.4452L26.55 29.1752L26.64 28.6802L26.595 27.6002L26.505 27.1952L26.325 26.8352L26.055 26.5202L25.74 26.0252L25.38 25.8452L24.975 25.5302L24.48 25.3502H23.58L23.13 25.3952L22.725 25.3052L22.275 25.2602L21.825 25.3952L21.375 25.3502L20.97 25.3952L20.52 25.3052L20.07 25.4852L19.62 25.4402L19.17 25.5752L18.765 25.2602H18.315L17.415 25.3052L16.515 25.6652L16.11 25.7552L15.705 25.8902L15.345 26.1152L14.985 26.6552L14.715 26.9702L14.535 27.1052L14.4 27.6452V28.7252L14.58 28.9502L14.805 29.4902L15.12 29.6702L15.525 30.0302L15.93 30.1652L16.38 30.3452L16.83 30.4352H17.73L18.135 30.2102L18.99 30.1202H19.35C19.8 30.1202 20.07 30.3902 19.935 30.8852L19.755 31.5152L19.575 31.9202L19.395 32.5952L19.215 32.8652L19.035 33.1802L18.855 33.6302L18.675 34.3502L18.495 34.7552L17.955 35.3402L17.55 35.4302L17.19 35.6102L16.785 35.8802H16.38L15.93 36.1052H15.525L15.075 36.5102L14.67 36.5552L13.77 36.2852L13.32 36.4202L12.915 36.3752L12.465 36.2852L12.06 36.1052L11.655 35.9702L11.25 35.7452L10.89 35.6102L9.945 34.6652L9.675 34.1702L9.45 33.8102L9.225 33.5402L8.865 32.6402L8.73 32.2802L8.64 31.6502L8.505 31.4252L8.46 30.7052L8.415 30.3002L8.37 30.1202L8.325 29.6702V28.6352L8.37 28.0502L8.415 27.7352L8.46 27.2852L8.505 26.8802L8.595 26.4752L8.775 25.4852L8.91 25.1702L9 24.5402L9.135 24.0902L9.27 23.7752L9.45 23.5052L9.585 23.0552L9.765 22.4252L9.945 22.2002L10.17 21.7952L10.35 21.5252L10.575 20.9402L10.755 20.4002L11.025 20.1752L11.25 19.7252L11.475 19.5452L11.745 18.8702L12.015 18.5552L12.285 18.4652L12.555 18.1502L12.87 17.5652L13.14 17.1602L13.455 17.0702L13.77 16.5302L14.13 16.3952L14.445 16.2152L15.57 15.0902L15.93 15.0002L16.335 14.6402L16.785 14.5952L17.19 14.4602L17.64 14.3252L18.045 14.1002L18.495 14.0102L18.945 13.6952L19.44 13.6502L19.89 13.6952L20.79 13.6052L21.195 13.8752L21.645 13.6952L22.095 13.8752L22.5 14.0552L22.905 14.1902L23.265 14.5952L23.625 14.7752L23.985 14.8202L24.3 15.4052L24.975 16.0802H25.38L25.785 16.5302L26.235 16.4402H27.18L27.585 16.4852L27.99 16.3052L28.395 16.2152L28.71 15.9002L29.025 15.4052L29.295 15.3152L29.52 15.0002L29.7 14.3702L29.79 14.0102V13.2902L29.7 12.6602L29.565 12.2102L29.385 12.0302L29.16 11.6252L28.89 11.2652ZM58.456 28.6802L58.276 28.2752L58.006 27.7352L57.601 27.3302H56.746L56.296 27.1952L55.846 27.2402L55.441 27.6452L55.126 27.7352L54.901 28.2302L54.496 29.0402L54.316 29.4902L54.001 30.2552L53.821 30.7502L53.461 31.4702L53.326 32.0102L52.606 33.6302L52.156 34.2602L51.886 34.8902L51.616 35.1152L51.346 35.3852L51.031 36.0152L50.716 36.1952L49.591 37.1852H49.186L48.781 37.2752L47.881 37.3652L47.476 37.0502L47.116 36.8702L46.846 36.5102L46.666 36.2402L46.531 35.7002L46.486 35.3402V34.8002L46.576 34.5752L46.891 33.8102L46.801 33.2702L47.206 32.6852L47.386 32.3252L47.566 31.8302L47.746 31.4252L47.881 30.9752L48.061 30.6602L48.241 30.1652L48.421 30.0302L48.601 29.5352L48.961 28.5902L49.636 27.0152L49.546 26.5652L49.951 26.2052L50.446 24.7202L50.626 24.4952L50.806 24.0002L50.986 23.5502L51.121 23.3702L51.526 22.2902L51.841 21.5702L51.976 20.8502L52.066 20.7152L52.021 19.4552L51.931 19.3202L51.751 18.8252L51.481 18.4652L51.166 18.1502L50.806 17.5652L50.401 17.6552L49.906 17.2502H49.006L48.556 17.3852L48.151 17.6102L47.746 17.7452L47.386 17.9702L47.071 18.6002L46.756 18.9602L46.486 19.0502L46.261 19.5902L46.036 20.0402L45.676 20.8952L45.541 21.1202L45.361 21.7052L45.001 22.4252V22.9202L44.686 23.3252L44.506 23.7752L44.371 24.0452L44.191 24.3602L43.516 26.2952L43.336 26.5652L43.201 27.1052L42.841 27.8252L42.661 28.0502L42.526 28.6802L42.166 29.5802L41.986 29.8502L41.806 30.2102L41.626 30.7052L41.446 31.2452L40.906 32.5952V33.0002L40.591 33.5852L40.456 33.7652L40.366 34.1252L40.276 34.2602L40.051 34.4402L39.781 35.0702L39.466 35.2952L38.836 35.7902L38.476 36.2852L38.116 36.3752L37.711 36.6902L37.306 36.8702L36.856 36.9602L36.001 36.8252L35.596 36.9152L35.281 36.4652L35.056 36.0152L34.966 35.7452V34.7102L35.101 34.4852L35.236 33.8102L35.416 33.6302L35.551 33.1352L35.731 32.7752L35.911 32.1902L36.091 31.8752L36.271 31.3352L36.451 30.9302L36.631 30.3452L36.991 29.5352L37.171 29.4002L37.306 28.7702L37.486 28.2752L37.846 27.6902L37.981 27.2852L38.026 27.1952C38.116 26.7902 38.116 26.5202 37.981 26.3402C37.846 26.1602 37.891 26.0702 38.116 25.9352C38.386 25.8002 38.566 25.6652 38.656 25.4402L38.836 24.9452L38.971 24.6752L39.151 24.4502L39.331 23.9552L39.466 23.6402L39.646 22.9202L39.826 22.6952L39.961 22.2002L40.276 21.3452L40.411 20.8952L40.501 20.5802L40.456 19.5002L40.366 19.1852L40.276 18.6902L39.916 18.4652L39.691 18.0152L39.331 17.7452L38.926 17.5652L38.341 17.2052L37.441 17.2952L36.991 17.5652H36.586L36.181 17.8802L35.821 18.0152L35.506 18.4202L34.921 19.0052L34.696 19.5902L33.931 21.3902L33.796 21.7952L33.616 22.1102L32.941 23.6402L32.761 24.1352L32.581 24.4502L32.401 25.0352L32.266 25.5302L31.906 26.3402L31.411 27.6002L31.276 27.9602C31.141 28.3202 31.096 28.5452 31.141 28.7702C31.186 28.9052 31.141 29.0402 30.961 29.0852C30.781 29.1302 30.691 29.3552 30.556 29.8052L30.196 30.5702L30.061 30.7052L29.881 31.1552L29.701 31.6952L29.566 32.0552L29.386 32.5952L29.251 33.0452L29.071 33.3152L28.936 33.7202L28.801 34.2152L28.666 34.6652L28.531 34.9802L28.441 35.4752L28.351 35.7902L28.261 36.2852V37.0952L28.306 37.7702L28.396 38.0852L28.531 38.5802L28.711 39.0752L28.891 39.1202L29.116 39.6602L29.656 40.4702L29.971 40.7402L30.331 41.0552L30.691 41.1452L31.096 41.4152H31.501L31.906 41.8202L32.356 41.8652L32.761 42.0902L33.211 42.1352H33.661L34.561 42.0002L35.011 41.9102L35.416 41.9552L35.866 41.7302L36.316 41.8202L36.721 41.7752L37.126 41.5952L37.576 41.2352L37.981 41.0552L38.386 40.9202L38.746 40.7402L39.151 40.5602L39.511 40.2902L39.916 39.9752L40.231 39.6152L40.591 39.3902L41.491 40.2902L41.851 40.6952L42.256 40.6502L42.661 41.2802L43.066 41.4602L43.471 41.6852L43.921 41.7752L44.371 41.6402L44.821 42.0452L45.271 41.8202L45.766 42.0452L46.666 41.8652L47.116 41.9552L47.566 41.8202L48.016 41.9102L48.421 41.8202L49.726 41.5952L50.131 41.3252L50.941 40.9652L51.346 40.8752L51.706 40.5602L52.066 40.0652L53.101 39.3452L53.416 39.0752L53.686 38.8502L54.001 38.4902L54.271 38.1302L55.261 36.3752L55.486 36.2402L55.711 35.7002L55.936 35.2052L56.521 34.2152L56.701 33.8102L57.061 32.7302L57.241 32.5952L57.781 31.1552L57.961 30.6152L58.096 30.2552L58.411 29.5802L58.501 29.0402L58.456 28.6802ZM74.7625 27.6452L73.9975 27.1952H73.2325L72.8275 27.4202L72.5125 27.6902L72.2425 28.0052L72.0175 28.1402L71.6575 29.0852L71.4775 29.3552L71.2975 29.8952L71.0725 30.2552L70.8925 30.8852L70.6675 31.0202L70.4425 31.4702L70.2175 32.0102L68.9125 33.7652L68.6425 33.9902L68.3275 34.3952L68.0125 34.9802L67.9675 35.0702C67.4275 35.4752 67.0225 35.2502 67.0675 34.5752L67.1125 33.9902L67.0675 33.4052L67.0225 33.2252L66.9775 32.6402L66.9325 32.1452L66.8425 31.7402L66.7525 31.4702L66.2125 29.2202L66.0775 28.8602L65.9425 28.3202L65.8075 28.0952L65.3125 26.2052L65.1775 25.9802L64.9075 24.9452L64.7725 24.3602L64.6825 24.2702L64.5925 23.6852L64.5025 23.1902L64.7725 22.6502L65.0425 21.9752L65.2675 21.7502L65.4475 21.4802L65.5825 20.7602L65.6725 20.2652V19.6802L65.5375 19.0052L65.4475 18.6452L65.2675 18.1502L64.9975 17.8352L64.6825 17.4752L64.3225 17.1602L63.9175 17.0252H63.5125L63.0625 16.6652L62.6125 16.8452L61.7125 16.7552L61.2625 16.8902L60.8125 17.1152H60.4075L59.1025 18.4202L58.8325 19.0052L58.6075 19.1402L58.3825 19.6802L58.0225 20.6702L57.8425 21.0302L57.0325 23.1452L56.8525 23.3252V23.9552L56.4925 24.3602L56.3575 24.6302L56.1775 24.9452L55.6825 26.3402L55.3225 27.0602L55.0075 28.0052L54.8275 28.3202L54.5125 29.4002L54.6475 30.4352L54.8725 30.8402L55.1875 31.2002L55.5475 31.3802H55.9525L56.8075 31.6952L57.5725 31.0652L57.8425 30.7952L58.0675 30.3902L58.4275 29.5352V29.0852L58.7425 28.6802L58.9225 28.2752L59.1025 28.0502L59.2375 27.4202L59.4175 27.1502C59.5975 26.6552 60.0025 26.6552 60.0925 27.1052L60.1825 27.7352L60.2725 28.2752L60.3625 28.5902C60.4525 28.9502 60.5425 29.1752 60.6775 29.2652C60.8125 29.3102 60.8125 29.6252 60.7225 30.0302L60.6775 30.0752L60.8125 30.2102L60.9475 30.6602L61.1725 31.6052L61.3975 32.5952L61.4875 33.0452L61.7575 33.9452L61.6225 34.5752L61.5325 35.3402L61.3975 35.5652L61.3075 36.1952L60.9475 36.2852L60.6325 36.7802L60.2275 37.1852L59.7775 36.9602L58.8775 37.0052L58.4725 37.0952L57.9325 37.2302L57.2575 36.6002L56.8975 36.2402L56.5375 36.1502L56.2225 36.0152L55.2325 34.9352L54.8725 34.4402L54.4675 34.3952L54.0625 34.2152L53.6125 33.9002L53.1625 33.8102L52.7575 33.9902L52.3975 34.3502L51.9025 35.0252L51.7675 35.5652L51.7225 35.7902V36.2402L51.9475 37.3652L52.1275 37.5902L52.3525 37.8602L52.6225 38.2652L53.2075 39.1202L53.5675 39.3002L53.8825 39.7502L54.2425 39.9752L54.6025 40.2452L55.0075 40.3802L56.6275 41.2352L57.0775 41.5952L58.8325 42.0002L59.2825 42.0452L59.7325 42.2252L60.1825 42.1802L61.0825 42.2702H61.5325L61.9825 42.2252L62.4325 41.9552H62.8825L65.0425 41.3702L65.4475 41.4602L65.8525 41.2352L66.2575 40.9652L66.6625 40.8302L67.4275 40.2452L67.8325 40.2902L68.1925 39.8402L70.2625 38.0402L70.5775 37.9052L70.8925 37.5002L71.1625 37.3202L71.4775 36.7352L71.7475 36.6002L73.2775 34.3052L73.5025 34.0352L73.7275 33.5852L73.9525 33.2702L74.1325 32.6852L74.0875 32.1902L74.5375 31.7852L74.7175 31.3802L74.9425 30.9752L75.1225 30.7052L75.2575 30.3452L75.5725 29.5352L75.6175 28.5002L75.4375 28.0952L75.1225 27.6452H74.7625ZM88.3023 28.0502L87.9873 27.6452L87.6723 27.4202L86.7723 27.0602L86.0523 27.1052L85.6023 27.2402L85.2423 27.5102L84.9723 27.8252L84.7473 28.4102L84.3873 29.1302L84.2073 29.4002L84.0273 30.0302L83.8473 30.4352L83.7123 30.7052L83.5323 31.1552L83.3523 31.4252L83.2173 32.1002L83.0823 32.2352L82.7673 32.9552L82.5423 33.6302L82.0923 34.4402L81.8223 34.6202L81.5523 35.2502L81.2823 35.6102L80.9673 35.9252L80.6523 36.1052L80.2923 36.5552L79.9323 36.5102L79.5723 36.7802C79.4373 37.3202 79.1673 37.5452 79.0323 37.4102C78.8523 37.2302 78.5823 37.2752 78.3123 37.4552L77.5023 37.2752L77.0523 37.1852L76.6923 37.0052L76.3323 36.7352L76.0623 36.3302L75.8823 36.1502L75.7473 35.5652V35.0252L75.8373 34.6202L76.1073 33.5852L76.2423 33.4052L76.4223 32.8202L76.6023 32.5502L76.7823 31.8752L76.9173 31.6052L77.0973 31.0652L77.2773 30.7502L77.4573 30.3002L77.5923 30.1202L77.5473 29.8502C77.4123 29.2652 77.5023 28.9052 77.7273 28.9052C77.9973 28.9052 78.2223 28.6802 78.3573 28.2302L78.6273 27.4652L78.7623 26.9252L78.9423 26.6552L79.1223 26.3402L79.3023 25.9352L79.6173 25.0352L80.1123 23.6402L80.2923 23.4152L80.7423 22.0202C80.9223 21.5252 81.2373 21.3002 81.7773 21.3902L82.0473 21.4352L83.4423 21.3452L83.8923 21.1202L84.3423 21.0302L84.7023 20.8052L85.0173 20.2652L85.2873 19.8152L85.4673 19.4102L85.4223 18.5552L85.2423 18.0152L84.8823 17.9702L84.4773 17.4302L84.0273 17.4752L83.5773 17.3402C83.0823 17.3402 82.9023 16.9802 83.1723 16.3502V16.3052L83.3073 15.7652V15.5402C83.3073 15.1352 83.4423 14.7752 83.6673 14.5502C83.9373 14.2802 84.0723 14.0552 84.1623 13.6502L84.2523 13.2002L84.2073 12.2102L84.1173 11.7602L83.9373 11.2652L83.6673 11.2202L82.9923 10.3202L82.5873 10.0952L82.0923 10.2302L81.1923 9.91522L80.7423 10.1852L80.3373 10.4102H79.9323L79.5723 10.6802L79.2573 11.1752L78.9423 11.4002L78.6723 11.8052L78.4473 12.3902L78.2223 12.5702L77.8623 13.6052L77.6823 13.9202L77.5473 14.2802L77.8623 14.7752L77.0073 15.5852L76.8273 16.0352L76.5573 16.7552C76.3773 17.2502 76.0623 17.4302 75.5673 17.4302H75.2523L74.2173 17.3402L73.8123 17.5652L73.3623 17.7452L73.0023 17.9702L72.6873 18.4652L72.4623 18.7352L72.2823 19.1402V19.9502L72.5073 20.4902L72.7773 20.7602L73.1823 21.0302L73.6323 21.1652L73.7673 21.2102C74.3073 21.3452 74.5323 21.6602 74.3523 22.2452L74.3073 22.3802L74.1273 22.8302L73.7673 23.6402L73.5873 24.1352L73.4523 24.3602L73.6323 24.9902L73.0923 25.1702L72.0573 27.8252L71.9223 28.0052L71.7423 28.4552L71.3823 29.4002L71.2023 29.7602L70.8423 30.8402L70.6623 31.1102L70.5273 31.7852L70.3473 32.1452L70.1673 32.4152L70.0323 33.0902L69.8523 33.4952L69.7173 33.8102L69.5823 34.0352L69.3123 34.9352L69.2223 35.4302L69.1323 35.7452L69.0423 36.4652V37.0952L69.1323 37.7702L69.2223 38.1302L69.4023 38.3552L69.5823 38.7602L69.8073 39.3452L70.0773 39.6602L70.3923 39.8852L70.7073 40.4252L71.0673 40.6052L71.4723 40.9652L71.8323 41.0552L72.2373 41.2352L72.6873 41.5952L73.0923 41.6402L73.5423 41.8202L73.9923 41.6852L74.4423 41.8652L74.8923 42.0902L75.3423 41.8652H76.6923L77.5923 41.6852L77.9973 41.8202L78.4473 41.5052L78.8973 41.3702L79.3023 41.5502L79.7073 41.1902L80.1573 40.9202H80.5623L80.9223 40.6502L81.3273 40.5152L81.6873 40.1102L82.0923 39.9302L82.4523 39.4352L82.7673 39.1202L83.1273 38.8502L83.4423 38.5802L83.7573 38.4902L84.0723 38.0402L84.3423 37.5002L84.6123 37.2302L84.8823 36.7352L85.1523 36.4202L85.3773 35.9702L85.6023 35.7902L85.8273 35.2502L86.0523 34.8452L86.2323 34.5302L86.7273 33.2252L86.9073 32.9552L87.0873 32.3702L87.8073 30.7502L87.9873 30.2552L88.3473 29.2202V28.5452L88.3023 28.0502ZM112.026 27.5552L111.126 27.3302H110.676L110.226 27.4652L109.821 27.5102L109.506 27.6902L109.281 28.3652L108.876 28.9502L108.246 30.5252L108.021 30.6602L107.751 31.3802L106.671 32.9102L106.401 32.9552L106.086 33.5852L105.726 33.9002L105.366 33.8552L104.646 34.3952L104.241 34.4852L103.836 34.8002L103.026 34.7102C102.441 34.6202 102.261 34.2152 102.576 33.7202L102.711 33.5402L102.891 33.2702L103.251 32.2352L103.386 31.9652L103.521 31.6052L103.656 30.9752L103.791 30.8402L103.926 30.3452L104.331 28.3652L104.376 28.2302L104.466 27.6452L104.511 27.0152L104.601 26.0252V25.0802L104.376 24.5402L104.556 24.2252L104.511 23.7302L104.421 23.2352L104.331 22.6952L104.241 22.2452L103.836 21.0752L103.341 20.8952L103.431 20.2202L103.206 19.9952L102.396 18.9602L102.036 18.6002L101.721 18.3752L101.361 17.8352L100.956 17.8802L100.551 17.6102L100.146 17.5652L99.6964 17.3402L99.2914 16.9802L98.8414 17.2052L98.3914 17.1152L97.9414 16.9802L97.0414 16.8002L95.6914 16.9802L95.2414 17.2502L94.8364 17.3402L94.3864 17.6102L93.5764 17.7002L93.1264 17.9702L92.7214 18.2852L92.3614 18.3302L91.9564 18.7352L91.5964 18.8252L91.1914 19.2752H90.8314L89.7964 20.3102L89.1664 20.7602L88.8514 21.2552L88.5364 21.5252L87.6814 22.5602L87.4114 23.1002V23.2802L86.9164 23.6852L86.4664 24.6752L85.5664 26.0702L85.3864 26.3402L85.2064 26.9702L85.0264 27.3302L84.5764 28.7702L84.3964 29.0402L84.3064 29.4002L84.1714 29.9852L84.0364 30.4802L83.9464 30.7052L83.8564 31.3802L83.7664 31.5602L83.5864 33.0452V33.5852L83.5414 33.7652V34.6652L83.5864 35.3402L83.6314 35.7002L83.6764 36.1502L83.7214 36.6452L83.8564 37.1402L84.2614 38.4002L84.4414 38.5802L84.6664 39.1652L84.8914 39.5702L85.1614 39.8852L85.4764 40.2002L86.8714 41.2802L87.2764 41.3252L87.6814 41.7302L88.0864 41.9552L88.5364 42.0902L90.2914 42.4052L90.7414 42.4502L91.1914 42.3152L93.0364 42.2702L93.4864 42.1802L93.9364 42.0452L94.3414 41.7752L94.7914 41.9102L95.2414 41.4602L95.6464 41.5052L96.0514 41.3252L96.4564 40.9202L96.8614 40.8302L97.2214 40.3352L97.6264 40.0652L97.9864 39.9752L98.3464 39.7502L98.6614 39.4352L99.0214 38.8502L99.7414 38.6252L100.146 38.7152L100.596 38.9852L101.001 38.8052L101.451 39.0752L102.306 38.9852L102.756 38.8052L103.206 38.8502L103.656 38.9852L104.106 38.5802H104.556L105.006 38.6702L105.411 38.4002L105.816 38.3102L107.031 37.5452L107.391 37.2302L107.796 36.9602L108.111 36.7352L108.471 36.4202L109.416 35.5652L109.731 35.2052L110.001 34.6652L110.271 34.4852L110.541 33.9452L110.766 33.4502L111.036 33.2702L111.711 32.1002L111.891 31.4702L112.116 31.1552L112.296 30.8402L112.476 30.4352L112.791 29.4902L112.881 28.9052L112.836 28.6802L112.656 28.1852L112.386 27.7802L112.026 27.5552ZM92.6314 37.5002L91.7314 37.5452L91.3264 37.4552L90.6064 36.9602L90.3814 36.6902L90.2014 36.2852L89.9314 34.7552V33.8102L89.9764 33.5402L90.0214 32.9102L90.3364 31.2902L90.4714 31.0652L90.5614 30.4802L90.6964 30.1652L90.8314 29.4902L91.6414 27.3302L92.0014 26.6102L91.9564 26.3852L92.4514 26.0252L92.9014 25.1252L93.9364 23.7302L94.2064 23.1002L94.5214 23.0552L94.8364 22.7402L95.1514 22.2452L95.8714 21.6152L96.2764 21.4802L97.5364 21.3902L97.9414 21.8852L98.2564 21.9752L98.4814 22.4702L98.6614 23.1002L98.8414 23.8202L98.8864 24.1802V25.1702L99.0664 25.7102L98.7064 27.0602L98.6164 27.5552L98.5714 27.8702L98.4814 28.3652L98.3464 28.8602L97.8514 29.2652L97.4014 29.3552L97.0414 29.5352L96.6364 29.9852L96.3214 30.1652L95.4664 31.2002L95.2414 31.4702L95.0614 31.9652L94.9264 32.5052L94.7464 33.9902L94.8364 34.4852L94.9264 34.9352L95.1064 35.2502C95.3764 35.7002 95.2864 36.0152 94.8814 36.2852L94.2514 36.6902L92.6314 37.5002Z" fill="black"/>
<path d="M127.954 27.0081L127.534 27.2034L127.323 27.2891L127.117 27.4466L126.9 27.4365L126.701 27.7137L126.479 27.6318L126.249 27.7908L126.032 27.7806L125.098 27.8406L124.854 27.7841L124.63 27.6782L124.409 27.5961L124.186 27.4902L123.986 27.3828L123.806 27.2019L123.636 27.1647L123.454 26.96L123.298 26.7776L123.166 26.5937L123.028 26.3139L122.927 26.2482L122.812 25.943L122.721 25.6602L122.669 25.5914L122.583 25.3805L122.542 25.1186L122.495 24.7608L122.465 24.6666L122.418 24.3089L122.394 23.9256L122.396 23.5887L122.411 23.4435L122.421 23.2265L122.423 22.8896L122.465 22.7907L122.492 22.4523L122.524 22.2098L122.581 21.9656L122.621 21.8429L122.668 21.455L122.735 21.3785L122.808 21.0131L122.868 20.8169L122.947 20.5473L123.033 20.3975L123.139 20.1743L123.226 20.0244L123.321 19.6335L123.414 19.5794L123.539 19.2828L123.642 19.0116L123.757 18.9321L123.887 18.7074L124.012 18.4107L124.281 18.1049L124.43 17.8067L124.569 17.7257L124.877 17.2731L125.061 17.141L125.222 17.0345L125.396 16.7348L125.786 16.4453L125.979 16.4568L126.175 16.1316L126.416 16.1403L126.62 15.9588L126.854 15.8477L127.068 15.8099L127.303 15.7226L127.535 15.5876L127.803 15.6425L128.032 15.4595L128.515 15.5006L128.732 15.5108L128.976 15.5672L129.217 15.5759L129.441 15.6818L129.662 15.7637L129.865 15.9191L130.064 16.0266L130.26 16.0862L130.44 16.2669L130.816 16.5074L131.266 16.7672L131.51 16.8237L132.019 16.8872L132.221 16.6578L132.441 16.7159L132.643 16.4865L132.809 16.4517L132.967 16.2974L133.094 16.0247L133.205 15.8733L133.277 15.5079L133.315 15.3371L133.285 14.8821L133.135 14.4107L133.025 14.2013L132.902 14.1611L132.749 14.0266L132.407 13.5676L132.232 13.4586L132.034 13.375L131.838 13.3155L131.637 13.1841L131.406 12.9584L131.215 12.9707L130.991 12.8647L130.741 12.7124L130.304 12.6443L130.06 12.5878L129.841 12.5537L129.605 12.617L129.364 12.6084L129.139 12.4785L128.895 12.422L128.663 12.5571L128.184 12.5878L127.948 12.6511L127.708 12.6665L127.465 12.6339L127.232 12.7451L126.997 12.8323L126.759 12.8716L126.517 12.8391L126.282 12.9263L126.077 13.1077L125.836 13.0992L125.625 13.1848L125.399 13.4158L125.187 13.4775L124.977 13.5871L124.562 13.8543L124.376 13.9623L124.174 14.1917L123.803 14.4079L123.63 14.7076L123.47 14.8381L123.286 14.9702L123.128 15.1245L122.944 15.2567L122.784 15.3872L122.632 15.6374L122.475 15.8159L122.32 16.0182L122.188 16.2189L122.028 16.3494L121.898 16.5743L121.767 16.7751L121.631 16.9041L121.507 17.2247L121.371 17.3537L121.237 17.5065L121.113 17.8271L121.004 18.0024L120.896 18.2018L120.766 18.4265L120.664 18.6977L120.555 18.873L120.47 19.0467L120.362 19.2461L120.289 19.6115L120.18 19.7868L120.098 20.0085L120.01 20.1344L119.931 20.4039L119.855 20.7215L119.788 20.798L119.709 21.0675L119.599 21.6036L119.483 22.044L119.421 22.1924L119.387 22.4109L119.33 22.6551L119.305 23.0174L119.291 23.1627L119.26 23.4291L119.225 23.6478L119.218 23.9129L119.205 24.0821L119.201 24.395L119.215 24.6105L119.21 24.8994L119.233 25.2587L119.283 25.6643L119.29 25.784L119.337 26.1417L119.372 26.3079L119.435 26.5443L119.494 26.7089L119.562 27.0173L119.644 27.1802L119.739 27.5349L119.825 27.7458L119.935 27.9552L120.046 28.1886L120.158 28.4459L120.29 28.6299L120.418 28.742L120.554 28.9977L120.71 29.1801L120.859 29.2428L121.048 29.5673L121.201 29.7018L121.397 29.7614L121.582 30.0141L121.775 30.0257L121.982 30.2529L122.199 30.2631L122.403 30.4424L122.631 30.6201L122.851 30.6782L123.1 30.8066L123.317 30.8166L123.564 30.921L123.809 31.0016L124.025 30.9878L124.268 31.0202L124.506 30.9809L124.769 30.9641L125.016 31.0685L125.259 31.101L125.732 30.9744L125.973 30.983L126.211 30.9437L126.466 30.807L126.707 30.8157L126.946 30.7764L127.152 30.6188L127.385 30.5076L127.625 30.4923L127.839 30.4545L128.064 30.2237L128.277 30.1619L128.488 30.0762L128.693 29.8947L128.899 29.7372L129.297 29.5674L129.482 29.4593L129.657 29.1836L129.812 28.9812L129.95 28.8762L130.05 28.5572L130.157 28.3578L130.217 28.1616L130.259 28.0628L130.217 27.4161L130.13 27.1812L130.004 27.093L129.847 26.8868L129.643 26.7074L129.154 26.5944L128.656 26.6985L128.413 26.666L128.179 26.7533L127.954 27.0081ZM147.657 21.6803L147.17 21.5912L146.93 21.6066L146.696 21.6938L146.482 21.7316L146.32 21.8381L146.223 22.2051L146.028 22.5303L145.746 23.39L145.631 23.4696L145.512 23.862L144.989 24.7131L144.847 24.7464L144.701 25.0925L144.52 25.2723L144.327 25.2606L143.962 25.5726L143.75 25.6344L143.545 25.8159L143.111 25.7957C142.796 25.7676 142.687 25.5582 142.837 25.284L142.903 25.1837L142.99 25.0338L143.146 24.4707L143.209 24.3224L143.268 24.1262L143.319 23.7863L143.386 23.7098L143.441 23.4417L143.589 22.374L143.608 22.3007L143.636 21.9863L143.638 21.6494L143.653 21.1194L143.62 20.6165L143.482 20.3367L143.567 20.1629L143.526 19.901L143.462 19.6406L143.395 19.3562L143.332 19.1198L143.077 18.5109L142.807 18.432L142.832 18.0696L142.704 17.9576L142.238 17.4344L142.034 17.255L141.859 17.1461L141.649 16.871L141.435 16.9086L141.21 16.7787L140.993 16.7687L140.746 16.6643L140.518 16.4865L140.286 16.6217L140.043 16.5891L139.799 16.5326L139.314 16.4675L138.602 16.6094L138.371 16.7684L138.159 16.8302L137.929 16.9892L137.5 17.0648L137.27 17.2238L137.065 17.4053L136.875 17.4416L136.674 17.6709L136.485 17.7311L136.285 17.9844L136.093 17.9967L135.578 18.5829L135.258 18.8439L135.107 19.1181L134.948 19.2726L134.529 19.8527L134.404 20.1492L134.41 20.2451L134.16 20.4776L133.954 21.0198L133.523 21.7931L133.436 21.9429L133.362 22.2843L133.279 22.482L133.088 23.2638L133.002 23.4137L132.966 23.6084L132.914 23.9244L132.859 24.1925L132.819 24.3152L132.794 24.6776L132.752 24.7764L132.707 25.5729L132.726 25.8603L132.708 25.9577L132.739 26.4368L132.785 26.7945L132.822 26.9846L132.861 27.2225L132.902 27.4844L132.991 27.7433L133.249 28.4001L133.351 28.4897L133.491 28.7934L133.624 29.0013L133.779 29.1597L133.957 29.3166L134.737 29.8439L134.954 29.8539L135.183 30.0557L135.406 30.1616L135.65 30.2181L136.595 30.3258L136.836 30.3345L137.071 30.2472L138.052 30.1604L138.288 30.0971L138.523 30.0099L138.729 29.8523L138.973 29.9088L139.198 29.654L139.415 29.664L139.624 29.5545L139.826 29.325L140.038 29.2634L140.213 28.9877L140.419 28.83L140.608 28.7699L140.792 28.6379L140.949 28.4594L141.12 28.1358L141.496 27.9915L141.715 28.0256L141.963 28.1538L142.173 28.0443L142.421 28.1726L142.873 28.0955L143.107 27.9843L143.348 27.993L143.592 28.0494L143.818 27.8186L144.057 27.8031L144.3 27.8357L144.506 27.6782L144.719 27.6165L145.339 27.1679L145.52 26.9879L145.726 26.8304L145.886 26.6999L146.067 26.5199L146.541 26.0325L146.696 25.8302L146.822 25.5336L146.959 25.4286L147.084 25.1319L147.187 24.8609L147.325 24.7559L147.644 24.11L147.718 23.7686L147.827 23.5932L147.913 23.4195L147.994 23.1978L148.13 22.6841L148.158 22.3697L148.126 22.2513L148.013 21.9941L147.856 21.7877L147.657 21.6803ZM137.673 27.6354L137.196 27.69L136.977 27.656L136.577 27.417L136.448 27.2811L136.339 27.0716L136.143 26.2665L136.11 25.7636L136.125 25.6184L136.127 25.2815L136.24 24.4085L136.304 24.2841L136.332 23.9697L136.393 23.7974L136.442 23.4336L136.799 22.2563L136.966 21.8607L136.935 21.7425L137.186 21.534L137.395 21.0396L137.898 20.2619L138.02 19.9173L138.186 19.8827L138.343 19.7043L138.494 19.43L138.856 19.0701L139.067 18.9845L139.734 18.8936L139.967 19.1432L140.137 19.1804L140.274 19.4361L140.391 19.7654L140.512 20.1423L140.548 20.3324L140.582 20.8593L140.696 21.1406L140.55 21.8714L140.519 22.1379L140.506 22.3071L140.475 22.5737L140.42 22.8417L140.171 23.0742L139.934 23.1375L139.749 23.2455L139.548 23.4989L139.387 23.6055L138.967 24.1856L138.857 24.3369L138.778 24.6065L138.724 24.8985L138.679 25.695L138.744 25.9554L138.807 26.1918L138.914 26.3534C139.073 26.5836 139.036 26.7543 138.829 26.912L138.508 27.149L137.673 27.6354ZM159.079 20.9477L158.614 20.8092L158.371 20.7767L158.133 20.816L157.929 20.9975L157.777 21.2717L157.672 21.4949L157.479 21.8681L157.392 21.9939L157.32 22.3833L157.215 22.6065L157.131 22.8042L157.02 22.9556L156.939 23.1773L156.838 23.4963L156.702 23.6253L156.591 23.7528L156.459 23.9537L156.364 24.3446L156.223 24.4016L156.097 24.6983L155.944 24.9246L155.806 25.0296L155.647 25.184L155.493 25.3863L155.31 25.5423L155.154 25.7208L154.972 25.9007L154.792 26.1047L154.608 26.2127L154.189 26.432L153.976 26.4936L153.775 26.747L153.562 26.7848L153.327 26.8721L153.118 26.9816L152.878 26.997L152.635 26.9645L152.406 27.1235L151.92 27.0584L151.675 27.002L151.44 27.0651L151.2 27.0806L150.952 26.9762L150.733 26.9181L150.51 26.8122L150.265 26.7557L150.066 26.6483L149.84 26.4944L149.644 26.4348L149.438 26.2316L149.257 26.0268L149.078 25.8699L148.93 25.8072L148.615 25.3946L148.58 24.8436L148.922 24.5571L149.187 24.5642L149.42 24.453L149.934 24.5885L150.162 24.3815L150.402 24.3902L150.648 24.4706L150.861 24.4088L151.087 24.2019L151.332 24.2583L151.539 24.1008L151.749 24.0152L151.963 23.9774L152.173 23.8917L152.377 23.6862L152.562 23.5542L152.772 23.4686L152.947 23.1927L153.105 23.0384L153.289 22.9064L153.453 22.8237L153.573 22.4552L153.741 22.4445L154 21.995L154.128 21.7223L154.231 21.4751L154.344 21.3476L154.444 21.0525L154.558 20.949L154.656 20.5821L154.743 20.4563L154.984 19.7193L155.047 19.571L155.128 19.3253L155.211 19.1276L155.269 18.9074L155.349 18.6378L155.434 18.488L155.49 18.2199L155.577 18.0701L155.649 17.7047L155.709 17.5083L155.797 17.3825L155.877 17.1368L155.938 16.9646L156.019 16.7189L156.102 16.5212L156.151 16.1573L156.235 15.9596L156.324 15.8576L156.375 15.5177L156.537 15.0503L156.624 14.9005L156.684 14.7043L156.76 14.4107L156.822 14.2385L156.874 13.9225L156.933 13.7263L156.967 13.5077L157.023 13.2396L157.05 12.9252L157.081 12.6586L157.098 12.5373L157.11 12.3442L157.12 11.7663L157.09 11.3112L157.045 10.9775L156.982 10.741L156.93 10.6723L156.867 10.4358L156.75 10.1067L156.642 9.92119L156.384 9.64914L156.217 9.32304L156.043 9.21405L155.871 9.15294L155.688 8.92419L155.491 8.86462L155.269 8.78265L155.046 8.6767L154.815 8.45103L154.603 8.51275L154.384 8.47867L154.138 8.39823L153.919 8.36415L153.678 8.33161L153.196 8.33838L152.961 8.40163L152.718 8.3691L152.488 8.55211L152.254 8.63932L152.022 8.77443L151.597 8.89788L151.39 9.05541L151.206 9.1635L151.026 9.36739L150.846 9.54733L150.687 9.7018L150.529 9.8802L150.405 10.1768L150.27 10.3297L150.135 10.4587L150.037 10.8257L149.932 11.0489L149.823 11.2242L149.72 11.4954L149.632 11.6213L149.551 11.8669L149.392 12.3822L149.328 12.5065L149.25 12.8001L149.168 13.0218L149.116 13.3378L149.024 13.3918L148.943 13.6375L148.866 13.931L148.726 14.3729L148.647 14.6425L148.56 14.7923L148.502 15.0125L148.349 15.6236L148.286 15.7718L148.209 16.0653L148.12 16.1673L148.036 16.365L147.984 16.6811L147.902 16.9028L147.653 17.52L147.6 17.8119L147.515 17.9858L147.431 18.1835L147.349 18.4052L147.303 18.8171L147.215 18.9429L147.133 19.1646L147.054 19.4342L147.035 19.5075C147.017 19.6049 147.022 19.6767 147.053 19.7951L147.145 20.1018C147.178 20.2439 147.137 20.3429 147.044 20.3969L146.79 20.5574C146.721 20.61 146.676 20.6609 146.654 20.6864C146.631 20.7119 146.587 20.7629 146.543 20.8377L146.525 20.9351L146.448 21.2286L146.369 21.4983L146.286 21.696L146.229 21.9402L146.152 22.2338L146.06 22.3118L145.985 22.6292L145.927 22.8494L145.84 22.9992L145.766 23.3406L145.602 23.784L145.539 23.9324L145.374 24.3518L145.298 24.6693L145.217 24.915L145.156 25.0872L144.998 25.6265L144.912 25.7763L144.827 25.9502L144.772 26.2182L144.688 26.4159L144.614 26.7573L144.527 26.9072L144.444 27.105L144.389 27.3731L144.307 27.5948L144.227 27.8405L144.145 28.0622L144.091 28.3541L144.003 28.4801L143.93 28.8455L143.842 28.9713L143.759 29.169L143.701 29.3892L143.629 29.7786L143.544 29.9525L143.458 30.1023L143.234 30.7419L143.152 30.9636L143.076 31.281L143.015 31.4534L142.939 31.7708L142.853 31.9206L142.774 32.1903L142.69 32.388L142.631 32.5842L142.163 33.9129L142.093 34.3262L142.002 34.4042L141.946 34.6484L141.864 34.8701L141.73 35.4077L141.694 35.6024L141.663 35.8689L141.716 36.3225L141.776 36.5109L141.883 36.6725L142.036 36.807L142.249 37.13L142.441 37.1177L142.692 37.2939L142.929 37.2308L143.381 37.1537L143.62 37.1382L143.833 37.0766L144.015 36.9206L144.208 36.9323L144.522 36.5754L144.647 36.2787L144.753 36.0555L144.861 35.8563L145.028 35.4608L145.104 35.1432L145.19 34.9934L145.266 34.6758L145.347 34.4303L145.433 34.2804L145.507 33.9389L145.591 33.7412L145.763 33.4175L145.813 33.0776L146.646 30.6914L146.719 30.326L146.778 30.1298L146.86 29.9081L146.944 29.7104L146.999 29.4423L147.09 29.3643L147.164 29.0228L147.249 28.8491L147.301 28.533L147.386 28.3593L147.476 28.2573L147.525 27.8934L147.796 27.9963L147.941 28.011L148.145 28.1904L148.325 28.3712L148.523 28.4547L148.727 28.634L148.95 28.74L149.151 28.8714L149.591 28.9875L149.834 29.0199L150.057 29.126L150.307 29.2782L150.528 29.3363L150.763 29.273L151.005 29.2815L151.08 29.3249C151.18 29.3906 151.299 29.3589 151.387 29.2571C151.453 29.1566 151.551 29.1744 151.632 29.3135C151.686 29.4062 151.785 29.448 151.905 29.4404L152.215 29.4203L152.302 29.2704C152.368 29.1701 152.461 29.1161 152.56 29.1578C152.659 29.1996 152.731 29.195 152.826 29.1888L152.994 29.178C153.114 29.1704 153.208 29.1402 153.25 29.0414L153.271 28.992C153.334 28.8677 153.454 28.8599 153.531 28.9272C153.609 29.0184 153.682 29.0378 153.78 29.0555L153.877 29.0733L154.078 28.844L154.321 28.8765L154.533 28.7909L154.761 28.6077L154.975 28.5701L155.175 28.3167L155.389 28.2789L155.593 28.0734L155.778 27.9654L155.985 27.8079L156.174 27.7716L156.348 27.4719L156.537 27.4118L156.687 27.1376L156.868 26.9576L157.024 26.7792L157.18 26.5769L157.336 26.3984L157.498 26.2919L157.627 26.0432L157.791 25.9845L157.92 25.7358L158.046 25.4391L158.184 25.3581L158.283 25.0151L158.415 24.8382L158.518 24.567L158.634 24.4875L158.736 24.2163L158.844 24.0171L159.031 23.5722L159.112 23.3265L159.222 23.1512L159.294 22.7858L159.379 22.6119L159.441 22.4637L159.58 21.9978L159.61 21.7313L159.567 21.4215L159.454 21.1641L159.079 20.9477ZM152.728 12.2884L152.911 11.7716L153.028 11.7161L153.159 11.4913L153.306 11.1692L153.462 10.9668L153.655 10.9785L153.862 10.8449L154.336 10.7423L154.591 10.9665L154.765 11.0515L154.902 11.3073L155.014 11.5646L155.055 11.8026L155.103 12.1843L155.067 12.379L155.043 12.7413L155.008 12.9599L154.953 13.228L154.891 13.3763L154.726 13.8197L154.647 14.0653L154.587 14.2616L154.509 14.5551L154.431 14.8247L154.342 14.9506L154.287 15.2187L154.045 15.9557L153.984 16.1039L153.901 16.3256L153.825 16.6431L153.739 16.793L153.657 17.0147L153.595 17.187L153.52 17.5044L153.436 17.7023L153.361 18.0197L153.303 18.2399L153.214 18.3657L153.136 18.6354L153.054 18.8571L152.991 19.0053L152.914 19.2989L152.73 19.8158L152.619 19.9431L152.511 20.1425L152.407 20.4135L152.274 20.5665L152.148 20.8631L152.01 20.9442L151.885 21.2648L151.732 21.515L151.573 21.6455L151.414 21.8L151.228 21.8841L150.837 22.1738L150.622 22.1876L150.412 22.2972L150.208 22.4786L149.773 22.4583L149.553 22.4004L149.447 22.2389L149.5 21.9468L149.584 21.7491L149.673 21.6471L149.749 21.3296L149.806 21.0855L149.895 20.9835L149.974 20.714L150.034 20.5178L150.111 20.2242L150.187 19.9067L150.273 19.7568L150.802 18.2559L150.855 17.9399L150.934 17.6943L151.021 17.5445L151.096 17.2029L151.159 17.0786L151.234 16.7372L151.323 16.6113L151.116 16.3841L151.459 16.1216L151.543 15.9237L151.623 15.6782L151.578 15.3443L151.77 15.332L151.845 15.0146L151.908 14.8662L152.01 14.5711C152.05 14.4723 152.044 14.3765 151.966 14.2853L151.81 14.1029C151.707 13.9893 151.771 13.8649 151.914 13.8318L152.127 13.77C152.244 13.7384 152.31 13.638 152.328 13.5406L152.367 13.3939L152.427 13.1977L152.514 13.0718L152.676 12.5805L152.728 12.2884ZM170.517 20.2142L170.052 20.0757L169.809 20.0432L169.57 20.0825L169.366 20.264L169.215 20.5382L169.11 20.7615L168.916 21.1346L168.829 21.2604L168.757 21.6498L168.652 21.873L168.568 22.0707L168.457 22.2222L168.375 22.4439L168.276 22.763L168.139 22.8918L168.028 23.0193L167.896 23.2202L167.8 23.6111L167.661 23.6681L167.535 23.9648L167.382 24.1911L167.244 24.2961L167.085 24.4506L166.93 24.653L166.747 24.809L166.591 24.9873L166.41 25.1673L166.23 25.3712L166.045 25.4792L165.627 25.6985L165.414 25.7603L165.213 26.0136L165 26.0513L164.764 26.1386L164.556 26.2482L164.316 26.2635L164.073 26.231L163.843 26.39L163.357 26.325L163.113 26.2685L162.877 26.3318L162.637 26.3471L162.39 26.2427L162.171 26.1846L161.947 26.0787L161.703 26.0222L161.503 25.9148L161.277 25.7609L161.08 25.7013L160.876 25.4981L160.695 25.2933L160.516 25.1364L160.368 25.0737L160.053 24.6611L160.017 24.1103L160.359 23.8238L160.624 23.8308L160.858 23.7197L161.371 23.855L161.599 23.648L161.839 23.6567L162.085 23.7371L162.298 23.6754L162.525 23.4684L162.769 23.5248L162.975 23.3673L163.186 23.2817L163.401 23.2439L163.611 23.1582L163.815 22.9527L163.999 22.8207L164.209 22.7351L164.385 22.4594L164.542 22.3049L164.727 22.1729L164.89 22.0902L165.01 21.7218L165.178 21.711L165.438 21.2615L165.565 20.9888L165.669 20.7416L165.781 20.6142L165.882 20.319L165.996 20.2155L166.093 19.8486L166.18 19.7228L166.422 18.9858L166.485 18.8375L166.566 18.5918L166.648 18.3941L166.707 18.1739L166.786 17.9043L166.872 17.7545L166.927 17.4864L167.014 17.3366L167.086 16.9712L167.146 16.775L167.235 16.649L167.314 16.4034L167.376 16.2311L167.457 15.9855L167.539 15.7877L167.589 15.4238L167.673 15.2261L167.761 15.1241L167.812 14.7842L167.974 14.3169L168.061 14.167L168.121 13.9708L168.198 13.6773L168.259 13.505L168.312 13.189L168.37 12.9928L168.405 12.7742L168.46 12.5061L168.487 12.1917L168.519 11.9252L168.535 11.8039L168.547 11.6107L168.558 11.0328L168.528 10.5778L168.483 10.244L168.42 10.0076L168.367 9.93879L168.304 9.70236L168.187 9.37318L168.078 9.18772L167.821 8.91567L167.655 8.58958L167.481 8.48058L167.308 8.41947L167.125 8.19072L166.929 8.13115L166.707 8.04918L166.483 7.94325L166.252 7.71756L166.041 7.77928L165.822 7.7452L165.576 7.66476L165.357 7.63068L165.115 7.59814L164.634 7.60491L164.398 7.66816L164.155 7.63563L163.926 7.81864L163.692 7.90585L163.459 8.04097L163.035 8.16441L162.828 8.32194L162.643 8.43004L162.463 8.63392L162.283 8.81388L162.124 8.96833L161.967 9.14674L161.842 9.44335L161.707 9.59628L161.572 9.72525L161.475 10.0922L161.368 10.3154L161.26 10.4908L161.157 10.7619L161.068 10.8878L160.989 11.1334L160.83 11.6487L160.765 11.7731L160.687 12.0666L160.606 12.2883L160.554 12.6043L160.461 12.6583L160.381 12.904L160.303 13.1975L160.164 13.6394L160.084 13.909L159.997 14.0589L159.94 14.279L159.786 14.8901L159.724 15.0384L159.646 15.332L159.556 15.4338L159.474 15.6317L159.421 15.9476L159.339 16.1693L159.09 16.7865L159.037 17.0786L158.952 17.2523L158.868 17.4501L158.787 17.6718L158.74 18.0836L158.653 18.2094L158.571 18.4311L158.491 18.7007L158.472 18.7742C158.455 18.8715 158.46 18.9434 158.491 19.0616L158.583 19.3683C158.616 19.5105 158.574 19.6094 158.481 19.6634L158.227 19.824C158.158 19.8765 158.113 19.9275 158.091 19.9529C158.068 19.9784 158.023 20.0294 157.98 20.1044L157.963 20.2017L157.885 20.4953L157.806 20.7648L157.723 20.9625L157.666 21.2067L157.588 21.5003L157.498 21.5783L157.422 21.8957L157.363 22.1159L157.278 22.2657L157.203 22.6073L157.039 23.0507L156.976 23.1989L156.811 23.6184L156.735 23.9358L156.655 24.1815L156.594 24.3539L156.436 24.893L156.349 25.0428L156.264 25.2167L156.21 25.4847L156.126 25.6824L156.051 26.024L155.965 26.1738L155.881 26.3715L155.826 26.6396L155.745 26.8613L155.664 27.107L155.581 27.3287L155.529 27.6207L155.44 27.7466L155.368 28.112L155.28 28.2378L155.196 28.4357L155.137 28.6557L155.067 29.0451L154.981 29.219L154.896 29.3688L154.671 30.0084L154.59 30.2301L154.513 30.5477L154.453 30.7199L154.377 31.0374L154.29 31.1873L154.212 31.4568L154.128 31.6545L154.068 31.8507L153.6 33.1794L153.531 33.5928L153.439 33.6708L153.382 33.9149L153.301 34.1366L153.166 34.6742L153.132 34.8689L153.1 35.1354L153.154 35.589L153.214 35.7776L153.321 35.939L153.474 36.0735L153.687 36.3965L153.877 36.3843L154.129 36.5606L154.366 36.4973L154.818 36.4202L155.058 36.4047L155.271 36.3431L155.452 36.1871L155.646 36.1988L155.959 35.8419L156.085 35.5454L156.19 35.322L156.298 35.1228L156.465 34.7273L156.541 34.4097L156.628 34.2599L156.703 33.9425L156.784 33.6968L156.87 33.5469L156.945 33.2055L157.029 33.0077L157.2 32.6841L157.251 32.3442L158.083 29.958L158.157 29.5925L158.215 29.3963L158.298 29.1746L158.382 28.9769L158.436 28.7088L158.527 28.6308L158.602 28.2894L158.686 28.1156L158.739 27.7995L158.824 27.6258L158.913 27.5238L158.962 27.1599L159.234 27.2628L159.378 27.2775L159.582 27.4569L159.762 27.6377L159.96 27.7212L160.164 27.9006L160.387 28.0065L160.588 28.1379L161.028 28.254L161.271 28.2866L161.494 28.3925L161.745 28.5447L161.964 28.6028L162.201 28.5395L162.442 28.5482L162.517 28.5914C162.618 28.6571 162.736 28.6254 162.825 28.5236C162.891 28.4231 162.988 28.4409 163.069 28.58C163.123 28.6728 163.222 28.7145 163.342 28.7069L163.653 28.6869L163.74 28.5371C163.806 28.4366 163.899 28.3826 163.998 28.4243C164.097 28.4661 164.167 28.4615 164.263 28.4553L164.431 28.4445C164.551 28.4369 164.646 28.4069 164.688 28.3079L164.709 28.2585C164.772 28.1342 164.892 28.1265 164.968 28.1937C165.046 28.2849 165.12 28.3043 165.217 28.322L165.315 28.3398L165.516 28.1105L165.759 28.143L165.97 28.0574L166.198 27.8744L166.413 27.8366L166.612 27.5832L166.827 27.5454L167.031 27.3401L167.215 27.2319L167.422 27.0744L167.611 27.0381L167.785 26.7384L167.974 26.6783L168.124 26.4041L168.306 26.2241L168.462 26.0457L168.618 25.8434L168.774 25.6649L168.936 25.5584L169.065 25.3097L169.228 25.251L169.357 25.0023L169.482 24.7056L169.621 24.6246L169.72 24.2816L169.852 24.1047L169.956 23.8335L170.071 23.754L170.173 23.483L170.281 23.2836L170.469 22.8387L170.55 22.593L170.658 22.4177L170.731 22.0523L170.817 21.8786L170.878 21.7302L171.018 21.2643L171.048 20.9979L171.004 20.688L170.892 20.4308L170.517 20.2142ZM164.166 11.555L164.349 11.0382L164.466 10.9826L164.596 10.7578L164.743 10.4357L164.899 10.2334L165.093 10.245L165.3 10.1114L165.774 10.0089L166.029 10.233L166.203 10.3181L166.339 10.5738L166.452 10.8312L166.492 11.0691L166.54 11.4508L166.504 11.6455L166.48 12.0078L166.446 12.2265L166.39 12.4945L166.329 12.6428L166.164 13.0862L166.084 13.3319L166.024 13.5281L165.946 13.8217L165.868 14.0913L165.78 14.2171L165.724 14.4852L165.483 15.2222L165.421 15.3705L165.339 15.5922L165.262 15.9096L165.177 16.0595L165.094 16.2812L165.033 16.4535L164.958 16.7709L164.874 16.9688L164.799 17.2862L164.74 17.5064L164.652 17.6324L164.572 17.9019L164.491 18.1236L164.428 18.272L164.352 18.5655L164.167 19.0823L164.056 19.2098L163.948 19.409L163.845 19.6802L163.711 19.833L163.585 20.1297L163.446 20.2107L163.323 20.5313L163.17 20.7816L163.011 20.9121L162.852 21.0665L162.664 21.1506L162.274 21.4403L162.06 21.4541L161.85 21.5637L161.644 21.7452L161.211 21.725L160.99 21.6669L160.884 21.5054L160.938 21.2133L161.02 21.0156L161.11 20.9136L161.187 20.5962L161.242 20.352L161.332 20.25L161.412 19.9805L161.472 19.7843L161.548 19.4907L161.625 19.1732L161.71 19.0233L162.24 17.5224L162.292 17.2065L162.372 16.9608L162.459 16.811L162.534 16.4696L162.597 16.3452L162.672 16.0037L162.76 15.8778L162.553 15.6506L162.897 15.3881L162.981 15.1902L163.06 14.9446L163.015 14.6109L163.207 14.5986L163.282 14.2811L163.345 14.1328L163.447 13.8377C163.488 13.7388 163.482 13.643 163.404 13.5518L163.248 13.3694C163.144 13.2558 163.209 13.1314 163.351 13.0983L163.564 13.0366C163.681 13.0049 163.747 12.9045 163.765 12.8072L163.804 12.6604L163.864 12.4642L163.951 12.3383L164.113 11.847L164.166 11.555ZM181.548 19.5069L181.081 19.3685L180.841 19.3598L180.601 19.3752L180.397 19.5806L180.244 19.8069L180.132 19.9344L179.946 20.4032L179.889 20.6474L179.799 20.7494L179.751 21.1131L179.397 21.9776L179.307 22.0796L179.211 22.4465L179.077 22.6233L178.965 22.7268L178.843 23.0952L178.701 23.1284L178.554 23.4506L178.395 23.6051L177.718 24.2978L177.531 24.3819L177.319 24.4436L177.121 24.7449L176.908 24.7826L176.709 25.0599L176.272 24.9918L176.046 25.2227L175.822 25.1168L175.593 25.2758L175.356 25.3391L175.137 25.305L174.655 25.2878L173.716 25.2759L173.496 25.2179L173.299 25.1343L173.097 24.9789L172.594 24.6504L172.476 24.2973L172.365 24.0639L172.212 23.5686L172.179 23.4264L171.999 22.8609L172.164 22.4414L172.2 21.8619L172.239 21.7392L172.291 21.4232C172.324 21.1806 172.459 21.0516 172.699 21.0363L173.128 20.9847L173.37 20.9933L173.599 20.8103L174.352 20.9303L174.583 20.7951L175.06 20.7165L175.311 20.8928L175.548 20.8296L175.783 20.7423L176.023 20.7509L176.257 20.6397L176.913 20.3573L177.117 20.1758L177.325 20.0423L177.696 19.826L177.844 19.5039L178.038 19.5395L178.194 19.3371L178.695 18.5354L178.797 18.2403L178.978 17.6996L179.001 17.2893L179.022 17.24L178.984 16.665L178.879 16.1427L178.791 15.9078L178.624 15.9186L178.579 15.6089L178.108 15.0137L177.939 14.9766L177.729 14.7015L177.535 14.6898L177.309 14.536L177.091 14.5259L176.86 14.3002L176.628 14.4113L176.403 14.2815L176.164 14.3208L175.917 14.2164L175.677 14.2078L175.2 14.2864L174.718 14.2692L174.486 14.4043L173.809 14.7123L173.592 14.7022L173.359 14.8373L173.158 15.0666L172.551 15.3461L172.341 15.4557L172.168 15.7554L171.975 15.7437L171.906 16.1571L171.612 16.0797L171.459 16.3299L171.274 16.4381L170.827 16.9718L170.68 17.2938L170.55 17.5187L170.386 17.6012L169.896 18.5706L169.785 18.722L169.681 18.9692L169.569 19.0967L169.467 19.3917L169.378 19.4937L169.144 20.3504L169.059 20.5242L169 20.7444L169.045 21.0542L168.864 21.2342L168.828 21.4289L168.676 22.4246L168.672 22.7375L168.645 23.0759L168.637 23.3169L168.672 23.8679L168.705 24.0099L168.747 24.2718L169.029 25.3119L169.105 25.3791L169.218 25.6365L169.359 25.9401L169.605 26.0445L169.614 26.1644L170.308 26.8893L170.512 27.0686L170.707 27.1041L170.907 27.2117L171.199 27.2651L171.804 27.7073L172.045 27.7158L172.269 27.8217L172.504 27.7584L172.746 27.7671L172.971 27.897L173.215 27.9534L174.171 27.8681L174.649 27.8133L174.895 27.8939L175.128 27.7827L176.074 27.5297L176.319 27.6101L176.527 27.4766L176.761 27.3653L176.992 27.2303L177.204 27.1446L177.442 27.1292L177.865 26.9579L178.063 26.6805L178.272 26.547L178.483 26.4852L178.665 26.3054L178.881 26.2914L179.055 26.0157L179.244 25.9556L179.425 25.7996L179.581 25.5972L179.754 25.2975L179.919 25.2389L180.075 25.0365L180.616 24.1119L180.724 23.9126L180.855 23.7119L180.964 23.5365L181.075 23.385L181.149 23.0436L181.255 22.8204L181.585 21.9815L181.663 21.6879L181.743 21.4184L181.819 21.1248L181.903 20.927L182.04 20.4372L182.07 20.1468L182.035 19.9806L181.926 19.7712L181.77 19.5888L181.548 19.5069ZM175.17 16.8135L175.624 16.7604L175.87 16.8648L176.379 17.2892L176.413 17.816L176.323 17.918L176.194 18.1667L176.041 18.393L175.827 18.4308L175.63 18.732L175.393 18.7953L175.149 18.7388L174.897 18.9233L174.412 18.8822L174.147 18.8511L173.911 18.9384L173.743 18.9492C173.409 18.9707 173.298 18.7373 173.496 18.4601L173.619 18.1155L173.755 18.0105L173.907 17.7363L174.067 17.6297L174.385 17.3208L174.559 17.045L174.745 16.937L174.96 16.8992L175.17 16.8135ZM192.588 18.7989L192.121 18.6605L191.88 18.6519L191.641 18.6672L191.437 18.8726L191.284 19.0989L191.172 19.2264L190.986 19.6953L190.929 19.9394L190.839 20.0414L190.791 20.4053L190.437 21.2696L190.347 21.3716L190.251 21.7385L190.117 21.9153L190.005 22.0188L189.883 22.3874L189.741 22.4205L189.594 22.7426L189.435 22.8971L188.758 23.5898L188.571 23.6739L188.359 23.7357L188.161 24.0369L187.947 24.0747L187.749 24.3519L187.311 24.2838L187.086 24.5147L186.862 24.4088L186.633 24.5678L186.396 24.6311L186.177 24.597L185.695 24.5798L184.756 24.5679L184.536 24.5099L184.338 24.4263L184.137 24.2709L183.634 23.9424L183.516 23.5893L183.405 23.3559L183.252 22.8606L183.219 22.7184L183.039 22.1529L183.204 21.7334L183.238 21.1541L183.279 21.0312L183.331 20.7152C183.363 20.4726 183.499 20.3436 183.739 20.3283L184.168 20.2767L184.41 20.2853L184.638 20.1023L185.392 20.2223L185.623 20.0873L186.099 20.0087L186.351 20.1848L186.588 20.1216L186.823 20.0343L187.063 20.043L187.297 19.9319L187.953 19.6493L188.157 19.4678L188.365 19.3343L188.736 19.1181L188.883 18.7959L189.078 18.8316L189.234 18.6291L189.735 17.8274L189.837 17.5323L190.018 16.9916L190.041 16.5813L190.062 16.532L190.024 15.9572L189.919 15.4349L189.831 15.2L189.664 15.2106L189.619 14.9009L189.148 14.3058L188.977 14.2686L188.767 13.9935L188.575 13.9818L188.349 13.828L188.131 13.8179L187.9 13.5922L187.668 13.7034L187.443 13.5735L187.204 13.6128L186.957 13.5084L186.717 13.4998L186.24 13.5784L185.758 13.5612L185.526 13.6964L184.849 14.0044L184.632 13.9942L184.399 14.1294L184.198 14.3587L183.591 14.6382L183.381 14.7478L183.208 15.0474L183.015 15.0359L182.946 15.4491L182.652 15.3717L182.499 15.6221L182.314 15.7301L181.867 16.2638L181.719 16.5858L181.59 16.8107L181.426 16.8933L180.936 17.8626L180.825 18.0141L180.721 18.2613L180.609 18.3887L180.507 18.6837L180.417 18.7857L180.184 19.6424L180.099 19.8162L180.04 20.0364L180.085 20.3462L179.904 20.5262L179.868 20.7209L179.716 21.7166L179.712 22.0295L179.685 22.3679L179.677 22.6089L179.712 23.1599L179.745 23.3021L179.785 23.564L180.069 24.6039L180.145 24.6711L180.258 24.9285L180.397 25.2321L180.645 25.3365L180.652 25.4564L181.348 26.1813L181.552 26.3606L181.747 26.3963L181.947 26.5037L182.239 26.5571L182.844 26.9993L183.085 27.0078L183.309 27.1137L183.544 27.0506L183.786 27.0591L184.011 27.189L184.255 27.2454L185.211 27.1601L185.689 27.1055L185.934 27.1859L186.168 27.0747L187.113 26.8217L187.359 26.9021L187.567 26.7686L187.8 26.6574L188.032 26.5223L188.244 26.4366L188.482 26.4212L188.905 26.2499L189.103 25.9725L189.312 25.839L189.523 25.7772L189.705 25.5974L189.919 25.5836L190.095 25.3077L190.284 25.2476L190.465 25.0916L190.621 24.8892L190.794 24.5895L190.959 24.5309L191.115 24.3285L191.656 23.4039L191.764 23.2047L191.895 23.0039L192.004 22.8285L192.114 22.6772L192.189 22.3356L192.295 22.1124L192.625 21.2735L192.703 20.9799L192.781 20.7104L192.859 20.4168L192.943 20.2191L193.08 19.7294L193.11 19.4388L193.075 19.2726L192.964 19.0632L192.808 18.8808L192.588 18.7989ZM186.21 16.1055L186.663 16.0524L186.91 16.1568L187.419 16.5812L187.453 17.1081L187.363 17.21L187.234 17.4587L187.081 17.685L186.867 17.7228L186.67 18.024L186.433 18.0873L186.189 18.0308L185.937 18.2154L185.452 18.1742L185.187 18.1433L184.951 18.2304L184.783 18.2412C184.449 18.2627 184.338 18.0293 184.536 17.7521L184.657 17.4075L184.795 17.3025L184.947 17.0283L185.107 16.9217L185.425 16.6128L185.599 16.3371L185.785 16.229L185.998 16.1912L186.21 16.1055Z" fill="black"/>
</svg>
