<svg width="60" height="60" viewBox="0 0 60 60" fill="none" xmlns="http://www.w3.org/2000/svg">
<circle cx="30" cy="30" r="30" fill="black"/>
<circle cx="30" cy="30" r="28" stroke="white"/>
<path d="M34.89 26.22H34.02L33.78 26.37L33.57 26.7L33.39 26.88L33.15 27.27L33.03 27.54L32.91 27.9L32.79 28.23L32.67 28.47L32.28 29.4L32.16 29.7L32.04 29.85L31.89 30.27L31.65 30.81L31.5 30.96L30.93 32.22L30.81 32.46L30.66 32.7L30.51 32.91L30.33 33.18L30.18 33.51L30 33.81L29.85 33.93L29.67 34.26L28.89 35.16L28.68 35.34L28.65 35.64L28.26 35.52L28.02 35.7L27.78 35.85L27.54 36.09L27.3 36.27L27.03 36.48L26.4 36.69C25.98 36.84 25.77 36.57 25.95 36.18L25.98 36.12L26.1 35.79L26.22 35.52L26.34 35.1L26.43 34.92L26.79 34.17L26.91 33.9L27 33.51L27.12 33.33L27.06 32.91L27.57 32.07L27.69 31.89L27.81 31.65L27.93 31.2L27.84 30.84L28.47 29.85L28.59 29.73L28.71 29.25L28.92 28.74L29.04 28.47L29.61 27.03L29.73 26.73L29.85 26.52L29.94 26.31L30.06 26.01L30.42 25.17L30.51 24.93L30.63 24.6L30.75 24.42L31.08 23.43L31.35 22.95L31.56 22.23L31.65 21.99L31.71 21.81L31.68 21L31.62 20.85L31.5 20.4L31.32 20.22L31.11 20.07L30.87 19.77H30.6L30.27 19.47L29.67 19.68L29.4 19.56L29.1 19.77L28.86 19.83L28.38 20.31L28.2 20.46L27.84 20.61L27.66 20.25L27.42 20.16L27.18 19.8L26.91 19.68L26.64 19.62L26.37 19.59L24.87 19.29L23.97 19.47L23.7 19.5L22.86 19.77L22.56 20.07L22.32 20.04L22.05 20.13L21.78 20.4L21.54 20.49L20.82 21.12L20.76 21.42L20.4 21.54L20.19 21.84L19.98 21.96L19.38 22.77L19.2 22.98L19.02 23.04L18.84 23.31L18.36 24.24L18.21 24.45L18.06 24.72L17.64 25.44L17.52 25.86L17.4 26.1L17.28 26.19L17.16 26.61L17.04 26.76L16.95 27.03L16.86 27.33L16.59 28.26L16.53 28.56L16.47 28.95L16.41 29.25L16.35 29.37L16.23 30.39V30.66L16.2 31.02V31.59L16.23 31.8L16.26 32.28L16.29 32.58L16.5 33.48L16.59 33.6L16.71 33.93L17.28 34.71L17.4 34.86L17.61 35.19L17.85 35.46L18.09 35.58L18.36 35.7L18.66 35.67L18.93 35.94L19.23 36H19.56L19.86 35.94H20.43L20.73 35.97L21 36.03H21.09C21.45 36.06 21.63 36.3 21.48 36.63L21.36 36.96C21.27 37.23 21.06 37.35 20.79 37.35L20.22 37.38L19.89 37.29L18.03 37.35L17.7 37.53L17.4 37.38L17.1 37.47L16.8 37.53L16.38 37.74L15.3 37.8L15.03 37.92L14.73 38.25L13.98 38.61L13.74 38.76L13.5 39.06L13.29 39.18L13.08 39.33L12.42 40.38L12.3 40.65L12.21 40.86L12.12 41.34L12.06 41.55L12 43.05L12.06 43.29L12.12 43.68L12.21 43.98L12.3 44.25L12.9 45.21L13.11 45.48L13.32 45.54L13.53 45.87L13.77 46.08L14.01 46.17L14.82 46.65L15.09 46.74L15.39 46.77L15.66 46.95L15.96 46.92L17.46 47.04L17.76 47.01H18.06L18.36 46.8L18.66 46.89L18.96 46.8L19.26 46.53H19.53L19.83 46.38L20.61 45.9L20.88 45.75L21.12 45.72L21.36 45.39L21.6 45.3L22.02 44.82L22.2 44.58L22.17 44.19L22.56 43.95L22.71 43.86L22.86 43.59L23.49 42.21L23.61 41.76L23.73 41.58L23.82 41.31L23.94 40.89L24.15 40.38C24.24 40.14 24.42 39.99 24.69 39.93L25.32 39.81L25.59 39.72L25.89 39.66L26.19 39.45L26.46 39.51L26.76 39.33L27.03 39.18L28.14 38.97L28.41 38.85L28.68 38.61L28.95 38.49L29.19 38.34L30.6 37.29L30.84 37.08L31.02 36.78L31.62 36.18L31.8 36.03L31.98 35.76L32.16 35.43L32.31 35.22L32.49 35.04L32.64 34.68L32.79 34.41L32.94 34.23L33.09 33.96L33.63 32.97L33.75 32.49L33.9 32.34L34.02 32.07L34.14 31.65L34.26 31.38L34.5 30.9L34.62 30.63L35.07 29.46L35.16 29.16L35.28 28.92L35.37 28.62L35.49 28.38L35.61 28.11L35.79 27.6V26.85L35.64 26.55L35.46 26.52L35.19 26.25L34.89 26.22ZM20.52 31.23V30.42L20.55 30.27L20.79 29.04L20.85 28.8L20.94 28.53L21.36 27.39L21.48 27.06L21.6 26.82L21.72 26.43L21.87 26.1L22.32 25.32L22.47 25.14L22.65 25.02L22.8 24.66L22.98 24.45L23.19 24.12L23.4 24.09L24.06 23.46L24.3 23.07L24.54 23.1L24.81 22.98L25.08 22.74L25.35 22.77L25.98 22.74L26.25 22.77L26.49 23.13L26.61 23.34L26.46 24.24L26.37 24.66L26.25 24.81L26.13 25.2L26.01 25.44L25.92 25.53L25.47 26.82L25.35 26.91L25.23 27.24L25.11 27.51L25.14 27.96L24.9 28.17L24.57 29.01L24.45 29.31L24.21 29.82L24.09 30.12L23.94 30.45L23.28 31.32L22.86 31.8L22.62 32.1L21.87 32.31L21.3 32.34L21 32.31L20.58 31.53L20.52 31.23ZM17.73 43.41L16.56 43.38L16.29 43.41L15.81 42.99L15.63 42.66L15.51 42.48L15.42 42.15V41.7L15.84 40.89L16.05 40.62L16.59 40.38L16.86 40.29L17.16 40.11L17.46 40.2L18.63 40.02L18.93 40.14L19.2 40.17L19.38 40.2C19.71 40.26 19.86 40.47 19.74 40.83L19.59 41.22L19.02 42.33L18.87 42.51L18.69 42.81L18.27 43.17L18 43.47L17.73 43.41ZM48.4498 26.1L47.8198 26.16L47.2798 26.43L47.0998 26.76L46.8298 27.45L46.7398 27.69L46.6198 27.96L46.5298 28.08L46.2898 28.8L46.1698 28.98L46.0498 29.25L45.7798 29.79L45.5998 30.09L45.4498 30.3L45.2698 30.57L45.0898 30.72L44.9098 30.99L44.0398 31.77L43.7998 31.92L43.5598 32.19L43.2898 32.22L43.0498 32.46L42.7798 32.52L41.3398 33.09L41.0398 33.15L40.4398 33.03L39.8398 33.18L39.5398 33.03L39.2098 33.12L38.9398 33.03L38.6398 32.73L38.3998 32.61L37.5598 31.68L37.4098 31.47L37.3198 31.26L37.2298 30.9L36.9598 30.75L37.0798 30.15V29.34L37.1098 29.16L37.1398 28.77L36.9898 28.56L37.2898 27.96L37.3798 27.81L37.4398 27.48L37.8598 26.34L37.9798 25.98L38.0998 25.86L38.2498 25.59L38.3998 25.17L38.5498 24.93L39.2398 23.97L39.4198 23.79L39.6298 23.52L39.8398 23.31L40.0798 23.22L40.2898 23.04L40.5298 22.92L40.7998 22.56L41.0698 22.53L41.3398 22.38L41.6098 22.44L41.8798 22.32L42.4798 22.38L42.7798 22.26L43.0798 22.38L43.3198 22.62L43.5298 22.86L43.6198 23.37L42.9898 23.16L42.6898 23.1L42.0898 23.13L41.7898 23.22L41.4898 23.19L41.2198 23.52L41.0098 23.67L40.7998 23.76L40.6498 24.03L40.5298 24.48L40.4698 24.57V25.23L40.5298 25.59L40.6498 25.86L40.8298 26.25L41.0398 26.46L41.2798 26.61L41.8498 26.7L42.1498 26.94L42.4798 27.03L43.0798 26.85L43.3798 27L43.6798 26.91L43.9498 26.76L44.9698 26.07L45.2098 25.92L45.4198 25.59L45.5998 25.5L45.5698 25.2L45.8998 24.99L46.0198 24.63L46.1398 24.3L46.2298 24.15L46.2598 22.5L46.2298 22.26L46.1398 21.93L46.0198 21.75L45.8998 21.54L45.7498 21.12L44.9398 20.22L44.6998 20.04H44.4298L44.1598 19.74L43.8898 19.62H43.5898L43.2898 19.59L43.0198 19.35L42.3898 19.41L42.0898 19.32L41.4898 19.44H41.1898L40.0498 19.62L39.7498 19.77L39.4798 19.71L38.6698 20.07L38.4298 20.37L38.1598 20.46L37.9198 20.58L36.9598 21.45L36.7498 21.63L36.5398 21.78L36.3298 21.87L36.1198 22.08L35.3398 23.22L35.1898 23.28L35.0098 23.58L34.8298 23.82L34.6798 24.21L34.5298 24.45L34.3798 24.6L34.2298 24.9L34.0798 25.05L33.9298 25.32L33.5698 26.1L33.4498 26.46L33.5998 26.73L33.2698 26.97L33.1798 27.33L33.0898 27.51L32.9998 27.96L32.8198 28.68L32.8498 29.07L32.7298 29.28L32.6698 29.76V30.06L32.6398 30.21V30.75L32.7598 31.74L32.8198 31.98L32.9098 32.4L32.9998 32.7L33.2398 33.18L33.3898 33.51L34.1098 34.32L34.3198 34.59L34.5598 34.83L34.7698 34.95L35.0398 35.01L35.2798 35.19L35.5498 35.46L36.6598 35.82L36.9598 35.97L37.2298 36.06L37.5298 36.15L37.8298 36.21L38.7298 36.12L39.0298 36.27L39.6298 36.12L39.9298 36.3L40.2298 36.09L40.5298 36.15L40.8298 36.18L41.1298 36L41.3998 35.97H41.6998L41.9998 36.03L42.2698 35.82L43.4098 35.49L43.6798 35.43L43.9498 35.22L44.2198 35.13L44.4598 34.83L44.7298 34.74L45.2098 34.44L45.4498 34.14L45.6598 33.93L45.8998 33.78L46.8898 32.79L47.0998 32.49L47.2498 32.16L47.4298 32.1L47.5798 31.74L47.7598 31.44L47.9098 31.2L48.0298 31.08L48.1798 30.69L48.7798 29.25L49.0198 28.77L49.1098 28.38L49.2298 28.11L49.4698 27.6V27.06L49.3798 26.85L49.1998 26.55L48.9898 26.28L48.7198 26.22L48.4498 26.1Z" fill="white"/>
</svg>
