<svg width="555" height="141" viewBox="0 0 555 141" fill="none" xmlns="http://www.w3.org/2000/svg">

<rect class="salon" id="Expresso" y="78" width="95" height="63" fill="#D3D36E"/>
<path d="M26.7319 109.728H22.7266V113.003H27.3794V114H21.5078V104.758H27.3159V105.761H22.7266V108.731H26.7319V109.728ZM31.0166 109.639L32.54 107.132H33.9111L31.6641 110.528L33.981 114H32.6226L31.0356 111.429L29.4487 114H28.084L30.4009 110.528L28.1538 107.132H29.5122L31.0166 109.639ZM40.9634 110.642C40.9634 111.687 40.7243 112.529 40.2461 113.168C39.7679 113.807 39.1204 114.127 38.3037 114.127C37.4701 114.127 36.8141 113.862 36.3359 113.333V116.641H35.1616V107.132H36.2344L36.2915 107.894C36.7697 107.301 37.4341 107.005 38.2847 107.005C39.1099 107.005 39.7616 107.316 40.2397 107.938C40.7222 108.56 40.9634 109.425 40.9634 110.534V110.642ZM39.7891 110.509C39.7891 109.734 39.624 109.123 39.2939 108.674C38.9639 108.226 38.5111 108.001 37.9355 108.001C37.2246 108.001 36.6914 108.317 36.3359 108.947V112.229C36.6872 112.855 37.2246 113.168 37.9482 113.168C38.5111 113.168 38.9575 112.946 39.2876 112.502C39.6219 112.053 39.7891 111.389 39.7891 110.509ZM45.7812 108.186C45.6035 108.156 45.411 108.141 45.2036 108.141C44.4334 108.141 43.9108 108.469 43.6357 109.125V114H42.4614V107.132H43.604L43.623 107.925C44.0081 107.312 44.554 107.005 45.2607 107.005C45.4893 107.005 45.6628 107.035 45.7812 107.094V108.186ZM49.5898 114.127C48.6589 114.127 47.9014 113.822 47.3174 113.213C46.7334 112.599 46.4414 111.78 46.4414 110.756V110.541C46.4414 109.859 46.5705 109.252 46.8286 108.719C47.091 108.181 47.4549 107.762 47.9204 107.462C48.3901 107.157 48.8979 107.005 49.4438 107.005C50.3368 107.005 51.0308 107.299 51.5259 107.887C52.021 108.475 52.2686 109.318 52.2686 110.414V110.902H47.6157C47.6326 111.579 47.8294 112.127 48.2061 112.546C48.5869 112.961 49.0693 113.168 49.6533 113.168C50.068 113.168 50.4193 113.084 50.707 112.915C50.9948 112.745 51.2466 112.521 51.4624 112.242L52.1797 112.8C51.6042 113.685 50.7409 114.127 49.5898 114.127ZM49.4438 107.97C48.9699 107.97 48.5721 108.143 48.2505 108.49C47.9289 108.833 47.73 109.315 47.6538 109.938H51.0942V109.849C51.0604 109.252 50.8996 108.791 50.6118 108.465C50.3241 108.135 49.9347 107.97 49.4438 107.97ZM57.6323 112.178C57.6323 111.861 57.5117 111.615 57.2705 111.442C57.0335 111.264 56.6167 111.112 56.02 110.985C55.4276 110.858 54.9557 110.706 54.6045 110.528C54.2575 110.35 53.9993 110.139 53.8301 109.893C53.665 109.648 53.5825 109.356 53.5825 109.017C53.5825 108.454 53.8195 107.978 54.2935 107.589C54.7716 107.2 55.381 107.005 56.1216 107.005C56.9002 107.005 57.5308 107.206 58.0132 107.608C58.4998 108.01 58.7432 108.524 58.7432 109.15H57.5625C57.5625 108.829 57.425 108.552 57.1499 108.319C56.8791 108.086 56.5363 107.97 56.1216 107.97C55.6942 107.97 55.3599 108.063 55.1187 108.249C54.8774 108.435 54.7568 108.679 54.7568 108.979C54.7568 109.263 54.869 109.476 55.0933 109.62C55.3175 109.764 55.7217 109.902 56.3057 110.033C56.8939 110.164 57.37 110.32 57.7339 110.502C58.0978 110.684 58.3665 110.904 58.54 111.163C58.7178 111.417 58.8066 111.728 58.8066 112.096C58.8066 112.709 58.5612 113.202 58.0703 113.575C57.5794 113.943 56.9425 114.127 56.1597 114.127C55.6095 114.127 55.1229 114.03 54.6997 113.835C54.2765 113.64 53.9443 113.369 53.7031 113.022C53.4661 112.671 53.3477 112.292 53.3477 111.886H54.522C54.5431 112.28 54.6997 112.593 54.9917 112.826C55.2879 113.054 55.6772 113.168 56.1597 113.168C56.604 113.168 56.9595 113.08 57.2261 112.902C57.4969 112.72 57.6323 112.479 57.6323 112.178ZM64.3354 112.178C64.3354 111.861 64.2148 111.615 63.9736 111.442C63.7367 111.264 63.3198 111.112 62.7231 110.985C62.1307 110.858 61.6589 110.706 61.3076 110.528C60.9606 110.35 60.7025 110.139 60.5332 109.893C60.3682 109.648 60.2856 109.356 60.2856 109.017C60.2856 108.454 60.5226 107.978 60.9966 107.589C61.4748 107.2 62.0841 107.005 62.8247 107.005C63.6034 107.005 64.2339 107.206 64.7163 107.608C65.203 108.01 65.4463 108.524 65.4463 109.15H64.2656C64.2656 108.829 64.1281 108.552 63.853 108.319C63.5822 108.086 63.2394 107.97 62.8247 107.97C62.3973 107.97 62.063 108.063 61.8218 108.249C61.5806 108.435 61.46 108.679 61.46 108.979C61.46 109.263 61.5721 109.476 61.7964 109.62C62.0207 109.764 62.4248 109.902 63.0088 110.033C63.597 110.164 64.0731 110.32 64.437 110.502C64.8009 110.684 65.0697 110.904 65.2432 111.163C65.4209 111.417 65.5098 111.728 65.5098 112.096C65.5098 112.709 65.2643 113.202 64.7734 113.575C64.2826 113.943 63.6457 114.127 62.8628 114.127C62.3127 114.127 61.826 114.03 61.4028 113.835C60.9797 113.64 60.6475 113.369 60.4062 113.022C60.1693 112.671 60.0508 112.292 60.0508 111.886H61.2251C61.2463 112.28 61.4028 112.593 61.6948 112.826C61.991 113.054 62.3804 113.168 62.8628 113.168C63.3071 113.168 63.6626 113.08 63.9292 112.902C64.2 112.72 64.3354 112.479 64.3354 112.178ZM66.7285 110.502C66.7285 109.83 66.8597 109.224 67.1221 108.687C67.3887 108.15 67.7568 107.735 68.2266 107.443C68.7005 107.151 69.2401 107.005 69.8452 107.005C70.7804 107.005 71.5358 107.329 72.1113 107.976C72.6911 108.624 72.981 109.485 72.981 110.56V110.642C72.981 111.311 72.8519 111.912 72.5938 112.445C72.3398 112.974 71.9738 113.386 71.4956 113.683C71.0216 113.979 70.4757 114.127 69.8579 114.127C68.9269 114.127 68.1715 113.803 67.5918 113.156C67.0163 112.508 66.7285 111.651 66.7285 110.585V110.502ZM67.9092 110.642C67.9092 111.404 68.0848 112.015 68.436 112.477C68.7915 112.938 69.2655 113.168 69.8579 113.168C70.4546 113.168 70.9285 112.936 71.2798 112.47C71.631 112 71.8066 111.345 71.8066 110.502C71.8066 109.749 71.6268 109.14 71.2671 108.674C70.9116 108.205 70.4377 107.97 69.8452 107.97C69.2655 107.97 68.7979 108.2 68.4424 108.662C68.0869 109.123 67.9092 109.783 67.9092 110.642Z" fill="black"/>

<rect class="salon" id="Lungo"  x="230" y="78" width="95" height="63" fill="#D3D36E"/>
<path d="M261.41 113.003H265.79V114H260.185V104.758H261.41V113.003ZM270.957 113.321C270.5 113.858 269.829 114.127 268.945 114.127C268.213 114.127 267.654 113.915 267.269 113.492C266.888 113.065 266.696 112.434 266.691 111.601V107.132H267.866V111.569C267.866 112.61 268.289 113.13 269.135 113.13C270.032 113.13 270.629 112.796 270.925 112.127V107.132H272.1V114H270.982L270.957 113.321ZM275 107.132L275.039 107.995C275.563 107.335 276.249 107.005 277.095 107.005C278.547 107.005 279.279 107.824 279.292 109.461V114H278.117V109.455C278.113 108.96 277.999 108.594 277.774 108.357C277.554 108.12 277.209 108.001 276.74 108.001C276.359 108.001 276.025 108.103 275.737 108.306C275.449 108.509 275.225 108.776 275.064 109.106V114H273.89V107.132H275ZM280.783 110.509C280.783 109.438 281.031 108.588 281.526 107.957C282.021 107.322 282.677 107.005 283.494 107.005C284.332 107.005 284.985 107.301 285.455 107.894L285.512 107.132H286.585V113.835C286.585 114.724 286.32 115.424 285.792 115.936C285.267 116.448 284.56 116.704 283.671 116.704C283.176 116.704 282.692 116.598 282.218 116.387C281.744 116.175 281.382 115.885 281.132 115.517L281.742 114.812C282.245 115.435 282.861 115.746 283.589 115.746C284.16 115.746 284.604 115.585 284.922 115.263C285.243 114.942 285.404 114.489 285.404 113.905V113.314C284.935 113.856 284.293 114.127 283.481 114.127C282.677 114.127 282.025 113.803 281.526 113.156C281.031 112.508 280.783 111.626 280.783 110.509ZM281.964 110.642C281.964 111.417 282.123 112.026 282.44 112.47C282.757 112.91 283.202 113.13 283.773 113.13C284.514 113.13 285.057 112.794 285.404 112.121V108.985C285.045 108.329 284.505 108.001 283.786 108.001C283.214 108.001 282.768 108.224 282.446 108.668C282.125 109.112 281.964 109.77 281.964 110.642ZM288.051 110.502C288.051 109.83 288.182 109.224 288.445 108.687C288.711 108.15 289.08 107.735 289.549 107.443C290.023 107.151 290.563 107.005 291.168 107.005C292.103 107.005 292.859 107.329 293.434 107.976C294.014 108.624 294.304 109.485 294.304 110.56V110.642C294.304 111.311 294.175 111.912 293.917 112.445C293.663 112.974 293.297 113.386 292.818 113.683C292.344 113.979 291.799 114.127 291.181 114.127C290.25 114.127 289.494 113.803 288.915 113.156C288.339 112.508 288.051 111.651 288.051 110.585V110.502ZM289.232 110.642C289.232 111.404 289.408 112.015 289.759 112.477C290.114 112.938 290.588 113.168 291.181 113.168C291.777 113.168 292.251 112.936 292.603 112.47C292.954 112 293.129 111.345 293.129 110.502C293.129 109.749 292.95 109.14 292.59 108.674C292.234 108.205 291.76 107.97 291.168 107.97C290.588 107.97 290.121 108.2 289.765 108.662C289.41 109.123 289.232 109.783 289.232 110.642Z" fill="black"/>

<rect class="salon" id="Affogato" x="115" y="78" width="95" height="63" fill="#D3D36E"/>
<path d="M143.254 111.588H139.382L138.512 114H137.255L140.785 104.758H141.851L145.387 114H144.136L143.254 111.588ZM139.75 110.585H142.892L141.318 106.262L139.75 110.585ZM147.024 114V108.04H145.939V107.132H147.024V106.427C147.024 105.691 147.221 105.122 147.615 104.72C148.008 104.318 148.565 104.117 149.284 104.117C149.555 104.117 149.824 104.153 150.09 104.225L150.027 105.177C149.828 105.139 149.616 105.12 149.392 105.12C149.011 105.12 148.717 105.232 148.51 105.456C148.302 105.676 148.199 105.993 148.199 106.408V107.132H149.665V108.04H148.199V114H147.024ZM151.544 114V108.04H150.458V107.132H151.544V106.427C151.544 105.691 151.741 105.122 152.134 104.72C152.528 104.318 153.084 104.117 153.804 104.117C154.075 104.117 154.343 104.153 154.61 104.225L154.546 105.177C154.347 105.139 154.136 105.12 153.912 105.12C153.531 105.12 153.237 105.232 153.029 105.456C152.822 105.676 152.718 105.993 152.718 106.408V107.132H154.185V108.04H152.718V114H151.544ZM155.175 110.502C155.175 109.83 155.306 109.224 155.568 108.687C155.835 108.15 156.203 107.735 156.673 107.443C157.147 107.151 157.686 107.005 158.292 107.005C159.227 107.005 159.982 107.329 160.558 107.976C161.137 108.624 161.427 109.485 161.427 110.56V110.642C161.427 111.311 161.298 111.912 161.04 112.445C160.786 112.974 160.42 113.386 159.942 113.683C159.468 113.979 158.922 114.127 158.304 114.127C157.373 114.127 156.618 113.803 156.038 113.156C155.463 112.508 155.175 111.651 155.175 110.585V110.502ZM156.355 110.642C156.355 111.404 156.531 112.015 156.882 112.477C157.238 112.938 157.712 113.168 158.304 113.168C158.901 113.168 159.375 112.936 159.726 112.47C160.077 112 160.253 111.345 160.253 110.502C160.253 109.749 160.073 109.14 159.713 108.674C159.358 108.205 158.884 107.97 158.292 107.97C157.712 107.97 157.244 108.2 156.889 108.662C156.533 109.123 156.355 109.783 156.355 110.642ZM162.621 110.509C162.621 109.438 162.868 108.588 163.363 107.957C163.858 107.322 164.514 107.005 165.331 107.005C166.169 107.005 166.823 107.301 167.292 107.894L167.35 107.132H168.422V113.835C168.422 114.724 168.158 115.424 167.629 115.936C167.104 116.448 166.397 116.704 165.509 116.704C165.014 116.704 164.529 116.598 164.055 116.387C163.581 116.175 163.219 115.885 162.97 115.517L163.579 114.812C164.083 115.435 164.698 115.746 165.426 115.746C165.998 115.746 166.442 115.585 166.759 115.263C167.081 114.942 167.242 114.489 167.242 113.905V113.314C166.772 113.856 166.131 114.127 165.318 114.127C164.514 114.127 163.863 113.803 163.363 113.156C162.868 112.508 162.621 111.626 162.621 110.509ZM163.801 110.642C163.801 111.417 163.96 112.026 164.277 112.47C164.595 112.91 165.039 113.13 165.61 113.13C166.351 113.13 166.895 112.794 167.242 112.121V108.985C166.882 108.329 166.342 108.001 165.623 108.001C165.052 108.001 164.605 108.224 164.284 108.668C163.962 109.112 163.801 109.77 163.801 110.642ZM174.44 114C174.372 113.865 174.317 113.623 174.275 113.276C173.729 113.843 173.077 114.127 172.32 114.127C171.643 114.127 171.086 113.937 170.65 113.556C170.219 113.171 170.003 112.684 170.003 112.096C170.003 111.381 170.274 110.826 170.815 110.433C171.361 110.035 172.127 109.836 173.113 109.836H174.256V109.296C174.256 108.886 174.133 108.56 173.888 108.319C173.642 108.073 173.28 107.951 172.802 107.951C172.383 107.951 172.032 108.056 171.749 108.268C171.465 108.48 171.323 108.736 171.323 109.036H170.143C170.143 108.693 170.263 108.363 170.504 108.046C170.75 107.724 171.08 107.47 171.495 107.284C171.914 107.098 172.373 107.005 172.872 107.005C173.663 107.005 174.283 107.204 174.732 107.602C175.181 107.995 175.413 108.539 175.43 109.233V112.394C175.43 113.025 175.511 113.526 175.671 113.898V114H174.44ZM172.491 113.105C172.859 113.105 173.208 113.01 173.539 112.819C173.869 112.629 174.108 112.381 174.256 112.077V110.667H173.335C171.897 110.667 171.177 111.089 171.177 111.931C171.177 112.299 171.3 112.587 171.545 112.794C171.791 113.001 172.106 113.105 172.491 113.105ZM178.864 105.469V107.132H180.146V108.04H178.864V112.299C178.864 112.574 178.921 112.781 179.036 112.921C179.15 113.056 179.345 113.124 179.62 113.124C179.755 113.124 179.941 113.099 180.178 113.048V114C179.869 114.085 179.569 114.127 179.277 114.127C178.752 114.127 178.356 113.968 178.09 113.651C177.823 113.333 177.69 112.883 177.69 112.299V108.04H176.439V107.132H177.69V105.469H178.864ZM181.086 110.502C181.086 109.83 181.217 109.224 181.479 108.687C181.746 108.15 182.114 107.735 182.584 107.443C183.058 107.151 183.597 107.005 184.203 107.005C185.138 107.005 185.893 107.329 186.469 107.976C187.049 108.624 187.338 109.485 187.338 110.56V110.642C187.338 111.311 187.209 111.912 186.951 112.445C186.697 112.974 186.331 113.386 185.853 113.683C185.379 113.979 184.833 114.127 184.215 114.127C183.284 114.127 182.529 113.803 181.949 113.156C181.374 112.508 181.086 111.651 181.086 110.585V110.502ZM182.267 110.642C182.267 111.404 182.442 112.015 182.793 112.477C183.149 112.938 183.623 113.168 184.215 113.168C184.812 113.168 185.286 112.936 185.637 112.47C185.988 112 186.164 111.345 186.164 110.502C186.164 109.749 185.984 109.14 185.625 108.674C185.269 108.205 184.795 107.97 184.203 107.97C183.623 107.97 183.155 108.2 182.8 108.662C182.444 109.123 182.267 109.783 182.267 110.642Z" fill="black"/>

<rect class="salon" id="Americain" x="345" y="78" width="95" height="63" fill="#D3D36E"/>
<path d="M369.401 111.588H365.529L364.659 114H363.402L366.932 104.758H367.998L371.534 114H370.283L369.401 111.588ZM365.897 110.585H369.039L367.465 106.262L365.897 110.585ZM373.698 107.132L373.73 107.894C374.234 107.301 374.913 107.005 375.768 107.005C376.728 107.005 377.382 107.373 377.729 108.109C377.958 107.779 378.254 107.513 378.618 107.31C378.986 107.106 379.42 107.005 379.919 107.005C381.425 107.005 382.191 107.803 382.217 109.398V114H381.042V109.468C381.042 108.977 380.93 108.611 380.706 108.37C380.482 108.124 380.105 108.001 379.576 108.001C379.14 108.001 378.778 108.133 378.491 108.395C378.203 108.653 378.036 109.002 377.989 109.442V114H376.809V109.5C376.809 108.501 376.32 108.001 375.342 108.001C374.572 108.001 374.045 108.329 373.762 108.985V114H372.587V107.132H373.698ZM386.844 114.127C385.913 114.127 385.156 113.822 384.572 113.213C383.988 112.599 383.696 111.78 383.696 110.756V110.541C383.696 109.859 383.825 109.252 384.083 108.719C384.345 108.181 384.709 107.762 385.175 107.462C385.645 107.157 386.152 107.005 386.698 107.005C387.591 107.005 388.285 107.299 388.78 107.887C389.275 108.475 389.523 109.318 389.523 110.414V110.902H384.87C384.887 111.579 385.084 112.127 385.46 112.546C385.841 112.961 386.324 113.168 386.908 113.168C387.322 113.168 387.674 113.084 387.961 112.915C388.249 112.745 388.501 112.521 388.717 112.242L389.434 112.8C388.859 113.685 387.995 114.127 386.844 114.127ZM386.698 107.97C386.224 107.97 385.826 108.143 385.505 108.49C385.183 108.833 384.984 109.315 384.908 109.938H388.349V109.849C388.315 109.252 388.154 108.791 387.866 108.465C387.578 108.135 387.189 107.97 386.698 107.97ZM394.208 108.186C394.03 108.156 393.837 108.141 393.63 108.141C392.86 108.141 392.337 108.469 392.062 109.125V114H390.888V107.132H392.03L392.049 107.925C392.434 107.312 392.98 107.005 393.687 107.005C393.916 107.005 394.089 107.035 394.208 107.094V108.186ZM396.569 114H395.395V107.132H396.569V114ZM395.299 105.31C395.299 105.12 395.356 104.959 395.471 104.828C395.589 104.696 395.763 104.631 395.991 104.631C396.22 104.631 396.393 104.696 396.512 104.828C396.63 104.959 396.689 105.12 396.689 105.31C396.689 105.5 396.63 105.659 396.512 105.786C396.393 105.913 396.22 105.977 395.991 105.977C395.763 105.977 395.589 105.913 395.471 105.786C395.356 105.659 395.299 105.5 395.299 105.31ZM401.209 113.168C401.628 113.168 401.994 113.042 402.307 112.788C402.62 112.534 402.794 112.216 402.828 111.835H403.938C403.917 112.229 403.782 112.604 403.532 112.959C403.283 113.314 402.948 113.598 402.529 113.81C402.115 114.021 401.674 114.127 401.209 114.127C400.274 114.127 399.529 113.816 398.975 113.194C398.424 112.568 398.149 111.713 398.149 110.629V110.433C398.149 109.764 398.272 109.169 398.518 108.649C398.763 108.128 399.114 107.724 399.571 107.437C400.033 107.149 400.576 107.005 401.203 107.005C401.973 107.005 402.612 107.236 403.12 107.697C403.632 108.158 403.905 108.757 403.938 109.493H402.828C402.794 109.049 402.625 108.685 402.32 108.401C402.019 108.114 401.647 107.97 401.203 107.97C400.606 107.97 400.143 108.186 399.812 108.617C399.487 109.045 399.324 109.665 399.324 110.477V110.699C399.324 111.491 399.487 112.1 399.812 112.527C400.138 112.955 400.604 113.168 401.209 113.168ZM409.499 114C409.431 113.865 409.376 113.623 409.334 113.276C408.788 113.843 408.136 114.127 407.379 114.127C406.702 114.127 406.145 113.937 405.709 113.556C405.278 113.171 405.062 112.684 405.062 112.096C405.062 111.381 405.333 110.826 405.875 110.433C406.42 110.035 407.186 109.836 408.172 109.836H409.315V109.296C409.315 108.886 409.192 108.56 408.947 108.319C408.701 108.073 408.34 107.951 407.861 107.951C407.442 107.951 407.091 108.056 406.808 108.268C406.524 108.48 406.382 108.736 406.382 109.036H405.202C405.202 108.693 405.322 108.363 405.563 108.046C405.809 107.724 406.139 107.47 406.554 107.284C406.973 107.098 407.432 107.005 407.931 107.005C408.722 107.005 409.342 107.204 409.791 107.602C410.24 107.995 410.472 108.539 410.489 109.233V112.394C410.489 113.025 410.57 113.526 410.73 113.898V114H409.499ZM407.55 113.105C407.918 113.105 408.268 113.01 408.598 112.819C408.928 112.629 409.167 112.381 409.315 112.077V110.667H408.395C406.956 110.667 406.236 111.089 406.236 111.931C406.236 112.299 406.359 112.587 406.604 112.794C406.85 113.001 407.165 113.105 407.55 113.105ZM413.606 114H412.432V107.132H413.606V114ZM412.336 105.31C412.336 105.12 412.394 104.959 412.508 104.828C412.626 104.696 412.8 104.631 413.028 104.631C413.257 104.631 413.43 104.696 413.549 104.828C413.667 104.959 413.727 105.12 413.727 105.31C413.727 105.5 413.667 105.659 413.549 105.786C413.43 105.913 413.257 105.977 413.028 105.977C412.8 105.977 412.626 105.913 412.508 105.786C412.394 105.659 412.336 105.5 412.336 105.31ZM416.602 107.132L416.64 107.995C417.165 107.335 417.85 107.005 418.697 107.005C420.148 107.005 420.88 107.824 420.893 109.461V114H419.719V109.455C419.715 108.96 419.6 108.594 419.376 108.357C419.156 108.12 418.811 108.001 418.341 108.001C417.96 108.001 417.626 108.103 417.338 108.306C417.051 108.509 416.826 108.776 416.666 109.106V114H415.491V107.132H416.602Z" fill="black"/>

<rect class="salon" id="Noisette" x="460" y="78" width="95" height="63" fill="#D3D36E"/>
<rect class="salon" id="Cappuccino" width="95" height="63" fill="#D3D36E"/>
<rect class="salon" id="Macchiato" x="230" width="95" height="63" fill="#D3D36E"/>
<rect class="salon" id="Dulcetto" x="115" width="95" height="63" fill="#D3D36E"/>
<rect class="salon" id="Ambello" x="345" width="95" height="63" fill="#D3D36E"/>
<rect class="salon" id="Leche" x="460" width="95" height="63" fill="#D3D36E"/>
<path d="M21.0366 33.0674C20.9224 34.0449 20.5605 34.8003 19.9512 35.3335C19.346 35.8625 18.5399 36.127 17.5327 36.127C16.4409 36.127 15.5649 35.7355 14.9048 34.9526C14.2489 34.1698 13.9209 33.1224 13.9209 31.8105V30.9219C13.9209 30.0628 14.0732 29.3075 14.3779 28.6558C14.6868 28.0041 15.1227 27.5047 15.6855 27.1577C16.2484 26.8065 16.9001 26.6309 17.6406 26.6309C18.6224 26.6309 19.4095 26.9059 20.002 27.4561C20.5944 28.002 20.9393 28.7594 21.0366 29.7285H19.8115C19.7057 28.9922 19.4751 28.459 19.1196 28.1289C18.7684 27.7988 18.2754 27.6338 17.6406 27.6338C16.862 27.6338 16.2505 27.9215 15.8062 28.4971C15.366 29.0726 15.146 29.8914 15.146 30.9536V31.8486C15.146 32.8516 15.3555 33.6493 15.7744 34.2417C16.1934 34.8341 16.7795 35.1304 17.5327 35.1304C18.2098 35.1304 18.7282 34.978 19.0879 34.6733C19.4518 34.3644 19.693 33.8291 19.8115 33.0674H21.0366ZM26.7622 36C26.6945 35.8646 26.6395 35.6234 26.5972 35.2764C26.0513 35.8434 25.3996 36.127 24.6421 36.127C23.965 36.127 23.4085 35.9365 22.9727 35.5557C22.541 35.1706 22.3252 34.6839 22.3252 34.0957C22.3252 33.3805 22.596 32.8262 23.1377 32.4326C23.6836 32.0348 24.4495 31.8359 25.4355 31.8359H26.5781V31.2964C26.5781 30.8859 26.4554 30.5601 26.21 30.3188C25.9645 30.0734 25.6027 29.9507 25.1245 29.9507C24.7056 29.9507 24.3543 30.0565 24.0708 30.2681C23.7873 30.4797 23.6455 30.7357 23.6455 31.0361H22.4648C22.4648 30.6934 22.5854 30.3633 22.8267 30.0459C23.0721 29.7243 23.4022 29.4704 23.8169 29.2842C24.2358 29.098 24.695 29.0049 25.1943 29.0049C25.9857 29.0049 26.6056 29.2038 27.0542 29.6016C27.5028 29.9951 27.7355 30.5389 27.7524 31.2329V34.394C27.7524 35.0246 27.8328 35.526 27.9937 35.8984V36H26.7622ZM24.8135 35.105C25.1816 35.105 25.5308 35.0098 25.8608 34.8193C26.1909 34.6289 26.43 34.3813 26.5781 34.0767V32.6675H25.6577C24.2189 32.6675 23.4995 33.0885 23.4995 33.9307C23.4995 34.2988 23.6222 34.5866 23.8677 34.7939C24.1131 35.0013 24.4284 35.105 24.8135 35.105ZM35.395 32.6421C35.395 33.6873 35.1559 34.5295 34.6777 35.1685C34.1995 35.8075 33.5521 36.127 32.7354 36.127C31.9017 36.127 31.2458 35.8625 30.7676 35.3335V38.6406H29.5933V29.1318H30.666L30.7231 29.8936C31.2013 29.3011 31.8657 29.0049 32.7163 29.0049C33.5415 29.0049 34.1932 29.3159 34.6714 29.938C35.1538 30.5601 35.395 31.4255 35.395 32.5342V32.6421ZM34.2207 32.5088C34.2207 31.7344 34.0557 31.1229 33.7256 30.6743C33.3955 30.2257 32.9427 30.0015 32.3672 30.0015C31.6562 30.0015 31.123 30.3167 30.7676 30.9473V34.229C31.1188 34.8553 31.6562 35.1685 32.3799 35.1685C32.9427 35.1685 33.3892 34.9463 33.7192 34.502C34.0535 34.0534 34.2207 33.389 34.2207 32.5088ZM42.6948 32.6421C42.6948 33.6873 42.4557 34.5295 41.9775 35.1685C41.4993 35.8075 40.8519 36.127 40.0352 36.127C39.2015 36.127 38.5456 35.8625 38.0674 35.3335V38.6406H36.8931V29.1318H37.9658L38.0229 29.8936C38.5011 29.3011 39.1655 29.0049 40.0161 29.0049C40.8413 29.0049 41.493 29.3159 41.9712 29.938C42.4536 30.5601 42.6948 31.4255 42.6948 32.5342V32.6421ZM41.5205 32.5088C41.5205 31.7344 41.3555 31.1229 41.0254 30.6743C40.6953 30.2257 40.2425 30.0015 39.667 30.0015C38.9561 30.0015 38.4229 30.3167 38.0674 30.9473V34.229C38.4186 34.8553 38.9561 35.1685 39.6797 35.1685C40.2425 35.1685 40.689 34.9463 41.019 34.502C41.3534 34.0534 41.5205 33.389 41.5205 32.5088ZM48.4331 35.3208C47.9761 35.8582 47.3053 36.127 46.4209 36.127C45.6888 36.127 45.1302 35.9154 44.7451 35.4922C44.3643 35.0648 44.1717 34.4342 44.1675 33.6006V29.1318H45.3418V33.5688C45.3418 34.6099 45.765 35.1304 46.6113 35.1304C47.5085 35.1304 48.1051 34.7961 48.4014 34.1274V29.1318H49.5757V36H48.4585L48.4331 35.3208ZM54.1206 35.1685C54.5396 35.1685 54.9056 35.0415 55.2188 34.7876C55.5319 34.5337 55.7054 34.2163 55.7393 33.8354H56.8501C56.8289 34.229 56.6935 34.6035 56.4438 34.959C56.1942 35.3145 55.8599 35.598 55.4409 35.8096C55.0262 36.0212 54.5861 36.127 54.1206 36.127C53.1854 36.127 52.4406 35.8159 51.8862 35.1938C51.3361 34.5675 51.061 33.7127 51.061 32.6294V32.4326C51.061 31.764 51.1838 31.1694 51.4292 30.6489C51.6746 30.1284 52.0259 29.7243 52.4829 29.4365C52.9442 29.1488 53.488 29.0049 54.1143 29.0049C54.8844 29.0049 55.5234 29.2355 56.0312 29.6968C56.5433 30.158 56.8162 30.7568 56.8501 31.4932H55.7393C55.7054 31.0488 55.5361 30.6849 55.2314 30.4014C54.931 30.1136 54.5586 29.9697 54.1143 29.9697C53.5176 29.9697 53.0542 30.1855 52.7241 30.6172C52.3983 31.0446 52.2354 31.6646 52.2354 32.4771V32.6992C52.2354 33.4906 52.3983 34.0999 52.7241 34.5273C53.05 34.9548 53.5155 35.1685 54.1206 35.1685ZM60.9253 35.1685C61.3442 35.1685 61.7103 35.0415 62.0234 34.7876C62.3366 34.5337 62.5101 34.2163 62.5439 33.8354H63.6548C63.6336 34.229 63.4982 34.6035 63.2485 34.959C62.9989 35.3145 62.6646 35.598 62.2456 35.8096C61.8309 36.0212 61.3908 36.127 60.9253 36.127C59.9901 36.127 59.2453 35.8159 58.6909 35.1938C58.1408 34.5675 57.8657 33.7127 57.8657 32.6294V32.4326C57.8657 31.764 57.9884 31.1694 58.2339 30.6489C58.4793 30.1284 58.8306 29.7243 59.2876 29.4365C59.7489 29.1488 60.2926 29.0049 60.9189 29.0049C61.6891 29.0049 62.3281 29.2355 62.8359 29.6968C63.348 30.158 63.6209 30.7568 63.6548 31.4932H62.5439C62.5101 31.0488 62.3408 30.6849 62.0361 30.4014C61.7357 30.1136 61.3633 29.9697 60.9189 29.9697C60.3223 29.9697 59.8589 30.1855 59.5288 30.6172C59.203 31.0446 59.04 31.6646 59.04 32.4771V32.6992C59.04 33.4906 59.203 34.0999 59.5288 34.5273C59.8547 34.9548 60.3201 35.1685 60.9253 35.1685ZM66.251 36H65.0767V29.1318H66.251V36ZM64.9814 27.3101C64.9814 27.1196 65.0386 26.9588 65.1528 26.8276C65.2713 26.6965 65.4448 26.6309 65.6733 26.6309C65.9019 26.6309 66.0754 26.6965 66.1938 26.8276C66.3123 26.9588 66.3716 27.1196 66.3716 27.3101C66.3716 27.5005 66.3123 27.6592 66.1938 27.7861C66.0754 27.9131 65.9019 27.9766 65.6733 27.9766C65.4448 27.9766 65.2713 27.9131 65.1528 27.7861C65.0386 27.6592 64.9814 27.5005 64.9814 27.3101ZM69.2471 29.1318L69.2852 29.9951C69.8099 29.335 70.4954 29.0049 71.3418 29.0049C72.7933 29.0049 73.5254 29.8237 73.5381 31.4614V36H72.3638V31.4551C72.3595 30.96 72.2453 30.5939 72.021 30.3569C71.8009 30.12 71.4561 30.0015 70.9863 30.0015C70.6055 30.0015 70.2712 30.103 69.9834 30.3062C69.6956 30.5093 69.4714 30.7759 69.3105 31.106V36H68.1362V29.1318H69.2471ZM74.998 32.5024C74.998 31.8296 75.1292 31.2244 75.3916 30.687C75.6582 30.1496 76.0264 29.7349 76.4961 29.4429C76.9701 29.1509 77.5096 29.0049 78.1147 29.0049C79.05 29.0049 79.8053 29.3286 80.3809 29.9761C80.9606 30.6235 81.2505 31.4847 81.2505 32.5596V32.6421C81.2505 33.3107 81.1214 33.9116 80.8633 34.4448C80.6094 34.9738 80.2433 35.3864 79.7651 35.6826C79.2912 35.9788 78.7453 36.127 78.1274 36.127C77.1965 36.127 76.4411 35.8032 75.8613 35.1558C75.2858 34.5083 74.998 33.6514 74.998 32.585V32.5024ZM76.1787 32.6421C76.1787 33.4038 76.3543 34.0153 76.7056 34.4766C77.061 34.9378 77.535 35.1685 78.1274 35.1685C78.7241 35.1685 79.1981 34.9357 79.5493 34.4702C79.9006 34.0005 80.0762 33.3446 80.0762 32.5024C80.0762 31.7492 79.8963 31.1398 79.5366 30.6743C79.1812 30.2046 78.7072 29.9697 78.1147 29.9697C77.535 29.9697 77.0674 30.2004 76.7119 30.6616C76.3564 31.1229 76.1787 31.783 76.1787 32.6421Z" fill="black"/>
<path d="M249.666 26.7578L252.687 34.2988L255.708 26.7578H257.289V36H256.07V32.4009L256.185 28.5161L253.15 36H252.217L249.189 28.5352L249.31 32.4009V36H248.091V26.7578H249.666ZM263.497 36C263.429 35.8646 263.374 35.6234 263.332 35.2764C262.786 35.8434 262.134 36.127 261.377 36.127C260.7 36.127 260.143 35.9365 259.708 35.5557C259.276 35.1706 259.06 34.6839 259.06 34.0957C259.06 33.3805 259.331 32.8262 259.873 32.4326C260.418 32.0348 261.184 31.8359 262.17 31.8359H263.313V31.2964C263.313 30.8859 263.19 30.5601 262.945 30.3188C262.699 30.0734 262.338 29.9507 261.859 29.9507C261.44 29.9507 261.089 30.0565 260.806 30.2681C260.522 30.4797 260.38 30.7357 260.38 31.0361H259.2C259.2 30.6934 259.32 30.3633 259.562 30.0459C259.807 29.7243 260.137 29.4704 260.552 29.2842C260.971 29.098 261.43 29.0049 261.929 29.0049C262.721 29.0049 263.34 29.2038 263.789 29.6016C264.238 29.9951 264.47 30.5389 264.487 31.2329V34.394C264.487 35.0246 264.568 35.526 264.729 35.8984V36H263.497ZM261.548 35.105C261.917 35.105 262.266 35.0098 262.596 34.8193C262.926 34.6289 263.165 34.3813 263.313 34.0767V32.6675H262.393C260.954 32.6675 260.234 33.0885 260.234 33.9307C260.234 34.2988 260.357 34.5866 260.603 34.7939C260.848 35.0013 261.163 35.105 261.548 35.105ZM269.083 35.1685C269.502 35.1685 269.868 35.0415 270.181 34.7876C270.494 34.5337 270.668 34.2163 270.702 33.8354H271.812C271.791 34.229 271.656 34.6035 271.406 34.959C271.157 35.3145 270.822 35.598 270.403 35.8096C269.989 36.0212 269.549 36.127 269.083 36.127C268.148 36.127 267.403 35.8159 266.849 35.1938C266.299 34.5675 266.023 33.7127 266.023 32.6294V32.4326C266.023 31.764 266.146 31.1694 266.392 30.6489C266.637 30.1284 266.988 29.7243 267.445 29.4365C267.907 29.1488 268.45 29.0049 269.077 29.0049C269.847 29.0049 270.486 29.2355 270.994 29.6968C271.506 30.158 271.779 30.7568 271.812 31.4932H270.702C270.668 31.0488 270.499 30.6849 270.194 30.4014C269.893 30.1136 269.521 29.9697 269.077 29.9697C268.48 29.9697 268.017 30.1855 267.687 30.6172C267.361 31.0446 267.198 31.6646 267.198 32.4771V32.6992C267.198 33.4906 267.361 34.0999 267.687 34.5273C268.012 34.9548 268.478 35.1685 269.083 35.1685ZM275.888 35.1685C276.307 35.1685 276.673 35.0415 276.986 34.7876C277.299 34.5337 277.472 34.2163 277.506 33.8354H278.617C278.596 34.229 278.461 34.6035 278.211 34.959C277.961 35.3145 277.627 35.598 277.208 35.8096C276.793 36.0212 276.353 36.127 275.888 36.127C274.952 36.127 274.208 35.8159 273.653 35.1938C273.103 34.5675 272.828 33.7127 272.828 32.6294V32.4326C272.828 31.764 272.951 31.1694 273.196 30.6489C273.442 30.1284 273.793 29.7243 274.25 29.4365C274.711 29.1488 275.255 29.0049 275.881 29.0049C276.652 29.0049 277.291 29.2355 277.798 29.6968C278.31 30.158 278.583 30.7568 278.617 31.4932H277.506C277.472 31.0488 277.303 30.6849 276.999 30.4014C276.698 30.1136 276.326 29.9697 275.881 29.9697C275.285 29.9697 274.821 30.1855 274.491 30.6172C274.165 31.0446 274.002 31.6646 274.002 32.4771V32.6992C274.002 33.4906 274.165 34.0999 274.491 34.5273C274.817 34.9548 275.283 35.1685 275.888 35.1685ZM281.112 29.9634C281.632 29.3244 282.309 29.0049 283.143 29.0049C284.595 29.0049 285.327 29.8237 285.339 31.4614V36H284.165V31.4551C284.161 30.96 284.047 30.5939 283.822 30.3569C283.602 30.12 283.257 30.0015 282.788 30.0015C282.407 30.0015 282.072 30.103 281.785 30.3062C281.497 30.5093 281.273 30.7759 281.112 31.106V36H279.938V26.25H281.112V29.9634ZM288.374 36H287.199V29.1318H288.374V36ZM287.104 27.3101C287.104 27.1196 287.161 26.9588 287.275 26.8276C287.394 26.6965 287.567 26.6309 287.796 26.6309C288.024 26.6309 288.198 26.6965 288.316 26.8276C288.435 26.9588 288.494 27.1196 288.494 27.3101C288.494 27.5005 288.435 27.6592 288.316 27.7861C288.198 27.9131 288.024 27.9766 287.796 27.9766C287.567 27.9766 287.394 27.9131 287.275 27.7861C287.161 27.6592 287.104 27.5005 287.104 27.3101ZM294.499 36C294.431 35.8646 294.376 35.6234 294.334 35.2764C293.788 35.8434 293.136 36.127 292.379 36.127C291.702 36.127 291.145 35.9365 290.709 35.5557C290.278 35.1706 290.062 34.6839 290.062 34.0957C290.062 33.3805 290.333 32.8262 290.875 32.4326C291.42 32.0348 292.186 31.8359 293.172 31.8359H294.315V31.2964C294.315 30.8859 294.192 30.5601 293.947 30.3188C293.701 30.0734 293.34 29.9507 292.861 29.9507C292.442 29.9507 292.091 30.0565 291.808 30.2681C291.524 30.4797 291.382 30.7357 291.382 31.0361H290.202C290.202 30.6934 290.322 30.3633 290.563 30.0459C290.809 29.7243 291.139 29.4704 291.554 29.2842C291.973 29.098 292.432 29.0049 292.931 29.0049C293.722 29.0049 294.342 29.2038 294.791 29.6016C295.24 29.9951 295.472 30.5389 295.489 31.2329V34.394C295.489 35.0246 295.57 35.526 295.73 35.8984V36H294.499ZM292.55 35.105C292.918 35.105 293.268 35.0098 293.598 34.8193C293.928 34.6289 294.167 34.3813 294.315 34.0767V32.6675H293.395C291.956 32.6675 291.236 33.0885 291.236 33.9307C291.236 34.2988 291.359 34.5866 291.604 34.7939C291.85 35.0013 292.165 35.105 292.55 35.105ZM298.923 27.4688V29.1318H300.206V30.0396H298.923V34.2988C298.923 34.5739 298.98 34.7812 299.095 34.9209C299.209 35.0563 299.404 35.124 299.679 35.124C299.814 35.124 300 35.0986 300.237 35.0479V36C299.928 36.0846 299.628 36.127 299.336 36.127C298.811 36.127 298.416 35.9683 298.149 35.6509C297.882 35.3335 297.749 34.8828 297.749 34.2988V30.0396H296.499V29.1318H297.749V27.4688H298.923ZM301.145 32.5024C301.145 31.8296 301.276 31.2244 301.539 30.687C301.805 30.1496 302.173 29.7349 302.643 29.4429C303.117 29.1509 303.657 29.0049 304.262 29.0049C305.197 29.0049 305.952 29.3286 306.528 29.9761C307.108 30.6235 307.397 31.4847 307.397 32.5596V32.6421C307.397 33.3107 307.268 33.9116 307.01 34.4448C306.756 34.9738 306.39 35.3864 305.912 35.6826C305.438 35.9788 304.892 36.127 304.274 36.127C303.343 36.127 302.588 35.8032 302.008 35.1558C301.433 34.5083 301.145 33.6514 301.145 32.585V32.5024ZM302.326 32.6421C302.326 33.4038 302.501 34.0153 302.853 34.4766C303.208 34.9378 303.682 35.1685 304.274 35.1685C304.871 35.1685 305.345 34.9357 305.696 34.4702C306.048 34.0005 306.223 33.3446 306.223 32.5024C306.223 31.7492 306.043 31.1398 305.684 30.6743C305.328 30.2046 304.854 29.9697 304.262 29.9697C303.682 29.9697 303.214 30.2004 302.859 30.6616C302.503 31.1229 302.326 31.783 302.326 32.6421Z" fill="black"/>
<path d="M492.424 35.0034H496.804V36H491.199V26.7578H492.424V35.0034ZM500.86 36.127C499.929 36.127 499.172 35.8223 498.588 35.2129C498.004 34.5993 497.712 33.7804 497.712 32.7563V32.5405C497.712 31.8592 497.841 31.252 498.099 30.7188C498.361 30.1813 498.725 29.7624 499.191 29.4619C499.661 29.1572 500.168 29.0049 500.714 29.0049C501.607 29.0049 502.301 29.299 502.796 29.8872C503.292 30.4754 503.539 31.3175 503.539 32.4136V32.9023H498.886C498.903 33.5794 499.1 34.1274 499.477 34.5464C499.857 34.9611 500.34 35.1685 500.924 35.1685C501.339 35.1685 501.69 35.0838 501.978 34.9146C502.265 34.7453 502.517 34.521 502.733 34.2417L503.45 34.8003C502.875 35.6847 502.011 36.127 500.86 36.127ZM500.714 29.9697C500.24 29.9697 499.843 30.1432 499.521 30.4902C499.199 30.833 499 31.3154 498.924 31.9375H502.365V31.8486C502.331 31.252 502.17 30.7907 501.882 30.4648C501.595 30.1348 501.205 29.9697 500.714 29.9697ZM507.659 35.1685C508.078 35.1685 508.444 35.0415 508.757 34.7876C509.07 34.5337 509.243 34.2163 509.277 33.8354H510.388C510.367 34.229 510.232 34.6035 509.982 34.959C509.732 35.3145 509.398 35.598 508.979 35.8096C508.564 36.0212 508.124 36.127 507.659 36.127C506.723 36.127 505.979 35.8159 505.424 35.1938C504.874 34.5675 504.599 33.7127 504.599 32.6294V32.4326C504.599 31.764 504.722 31.1694 504.967 30.6489C505.213 30.1284 505.564 29.7243 506.021 29.4365C506.482 29.1488 507.026 29.0049 507.652 29.0049C508.423 29.0049 509.062 29.2355 509.569 29.6968C510.081 30.158 510.354 30.7568 510.388 31.4932H509.277C509.243 31.0488 509.074 30.6849 508.77 30.4014C508.469 30.1136 508.097 29.9697 507.652 29.9697C507.056 29.9697 506.592 30.1855 506.262 30.6172C505.936 31.0446 505.773 31.6646 505.773 32.4771V32.6992C505.773 33.4906 505.936 34.0999 506.262 34.5273C506.588 34.9548 507.054 35.1685 507.659 35.1685ZM512.883 29.9634C513.403 29.3244 514.08 29.0049 514.914 29.0049C516.366 29.0049 517.098 29.8237 517.11 31.4614V36H515.936V31.4551C515.932 30.96 515.818 30.5939 515.593 30.3569C515.373 30.12 515.028 30.0015 514.559 30.0015C514.178 30.0015 513.843 30.103 513.556 30.3062C513.268 30.5093 513.044 30.7759 512.883 31.106V36H511.708V26.25H512.883V29.9634ZM521.719 36.127C520.788 36.127 520.03 35.8223 519.446 35.2129C518.862 34.5993 518.57 33.7804 518.57 32.7563V32.5405C518.57 31.8592 518.699 31.252 518.958 30.7188C519.22 30.1813 519.584 29.7624 520.049 29.4619C520.519 29.1572 521.027 29.0049 521.573 29.0049C522.466 29.0049 523.16 29.299 523.655 29.8872C524.15 30.4754 524.397 31.3175 524.397 32.4136V32.9023H519.745C519.762 33.5794 519.958 34.1274 520.335 34.5464C520.716 34.9611 521.198 35.1685 521.782 35.1685C522.197 35.1685 522.548 35.0838 522.836 34.9146C523.124 34.7453 523.375 34.521 523.591 34.2417L524.309 34.8003C523.733 35.6847 522.87 36.127 521.719 36.127ZM521.573 29.9697C521.099 29.9697 520.701 30.1432 520.379 30.4902C520.058 30.833 519.859 31.3154 519.783 31.9375H523.223V31.8486C523.189 31.252 523.028 30.7907 522.741 30.4648C522.453 30.1348 522.064 29.9697 521.573 29.9697Z" fill="black"/>
<path d="M139.395 36V26.7578H142.003C142.807 26.7578 143.518 26.9355 144.136 27.291C144.754 27.6465 145.23 28.1522 145.564 28.8081C145.903 29.464 146.074 30.2173 146.079 31.0679V31.6582C146.079 32.5299 145.909 33.2938 145.571 33.9497C145.236 34.6056 144.756 35.1092 144.13 35.4604C143.508 35.8117 142.782 35.9915 141.953 36H139.395ZM140.613 27.7607V35.0034H141.896C142.835 35.0034 143.565 34.7114 144.085 34.1274C144.61 33.5435 144.873 32.7119 144.873 31.6328V31.0933C144.873 30.0438 144.625 29.2292 144.13 28.6494C143.639 28.0654 142.941 27.7692 142.035 27.7607H140.613ZM151.982 35.3208C151.525 35.8582 150.854 36.127 149.97 36.127C149.238 36.127 148.679 35.9154 148.294 35.4922C147.913 35.0648 147.721 34.4342 147.716 33.6006V29.1318H148.891V33.5688C148.891 34.6099 149.314 35.1304 150.16 35.1304C151.057 35.1304 151.654 34.7961 151.95 34.1274V29.1318H153.125V36H152.007L151.982 35.3208ZM156.19 36H155.016V26.25H156.19V36ZM160.831 35.1685C161.25 35.1685 161.616 35.0415 161.929 34.7876C162.242 34.5337 162.415 34.2163 162.449 33.8354H163.56C163.539 34.229 163.403 34.6035 163.154 34.959C162.904 35.3145 162.57 35.598 162.151 35.8096C161.736 36.0212 161.296 36.127 160.831 36.127C159.895 36.127 159.151 35.8159 158.596 35.1938C158.046 34.5675 157.771 33.7127 157.771 32.6294V32.4326C157.771 31.764 157.894 31.1694 158.139 30.6489C158.385 30.1284 158.736 29.7243 159.193 29.4365C159.654 29.1488 160.198 29.0049 160.824 29.0049C161.594 29.0049 162.233 29.2355 162.741 29.6968C163.253 30.158 163.526 30.7568 163.56 31.4932H162.449C162.415 31.0488 162.246 30.6849 161.941 30.4014C161.641 30.1136 161.269 29.9697 160.824 29.9697C160.228 29.9697 159.764 30.1855 159.434 30.6172C159.108 31.0446 158.945 31.6646 158.945 32.4771V32.6992C158.945 33.4906 159.108 34.0999 159.434 34.5273C159.76 34.9548 160.225 35.1685 160.831 35.1685ZM167.73 36.127C166.799 36.127 166.042 35.8223 165.458 35.2129C164.874 34.5993 164.582 33.7804 164.582 32.7563V32.5405C164.582 31.8592 164.711 31.252 164.969 30.7188C165.232 30.1813 165.596 29.7624 166.061 29.4619C166.531 29.1572 167.039 29.0049 167.584 29.0049C168.477 29.0049 169.171 29.299 169.667 29.8872C170.162 30.4754 170.409 31.3175 170.409 32.4136V32.9023H165.756C165.773 33.5794 165.97 34.1274 166.347 34.5464C166.728 34.9611 167.21 35.1685 167.794 35.1685C168.209 35.1685 168.56 35.0838 168.848 34.9146C169.135 34.7453 169.387 34.521 169.603 34.2417L170.32 34.8003C169.745 35.6847 168.882 36.127 167.73 36.127ZM167.584 29.9697C167.111 29.9697 166.713 30.1432 166.391 30.4902C166.069 30.833 165.871 31.3154 165.794 31.9375H169.235V31.8486C169.201 31.252 169.04 30.7907 168.752 30.4648C168.465 30.1348 168.075 29.9697 167.584 29.9697ZM173.367 27.4688V29.1318H174.649V30.0396H173.367V34.2988C173.367 34.5739 173.424 34.7812 173.539 34.9209C173.653 35.0563 173.847 35.124 174.123 35.124C174.258 35.124 174.444 35.0986 174.681 35.0479V36C174.372 36.0846 174.072 36.127 173.78 36.127C173.255 36.127 172.859 35.9683 172.593 35.6509C172.326 35.3335 172.193 34.8828 172.193 34.2988V30.0396H170.942V29.1318H172.193V27.4688H173.367ZM177.62 27.4688V29.1318H178.902V30.0396H177.62V34.2988C177.62 34.5739 177.677 34.7812 177.792 34.9209C177.906 35.0563 178.1 35.124 178.375 35.124C178.511 35.124 178.697 35.0986 178.934 35.0479V36C178.625 36.0846 178.325 36.127 178.033 36.127C177.508 36.127 177.112 35.9683 176.846 35.6509C176.579 35.3335 176.446 34.8828 176.446 34.2988V30.0396H175.195V29.1318H176.446V27.4688H177.62ZM179.842 32.5024C179.842 31.8296 179.973 31.2244 180.235 30.687C180.502 30.1496 180.87 29.7349 181.34 29.4429C181.814 29.1509 182.353 29.0049 182.958 29.0049C183.894 29.0049 184.649 29.3286 185.225 29.9761C185.804 30.6235 186.094 31.4847 186.094 32.5596V32.6421C186.094 33.3107 185.965 33.9116 185.707 34.4448C185.453 34.9738 185.087 35.3864 184.609 35.6826C184.135 35.9788 183.589 36.127 182.971 36.127C182.04 36.127 181.285 35.8032 180.705 35.1558C180.13 34.5083 179.842 33.6514 179.842 32.585V32.5024ZM181.022 32.6421C181.022 33.4038 181.198 34.0153 181.549 34.4766C181.905 34.9378 182.379 35.1685 182.971 35.1685C183.568 35.1685 184.042 34.9357 184.393 34.4702C184.744 34.0005 184.92 33.3446 184.92 32.5024C184.92 31.7492 184.74 31.1398 184.38 30.6743C184.025 30.2046 183.551 29.9697 182.958 29.9697C182.379 29.9697 181.911 30.2004 181.556 30.6616C181.2 31.1229 181.022 31.783 181.022 32.6421Z" fill="black"/>
<path d="M374.271 33.5879H370.399L369.529 36H368.272L371.802 26.7578H372.868L376.404 36H375.153L374.271 33.5879ZM370.767 32.585H373.909L372.335 28.2622L370.767 32.585ZM378.568 29.1318L378.6 29.8936C379.104 29.3011 379.783 29.0049 380.638 29.0049C381.598 29.0049 382.252 29.373 382.599 30.1094C382.828 29.7793 383.124 29.5127 383.488 29.3096C383.856 29.1064 384.29 29.0049 384.789 29.0049C386.296 29.0049 387.062 29.8026 387.087 31.3979V36H385.913V31.4678C385.913 30.9769 385.8 30.6108 385.576 30.3696C385.352 30.1242 384.975 30.0015 384.446 30.0015C384.01 30.0015 383.649 30.1326 383.361 30.395C383.073 30.6532 382.906 31.0023 382.859 31.4424V36H381.679V31.4995C381.679 30.5008 381.19 30.0015 380.212 30.0015C379.442 30.0015 378.915 30.3294 378.632 30.9854V36H377.458V29.1318H378.568ZM394.679 32.6421C394.679 33.6916 394.438 34.5358 393.955 35.1748C393.473 35.8096 392.825 36.127 392.013 36.127C391.145 36.127 390.474 35.8201 390 35.2065L389.943 36H388.864V26.25H390.039V29.8872C390.513 29.299 391.166 29.0049 392 29.0049C392.834 29.0049 393.487 29.3201 393.961 29.9507C394.44 30.5812 394.679 31.4445 394.679 32.5405V32.6421ZM393.504 32.5088C393.504 31.709 393.35 31.0911 393.041 30.6553C392.732 30.2194 392.288 30.0015 391.708 30.0015C390.934 30.0015 390.377 30.3612 390.039 31.0806V34.0513C390.398 34.7707 390.959 35.1304 391.721 35.1304C392.284 35.1304 392.722 34.9124 393.035 34.4766C393.348 34.0407 393.504 33.3848 393.504 32.5088ZM399.014 36.127C398.083 36.127 397.326 35.8223 396.742 35.2129C396.158 34.5993 395.866 33.7804 395.866 32.7563V32.5405C395.866 31.8592 395.995 31.252 396.253 30.7188C396.515 30.1813 396.879 29.7624 397.345 29.4619C397.814 29.1572 398.322 29.0049 398.868 29.0049C399.761 29.0049 400.455 29.299 400.95 29.8872C401.445 30.4754 401.693 31.3175 401.693 32.4136V32.9023H397.04C397.057 33.5794 397.254 34.1274 397.63 34.5464C398.011 34.9611 398.494 35.1685 399.078 35.1685C399.492 35.1685 399.844 35.0838 400.131 34.9146C400.419 34.7453 400.671 34.521 400.887 34.2417L401.604 34.8003C401.028 35.6847 400.165 36.127 399.014 36.127ZM398.868 29.9697C398.394 29.9697 397.996 30.1432 397.675 30.4902C397.353 30.833 397.154 31.3154 397.078 31.9375H400.519V31.8486C400.485 31.252 400.324 30.7907 400.036 30.4648C399.748 30.1348 399.359 29.9697 398.868 29.9697ZM404.333 36H403.159V26.25H404.333V36ZM407.495 36H406.32V26.25H407.495V36ZM409.069 32.5024C409.069 31.8296 409.2 31.2244 409.462 30.687C409.729 30.1496 410.097 29.7349 410.567 29.4429C411.041 29.1509 411.58 29.0049 412.186 29.0049C413.121 29.0049 413.876 29.3286 414.452 29.9761C415.031 30.6235 415.321 31.4847 415.321 32.5596V32.6421C415.321 33.3107 415.192 33.9116 414.934 34.4448C414.68 34.9738 414.314 35.3864 413.836 35.6826C413.362 35.9788 412.816 36.127 412.198 36.127C411.267 36.127 410.512 35.8032 409.932 35.1558C409.357 34.5083 409.069 33.6514 409.069 32.585V32.5024ZM410.25 32.6421C410.25 33.4038 410.425 34.0153 410.776 34.4766C411.132 34.9378 411.606 35.1685 412.198 35.1685C412.795 35.1685 413.269 34.9357 413.62 34.4702C413.971 34.0005 414.147 33.3446 414.147 32.5024C414.147 31.7492 413.967 31.1398 413.607 30.6743C413.252 30.2046 412.778 29.9697 412.186 29.9697C411.606 29.9697 411.138 30.2004 410.783 30.6616C410.427 31.1229 410.25 31.783 410.25 32.6421Z" fill="black"/>
<path d="M490.256 114H489.031L484.378 106.878V114H483.153V104.758H484.378L489.044 111.912V104.758H490.256V114ZM491.926 110.502C491.926 109.83 492.057 109.224 492.319 108.687C492.586 108.15 492.954 107.735 493.424 107.443C493.898 107.151 494.437 107.005 495.042 107.005C495.978 107.005 496.733 107.329 497.309 107.976C497.888 108.624 498.178 109.485 498.178 110.56V110.642C498.178 111.311 498.049 111.912 497.791 112.445C497.537 112.974 497.171 113.386 496.693 113.683C496.219 113.979 495.673 114.127 495.055 114.127C494.124 114.127 493.369 113.803 492.789 113.156C492.214 112.508 491.926 111.651 491.926 110.585V110.502ZM493.106 110.642C493.106 111.404 493.282 112.015 493.633 112.477C493.989 112.938 494.463 113.168 495.055 113.168C495.652 113.168 496.126 112.936 496.477 112.47C496.828 112 497.004 111.345 497.004 110.502C497.004 109.749 496.824 109.14 496.464 108.674C496.109 108.205 495.635 107.97 495.042 107.97C494.463 107.97 493.995 108.2 493.64 108.662C493.284 109.123 493.106 109.783 493.106 110.642ZM500.927 114H499.752V107.132H500.927V114ZM499.657 105.31C499.657 105.12 499.714 104.959 499.829 104.828C499.947 104.696 500.121 104.631 500.349 104.631C500.578 104.631 500.751 104.696 500.87 104.828C500.988 104.959 501.047 105.12 501.047 105.31C501.047 105.5 500.988 105.659 500.87 105.786C500.751 105.913 500.578 105.977 500.349 105.977C500.121 105.977 499.947 105.913 499.829 105.786C499.714 105.659 499.657 105.5 499.657 105.31ZM506.811 112.178C506.811 111.861 506.69 111.615 506.449 111.442C506.212 111.264 505.795 111.112 505.199 110.985C504.606 110.858 504.134 110.706 503.783 110.528C503.436 110.35 503.178 110.139 503.009 109.893C502.844 109.648 502.761 109.356 502.761 109.017C502.761 108.454 502.998 107.978 503.472 107.589C503.95 107.2 504.56 107.005 505.3 107.005C506.079 107.005 506.709 107.206 507.192 107.608C507.679 108.01 507.922 108.524 507.922 109.15H506.741C506.741 108.829 506.604 108.552 506.329 108.319C506.058 108.086 505.715 107.97 505.3 107.97C504.873 107.97 504.539 108.063 504.297 108.249C504.056 108.435 503.936 108.679 503.936 108.979C503.936 109.263 504.048 109.476 504.272 109.62C504.496 109.764 504.9 109.902 505.484 110.033C506.073 110.164 506.549 110.32 506.913 110.502C507.277 110.684 507.545 110.904 507.719 111.163C507.896 111.417 507.985 111.728 507.985 112.096C507.985 112.709 507.74 113.202 507.249 113.575C506.758 113.943 506.121 114.127 505.338 114.127C504.788 114.127 504.302 114.03 503.878 113.835C503.455 113.64 503.123 113.369 502.882 113.022C502.645 112.671 502.526 112.292 502.526 111.886H503.701C503.722 112.28 503.878 112.593 504.17 112.826C504.467 113.054 504.856 113.168 505.338 113.168C505.783 113.168 506.138 113.08 506.405 112.902C506.676 112.72 506.811 112.479 506.811 112.178ZM512.365 114.127C511.434 114.127 510.677 113.822 510.093 113.213C509.509 112.599 509.217 111.78 509.217 110.756V110.541C509.217 109.859 509.346 109.252 509.604 108.719C509.866 108.181 510.23 107.762 510.696 107.462C511.166 107.157 511.673 107.005 512.219 107.005C513.112 107.005 513.806 107.299 514.301 107.887C514.796 108.475 515.044 109.318 515.044 110.414V110.902H510.391C510.408 111.579 510.605 112.127 510.981 112.546C511.362 112.961 511.845 113.168 512.429 113.168C512.843 113.168 513.195 113.084 513.482 112.915C513.77 112.745 514.022 112.521 514.238 112.242L514.955 112.8C514.38 113.685 513.516 114.127 512.365 114.127ZM512.219 107.97C511.745 107.97 511.347 108.143 511.026 108.49C510.704 108.833 510.505 109.315 510.429 109.938H513.87V109.849C513.836 109.252 513.675 108.791 513.387 108.465C513.099 108.135 512.71 107.97 512.219 107.97ZM518.002 105.469V107.132H519.284V108.04H518.002V112.299C518.002 112.574 518.059 112.781 518.173 112.921C518.288 113.056 518.482 113.124 518.757 113.124C518.893 113.124 519.079 113.099 519.316 113.048V114C519.007 114.085 518.707 114.127 518.415 114.127C517.89 114.127 517.494 113.968 517.228 113.651C516.961 113.333 516.828 112.883 516.828 112.299V108.04H515.577V107.132H516.828V105.469H518.002ZM522.255 105.469V107.132H523.537V108.04H522.255V112.299C522.255 112.574 522.312 112.781 522.426 112.921C522.541 113.056 522.735 113.124 523.01 113.124C523.146 113.124 523.332 113.099 523.569 113.048V114C523.26 114.085 522.959 114.127 522.667 114.127C522.143 114.127 521.747 113.968 521.48 113.651C521.214 113.333 521.081 112.883 521.081 112.299V108.04H519.83V107.132H521.081V105.469H522.255ZM527.765 114.127C526.834 114.127 526.076 113.822 525.492 113.213C524.908 112.599 524.616 111.78 524.616 110.756V110.541C524.616 109.859 524.745 109.252 525.003 108.719C525.266 108.181 525.63 107.762 526.095 107.462C526.565 107.157 527.073 107.005 527.619 107.005C528.512 107.005 529.206 107.299 529.701 107.887C530.196 108.475 530.443 109.318 530.443 110.414V110.902H525.791C525.807 111.579 526.004 112.127 526.381 112.546C526.762 112.961 527.244 113.168 527.828 113.168C528.243 113.168 528.594 113.084 528.882 112.915C529.17 112.745 529.421 112.521 529.637 112.242L530.354 112.8C529.779 113.685 528.916 114.127 527.765 114.127ZM527.619 107.97C527.145 107.97 526.747 108.143 526.425 108.49C526.104 108.833 525.905 109.315 525.829 109.938H529.269V109.849C529.235 109.252 529.074 108.791 528.787 108.465C528.499 108.135 528.11 107.97 527.619 107.97Z" fill="black"/>
</svg>
