<svg width="226" height="392" viewBox="0 0 226 392" fill="none" xmlns="http://www.w3.org/2000/svg">
<rect class="salon" id="Expresso" y="82" width="96.0099" height="63.858" fill="#D3D36E"/>
<path d="M27.7319 113.728H23.7266V117.003H28.3794V118H22.5078V108.758H28.3159V109.761H23.7266V112.731H27.7319V113.728ZM32.0166 113.639L33.54 111.132H34.9111L32.6641 114.528L34.981 118H33.6226L32.0356 115.429L30.4487 118H29.084L31.4009 114.528L29.1538 111.132H30.5122L32.0166 113.639ZM41.9634 114.642C41.9634 115.687 41.7243 116.529 41.2461 117.168C40.7679 117.807 40.1204 118.127 39.3037 118.127C38.4701 118.127 37.8141 117.862 37.3359 117.333V120.641H36.1616V111.132H37.2344L37.2915 111.894C37.7697 111.301 38.4341 111.005 39.2847 111.005C40.1099 111.005 40.7616 111.316 41.2397 111.938C41.7222 112.56 41.9634 113.425 41.9634 114.534V114.642ZM40.7891 114.509C40.7891 113.734 40.624 113.123 40.2939 112.674C39.9639 112.226 39.5111 112.001 38.9355 112.001C38.2246 112.001 37.6914 112.317 37.3359 112.947V116.229C37.6872 116.855 38.2246 117.168 38.9482 117.168C39.5111 117.168 39.9575 116.946 40.2876 116.502C40.6219 116.053 40.7891 115.389 40.7891 114.509ZM46.7812 112.186C46.6035 112.156 46.411 112.141 46.2036 112.141C45.4334 112.141 44.9108 112.469 44.6357 113.125V118H43.4614V111.132H44.604L44.623 111.925C45.0081 111.312 45.554 111.005 46.2607 111.005C46.4893 111.005 46.6628 111.035 46.7812 111.094V112.186ZM50.5898 118.127C49.6589 118.127 48.9014 117.822 48.3174 117.213C47.7334 116.599 47.4414 115.78 47.4414 114.756V114.541C47.4414 113.859 47.5705 113.252 47.8286 112.719C48.091 112.181 48.4549 111.762 48.9204 111.462C49.3901 111.157 49.8979 111.005 50.4438 111.005C51.3368 111.005 52.0308 111.299 52.5259 111.887C53.021 112.475 53.2686 113.318 53.2686 114.414V114.902H48.6157C48.6326 115.579 48.8294 116.127 49.2061 116.546C49.5869 116.961 50.0693 117.168 50.6533 117.168C51.068 117.168 51.4193 117.084 51.707 116.915C51.9948 116.745 52.2466 116.521 52.4624 116.242L53.1797 116.8C52.6042 117.685 51.7409 118.127 50.5898 118.127ZM50.4438 111.97C49.9699 111.97 49.5721 112.143 49.2505 112.49C48.9289 112.833 48.73 113.315 48.6538 113.938H52.0942V113.849C52.0604 113.252 51.8996 112.791 51.6118 112.465C51.3241 112.135 50.9347 111.97 50.4438 111.97ZM58.6323 116.178C58.6323 115.861 58.5117 115.615 58.2705 115.442C58.0335 115.264 57.6167 115.112 57.02 114.985C56.4276 114.858 55.9557 114.706 55.6045 114.528C55.2575 114.35 54.9993 114.139 54.8301 113.893C54.665 113.648 54.5825 113.356 54.5825 113.017C54.5825 112.454 54.8195 111.978 55.2935 111.589C55.7716 111.2 56.381 111.005 57.1216 111.005C57.9002 111.005 58.5308 111.206 59.0132 111.608C59.4998 112.01 59.7432 112.524 59.7432 113.15H58.5625C58.5625 112.829 58.425 112.552 58.1499 112.319C57.8791 112.086 57.5363 111.97 57.1216 111.97C56.6942 111.97 56.3599 112.063 56.1187 112.249C55.8774 112.435 55.7568 112.679 55.7568 112.979C55.7568 113.263 55.869 113.476 56.0933 113.62C56.3175 113.764 56.7217 113.902 57.3057 114.033C57.8939 114.164 58.37 114.32 58.7339 114.502C59.0978 114.684 59.3665 114.904 59.54 115.163C59.7178 115.417 59.8066 115.728 59.8066 116.096C59.8066 116.709 59.5612 117.202 59.0703 117.575C58.5794 117.943 57.9425 118.127 57.1597 118.127C56.6095 118.127 56.1229 118.03 55.6997 117.835C55.2765 117.64 54.9443 117.369 54.7031 117.022C54.4661 116.671 54.3477 116.292 54.3477 115.886H55.522C55.5431 116.28 55.6997 116.593 55.9917 116.826C56.2879 117.054 56.6772 117.168 57.1597 117.168C57.604 117.168 57.9595 117.08 58.2261 116.902C58.4969 116.72 58.6323 116.479 58.6323 116.178ZM65.3354 116.178C65.3354 115.861 65.2148 115.615 64.9736 115.442C64.7367 115.264 64.3198 115.112 63.7231 114.985C63.1307 114.858 62.6589 114.706 62.3076 114.528C61.9606 114.35 61.7025 114.139 61.5332 113.893C61.3682 113.648 61.2856 113.356 61.2856 113.017C61.2856 112.454 61.5226 111.978 61.9966 111.589C62.4748 111.2 63.0841 111.005 63.8247 111.005C64.6034 111.005 65.2339 111.206 65.7163 111.608C66.203 112.01 66.4463 112.524 66.4463 113.15H65.2656C65.2656 112.829 65.1281 112.552 64.853 112.319C64.5822 112.086 64.2394 111.97 63.8247 111.97C63.3973 111.97 63.063 112.063 62.8218 112.249C62.5806 112.435 62.46 112.679 62.46 112.979C62.46 113.263 62.5721 113.476 62.7964 113.62C63.0207 113.764 63.4248 113.902 64.0088 114.033C64.597 114.164 65.0731 114.32 65.437 114.502C65.8009 114.684 66.0697 114.904 66.2432 115.163C66.4209 115.417 66.5098 115.728 66.5098 116.096C66.5098 116.709 66.2643 117.202 65.7734 117.575C65.2826 117.943 64.6457 118.127 63.8628 118.127C63.3127 118.127 62.826 118.03 62.4028 117.835C61.9797 117.64 61.6475 117.369 61.4062 117.022C61.1693 116.671 61.0508 116.292 61.0508 115.886H62.2251C62.2463 116.28 62.4028 116.593 62.6948 116.826C62.991 117.054 63.3804 117.168 63.8628 117.168C64.3071 117.168 64.6626 117.08 64.9292 116.902C65.2 116.72 65.3354 116.479 65.3354 116.178ZM67.7285 114.502C67.7285 113.83 67.8597 113.224 68.1221 112.687C68.3887 112.15 68.7568 111.735 69.2266 111.443C69.7005 111.151 70.2401 111.005 70.8452 111.005C71.7804 111.005 72.5358 111.329 73.1113 111.976C73.6911 112.624 73.981 113.485 73.981 114.56V114.642C73.981 115.311 73.8519 115.912 73.5938 116.445C73.3398 116.974 72.9738 117.386 72.4956 117.683C72.0216 117.979 71.4757 118.127 70.8579 118.127C69.9269 118.127 69.1715 117.803 68.5918 117.156C68.0163 116.508 67.7285 115.651 67.7285 114.585V114.502ZM68.9092 114.642C68.9092 115.404 69.0848 116.015 69.436 116.477C69.7915 116.938 70.2655 117.168 70.8579 117.168C71.4546 117.168 71.9285 116.936 72.2798 116.47C72.631 116 72.8066 115.345 72.8066 114.502C72.8066 113.749 72.6268 113.14 72.2671 112.674C71.9116 112.205 71.4377 111.97 70.8452 111.97C70.2655 111.97 69.7979 112.2 69.4424 112.662C69.0869 113.123 68.9092 113.783 68.9092 114.642Z" fill="black"/>
<rect class="salon" id="Cappuccino" width="96.0099" height="63.858" fill="#D3D36E"/>
<path d="M22.0366 34.0674C21.9224 35.0449 21.5605 35.8003 20.9512 36.3335C20.346 36.8625 19.5399 37.127 18.5327 37.127C17.4409 37.127 16.5649 36.7355 15.9048 35.9526C15.2489 35.1698 14.9209 34.1224 14.9209 32.8105V31.9219C14.9209 31.0628 15.0732 30.3075 15.3779 29.6558C15.6868 29.0041 16.1227 28.5047 16.6855 28.1577C17.2484 27.8065 17.9001 27.6309 18.6406 27.6309C19.6224 27.6309 20.4095 27.9059 21.002 28.4561C21.5944 29.002 21.9393 29.7594 22.0366 30.7285H20.8115C20.7057 29.9922 20.4751 29.459 20.1196 29.1289C19.7684 28.7988 19.2754 28.6338 18.6406 28.6338C17.862 28.6338 17.2505 28.9215 16.8062 29.4971C16.366 30.0726 16.146 30.8914 16.146 31.9536V32.8486C16.146 33.8516 16.3555 34.6493 16.7744 35.2417C17.1934 35.8341 17.7795 36.1304 18.5327 36.1304C19.2098 36.1304 19.7282 35.978 20.0879 35.6733C20.4518 35.3644 20.693 34.8291 20.8115 34.0674H22.0366ZM27.7622 37C27.6945 36.8646 27.6395 36.6234 27.5972 36.2764C27.0513 36.8434 26.3996 37.127 25.6421 37.127C24.965 37.127 24.4085 36.9365 23.9727 36.5557C23.541 36.1706 23.3252 35.6839 23.3252 35.0957C23.3252 34.3805 23.596 33.8262 24.1377 33.4326C24.6836 33.0348 25.4495 32.8359 26.4355 32.8359H27.5781V32.2964C27.5781 31.8859 27.4554 31.5601 27.21 31.3188C26.9645 31.0734 26.6027 30.9507 26.1245 30.9507C25.7056 30.9507 25.3543 31.0565 25.0708 31.2681C24.7873 31.4797 24.6455 31.7357 24.6455 32.0361H23.4648C23.4648 31.6934 23.5854 31.3633 23.8267 31.0459C24.0721 30.7243 24.4022 30.4704 24.8169 30.2842C25.2358 30.098 25.695 30.0049 26.1943 30.0049C26.9857 30.0049 27.6056 30.2038 28.0542 30.6016C28.5028 30.9951 28.7355 31.5389 28.7524 32.2329V35.394C28.7524 36.0246 28.8328 36.526 28.9937 36.8984V37H27.7622ZM25.8135 36.105C26.1816 36.105 26.5308 36.0098 26.8608 35.8193C27.1909 35.6289 27.43 35.3813 27.5781 35.0767V33.6675H26.6577C25.2189 33.6675 24.4995 34.0885 24.4995 34.9307C24.4995 35.2988 24.6222 35.5866 24.8677 35.7939C25.1131 36.0013 25.4284 36.105 25.8135 36.105ZM36.395 33.6421C36.395 34.6873 36.1559 35.5295 35.6777 36.1685C35.1995 36.8075 34.5521 37.127 33.7354 37.127C32.9017 37.127 32.2458 36.8625 31.7676 36.3335V39.6406H30.5933V30.1318H31.666L31.7231 30.8936C32.2013 30.3011 32.8657 30.0049 33.7163 30.0049C34.5415 30.0049 35.1932 30.3159 35.6714 30.938C36.1538 31.5601 36.395 32.4255 36.395 33.5342V33.6421ZM35.2207 33.5088C35.2207 32.7344 35.0557 32.1229 34.7256 31.6743C34.3955 31.2257 33.9427 31.0015 33.3672 31.0015C32.6562 31.0015 32.123 31.3167 31.7676 31.9473V35.229C32.1188 35.8553 32.6562 36.1685 33.3799 36.1685C33.9427 36.1685 34.3892 35.9463 34.7192 35.502C35.0535 35.0534 35.2207 34.389 35.2207 33.5088ZM43.6948 33.6421C43.6948 34.6873 43.4557 35.5295 42.9775 36.1685C42.4993 36.8075 41.8519 37.127 41.0352 37.127C40.2015 37.127 39.5456 36.8625 39.0674 36.3335V39.6406H37.8931V30.1318H38.9658L39.0229 30.8936C39.5011 30.3011 40.1655 30.0049 41.0161 30.0049C41.8413 30.0049 42.493 30.3159 42.9712 30.938C43.4536 31.5601 43.6948 32.4255 43.6948 33.5342V33.6421ZM42.5205 33.5088C42.5205 32.7344 42.3555 32.1229 42.0254 31.6743C41.6953 31.2257 41.2425 31.0015 40.667 31.0015C39.9561 31.0015 39.4229 31.3167 39.0674 31.9473V35.229C39.4186 35.8553 39.9561 36.1685 40.6797 36.1685C41.2425 36.1685 41.689 35.9463 42.019 35.502C42.3534 35.0534 42.5205 34.389 42.5205 33.5088ZM49.4331 36.3208C48.9761 36.8582 48.3053 37.127 47.4209 37.127C46.6888 37.127 46.1302 36.9154 45.7451 36.4922C45.3643 36.0648 45.1717 35.4342 45.1675 34.6006V30.1318H46.3418V34.5688C46.3418 35.6099 46.765 36.1304 47.6113 36.1304C48.5085 36.1304 49.1051 35.7961 49.4014 35.1274V30.1318H50.5757V37H49.4585L49.4331 36.3208ZM55.1206 36.1685C55.5396 36.1685 55.9056 36.0415 56.2188 35.7876C56.5319 35.5337 56.7054 35.2163 56.7393 34.8354H57.8501C57.8289 35.229 57.6935 35.6035 57.4438 35.959C57.1942 36.3145 56.8599 36.598 56.4409 36.8096C56.0262 37.0212 55.5861 37.127 55.1206 37.127C54.1854 37.127 53.4406 36.8159 52.8862 36.1938C52.3361 35.5675 52.061 34.7127 52.061 33.6294V33.4326C52.061 32.764 52.1838 32.1694 52.4292 31.6489C52.6746 31.1284 53.0259 30.7243 53.4829 30.4365C53.9442 30.1488 54.488 30.0049 55.1143 30.0049C55.8844 30.0049 56.5234 30.2355 57.0312 30.6968C57.5433 31.158 57.8162 31.7568 57.8501 32.4932H56.7393C56.7054 32.0488 56.5361 31.6849 56.2314 31.4014C55.931 31.1136 55.5586 30.9697 55.1143 30.9697C54.5176 30.9697 54.0542 31.1855 53.7241 31.6172C53.3983 32.0446 53.2354 32.6646 53.2354 33.4771V33.6992C53.2354 34.4906 53.3983 35.0999 53.7241 35.5273C54.05 35.9548 54.5155 36.1685 55.1206 36.1685ZM61.9253 36.1685C62.3442 36.1685 62.7103 36.0415 63.0234 35.7876C63.3366 35.5337 63.5101 35.2163 63.5439 34.8354H64.6548C64.6336 35.229 64.4982 35.6035 64.2485 35.959C63.9989 36.3145 63.6646 36.598 63.2456 36.8096C62.8309 37.0212 62.3908 37.127 61.9253 37.127C60.9901 37.127 60.2453 36.8159 59.6909 36.1938C59.1408 35.5675 58.8657 34.7127 58.8657 33.6294V33.4326C58.8657 32.764 58.9884 32.1694 59.2339 31.6489C59.4793 31.1284 59.8306 30.7243 60.2876 30.4365C60.7489 30.1488 61.2926 30.0049 61.9189 30.0049C62.6891 30.0049 63.3281 30.2355 63.8359 30.6968C64.348 31.158 64.6209 31.7568 64.6548 32.4932H63.5439C63.5101 32.0488 63.3408 31.6849 63.0361 31.4014C62.7357 31.1136 62.3633 30.9697 61.9189 30.9697C61.3223 30.9697 60.8589 31.1855 60.5288 31.6172C60.203 32.0446 60.04 32.6646 60.04 33.4771V33.6992C60.04 34.4906 60.203 35.0999 60.5288 35.5273C60.8547 35.9548 61.3201 36.1685 61.9253 36.1685ZM67.251 37H66.0767V30.1318H67.251V37ZM65.9814 28.3101C65.9814 28.1196 66.0386 27.9588 66.1528 27.8276C66.2713 27.6965 66.4448 27.6309 66.6733 27.6309C66.9019 27.6309 67.0754 27.6965 67.1938 27.8276C67.3123 27.9588 67.3716 28.1196 67.3716 28.3101C67.3716 28.5005 67.3123 28.6592 67.1938 28.7861C67.0754 28.9131 66.9019 28.9766 66.6733 28.9766C66.4448 28.9766 66.2713 28.9131 66.1528 28.7861C66.0386 28.6592 65.9814 28.5005 65.9814 28.3101ZM70.2471 30.1318L70.2852 30.9951C70.8099 30.335 71.4954 30.0049 72.3418 30.0049C73.7933 30.0049 74.5254 30.8237 74.5381 32.4614V37H73.3638V32.4551C73.3595 31.96 73.2453 31.5939 73.021 31.3569C72.8009 31.12 72.4561 31.0015 71.9863 31.0015C71.6055 31.0015 71.2712 31.103 70.9834 31.3062C70.6956 31.5093 70.4714 31.7759 70.3105 32.106V37H69.1362V30.1318H70.2471ZM75.998 33.5024C75.998 32.8296 76.1292 32.2244 76.3916 31.687C76.6582 31.1496 77.0264 30.7349 77.4961 30.4429C77.9701 30.1509 78.5096 30.0049 79.1147 30.0049C80.05 30.0049 80.8053 30.3286 81.3809 30.9761C81.9606 31.6235 82.2505 32.4847 82.2505 33.5596V33.6421C82.2505 34.3107 82.1214 34.9116 81.8633 35.4448C81.6094 35.9738 81.2433 36.3864 80.7651 36.6826C80.2912 36.9788 79.7453 37.127 79.1274 37.127C78.1965 37.127 77.4411 36.8032 76.8613 36.1558C76.2858 35.5083 75.998 34.6514 75.998 33.585V33.5024ZM77.1787 33.6421C77.1787 34.4038 77.3543 35.0153 77.7056 35.4766C78.061 35.9378 78.535 36.1685 79.1274 36.1685C79.7241 36.1685 80.1981 35.9357 80.5493 35.4702C80.9006 35.0005 81.0762 34.3446 81.0762 33.5024C81.0762 32.7492 80.8963 32.1398 80.5366 31.6743C80.1812 31.2046 79.7072 30.9697 79.1147 30.9697C78.535 30.9697 78.0674 31.2004 77.7119 31.6616C77.3564 32.1229 77.1787 32.783 77.1787 33.6421Z" fill="black"/>
<rect class="salon" id="Macchiato" y="164" width="96.0099" height="63.858" fill="#D3D36E"/>
<path d="M20.6655 190.758L23.687 198.299L26.7085 190.758H28.2891V200H27.0703V196.401L27.1846 192.516L24.1504 200H23.2173L20.1895 192.535L20.3101 196.401V200H19.0913V190.758H20.6655ZM34.4971 200C34.4294 199.865 34.3743 199.623 34.332 199.276C33.7861 199.843 33.1344 200.127 32.377 200.127C31.6999 200.127 31.1434 199.937 30.7075 199.556C30.2759 199.171 30.0601 198.684 30.0601 198.096C30.0601 197.381 30.3309 196.826 30.8726 196.433C31.4185 196.035 32.1844 195.836 33.1704 195.836H34.313V195.296C34.313 194.886 34.1903 194.56 33.9448 194.319C33.6994 194.073 33.3376 193.951 32.8594 193.951C32.4404 193.951 32.0892 194.056 31.8057 194.268C31.5221 194.48 31.3804 194.736 31.3804 195.036H30.1997C30.1997 194.693 30.3203 194.363 30.5615 194.046C30.807 193.724 31.137 193.47 31.5518 193.284C31.9707 193.098 32.4299 193.005 32.9292 193.005C33.7205 193.005 34.3405 193.204 34.7891 193.602C35.2376 193.995 35.4704 194.539 35.4873 195.233V198.394C35.4873 199.025 35.5677 199.526 35.7285 199.898V200H34.4971ZM32.5483 199.105C32.9165 199.105 33.2656 199.01 33.5957 198.819C33.9258 198.629 34.1649 198.381 34.313 198.077V196.667H33.3926C31.9538 196.667 31.2344 197.089 31.2344 197.931C31.2344 198.299 31.3571 198.587 31.6025 198.794C31.848 199.001 32.1632 199.105 32.5483 199.105ZM40.083 199.168C40.502 199.168 40.868 199.042 41.1812 198.788C41.4943 198.534 41.6678 198.216 41.7017 197.835H42.8125C42.7913 198.229 42.6559 198.604 42.4062 198.959C42.1566 199.314 41.8223 199.598 41.4033 199.81C40.9886 200.021 40.5485 200.127 40.083 200.127C39.1478 200.127 38.403 199.816 37.8486 199.194C37.2985 198.568 37.0234 197.713 37.0234 196.629V196.433C37.0234 195.764 37.1462 195.169 37.3916 194.649C37.637 194.128 37.9883 193.724 38.4453 193.437C38.9066 193.149 39.4504 193.005 40.0767 193.005C40.8468 193.005 41.4858 193.236 41.9937 193.697C42.5057 194.158 42.7786 194.757 42.8125 195.493H41.7017C41.6678 195.049 41.4985 194.685 41.1938 194.401C40.8934 194.114 40.521 193.97 40.0767 193.97C39.48 193.97 39.0166 194.186 38.6865 194.617C38.3607 195.045 38.1978 195.665 38.1978 196.477V196.699C38.1978 197.491 38.3607 198.1 38.6865 198.527C39.0124 198.955 39.4779 199.168 40.083 199.168ZM46.8877 199.168C47.3066 199.168 47.6727 199.042 47.9858 198.788C48.299 198.534 48.4725 198.216 48.5063 197.835H49.6172C49.596 198.229 49.4606 198.604 49.2109 198.959C48.9613 199.314 48.627 199.598 48.208 199.81C47.7933 200.021 47.3532 200.127 46.8877 200.127C45.9525 200.127 45.2077 199.816 44.6533 199.194C44.1032 198.568 43.8281 197.713 43.8281 196.629V196.433C43.8281 195.764 43.9508 195.169 44.1963 194.649C44.4417 194.128 44.793 193.724 45.25 193.437C45.7113 193.149 46.255 193.005 46.8813 193.005C47.6515 193.005 48.2905 193.236 48.7983 193.697C49.3104 194.158 49.5833 194.757 49.6172 195.493H48.5063C48.4725 195.049 48.3032 194.685 47.9985 194.401C47.6981 194.114 47.3257 193.97 46.8813 193.97C46.2847 193.97 45.8213 194.186 45.4912 194.617C45.1654 195.045 45.0024 195.665 45.0024 196.477V196.699C45.0024 197.491 45.1654 198.1 45.4912 198.527C45.8171 198.955 46.2826 199.168 46.8877 199.168ZM52.1118 193.963C52.6323 193.324 53.3094 193.005 54.1431 193.005C55.5946 193.005 56.3267 193.824 56.3394 195.461V200H55.165V195.455C55.1608 194.96 55.0465 194.594 54.8223 194.357C54.6022 194.12 54.2573 194.001 53.7876 194.001C53.4067 194.001 53.0724 194.103 52.7847 194.306C52.4969 194.509 52.2726 194.776 52.1118 195.106V200H50.9375V190.25H52.1118V193.963ZM59.3735 200H58.1992V193.132H59.3735V200ZM58.104 191.31C58.104 191.12 58.1611 190.959 58.2754 190.828C58.3939 190.696 58.5674 190.631 58.7959 190.631C59.0244 190.631 59.1979 190.696 59.3164 190.828C59.4349 190.959 59.4941 191.12 59.4941 191.31C59.4941 191.5 59.4349 191.659 59.3164 191.786C59.1979 191.913 59.0244 191.977 58.7959 191.977C58.5674 191.977 58.3939 191.913 58.2754 191.786C58.1611 191.659 58.104 191.5 58.104 191.31ZM65.499 200C65.4313 199.865 65.3763 199.623 65.334 199.276C64.7881 199.843 64.1364 200.127 63.3789 200.127C62.7018 200.127 62.1453 199.937 61.7095 199.556C61.2778 199.171 61.062 198.684 61.062 198.096C61.062 197.381 61.3328 196.826 61.8745 196.433C62.4204 196.035 63.1864 195.836 64.1724 195.836H65.3149V195.296C65.3149 194.886 65.1922 194.56 64.9468 194.319C64.7013 194.073 64.3395 193.951 63.8613 193.951C63.4424 193.951 63.0911 194.056 62.8076 194.268C62.5241 194.48 62.3823 194.736 62.3823 195.036H61.2017C61.2017 194.693 61.3223 194.363 61.5635 194.046C61.8089 193.724 62.139 193.47 62.5537 193.284C62.9727 193.098 63.4318 193.005 63.9312 193.005C64.7225 193.005 65.3424 193.204 65.791 193.602C66.2396 193.995 66.4723 194.539 66.4893 195.233V198.394C66.4893 199.025 66.5697 199.526 66.7305 199.898V200H65.499ZM63.5503 199.105C63.9185 199.105 64.2676 199.01 64.5977 198.819C64.9277 198.629 65.1668 198.381 65.3149 198.077V196.667H64.3945C62.9557 196.667 62.2363 197.089 62.2363 197.931C62.2363 198.299 62.359 198.587 62.6045 198.794C62.8499 199.001 63.1652 199.105 63.5503 199.105ZM69.9233 191.469V193.132H71.2056V194.04H69.9233V198.299C69.9233 198.574 69.9805 198.781 70.0947 198.921C70.209 199.056 70.4036 199.124 70.6787 199.124C70.8141 199.124 71.0003 199.099 71.2373 199.048V200C70.9284 200.085 70.6279 200.127 70.3359 200.127C69.8112 200.127 69.4155 199.968 69.1489 199.651C68.8823 199.333 68.749 198.883 68.749 198.299V194.04H67.4985V193.132H68.749V191.469H69.9233ZM72.145 196.502C72.145 195.83 72.2762 195.224 72.5386 194.687C72.8052 194.15 73.1733 193.735 73.6431 193.443C74.117 193.151 74.6566 193.005 75.2617 193.005C76.1969 193.005 76.9523 193.329 77.5278 193.976C78.1076 194.624 78.3975 195.485 78.3975 196.56V196.642C78.3975 197.311 78.2684 197.912 78.0103 198.445C77.7563 198.974 77.3903 199.386 76.9121 199.683C76.4382 199.979 75.8923 200.127 75.2744 200.127C74.3434 200.127 73.5881 199.803 73.0083 199.156C72.4328 198.508 72.145 197.651 72.145 196.585V196.502ZM73.3257 196.642C73.3257 197.404 73.5013 198.015 73.8525 198.477C74.208 198.938 74.682 199.168 75.2744 199.168C75.8711 199.168 76.3451 198.936 76.6963 198.47C77.0475 198 77.2231 197.345 77.2231 196.502C77.2231 195.749 77.0433 195.14 76.6836 194.674C76.3281 194.205 75.8542 193.97 75.2617 193.97C74.682 193.97 74.2144 194.2 73.8589 194.662C73.5034 195.123 73.3257 195.783 73.3257 196.642Z" fill="black"/>
<rect class="salon" id="Lungo" y="246" width="96.0099" height="63.858" fill="#D3D36E"/>
<path d="M32.4102 281.003H36.79V282H31.1851V272.758H32.4102V281.003ZM41.957 281.321C41.5 281.858 40.8293 282.127 39.9448 282.127C39.2127 282.127 38.6541 281.915 38.269 281.492C37.8882 281.065 37.6956 280.434 37.6914 279.601V275.132H38.8657V279.569C38.8657 280.61 39.2889 281.13 40.1353 281.13C41.0324 281.13 41.6291 280.796 41.9253 280.127V275.132H43.0996V282H41.9824L41.957 281.321ZM46.0005 275.132L46.0386 275.995C46.5633 275.335 47.2489 275.005 48.0952 275.005C49.5467 275.005 50.2788 275.824 50.2915 277.461V282H49.1172V277.455C49.113 276.96 48.9987 276.594 48.7744 276.357C48.5544 276.12 48.2095 276.001 47.7397 276.001C47.3589 276.001 47.0246 276.103 46.7368 276.306C46.4491 276.509 46.2248 276.776 46.064 277.106V282H44.8896V275.132H46.0005ZM51.7832 278.509C51.7832 277.438 52.0308 276.588 52.5259 275.957C53.021 275.322 53.6769 275.005 54.4937 275.005C55.3315 275.005 55.9854 275.301 56.4551 275.894L56.5122 275.132H57.585V281.835C57.585 282.724 57.3205 283.424 56.7915 283.936C56.2668 284.448 55.5601 284.704 54.6714 284.704C54.1763 284.704 53.6917 284.598 53.2178 284.387C52.7438 284.175 52.382 283.885 52.1323 283.517L52.7417 282.812C53.2453 283.435 53.861 283.746 54.5889 283.746C55.1602 283.746 55.6045 283.585 55.9219 283.263C56.2435 282.942 56.4043 282.489 56.4043 281.905V281.314C55.9346 281.856 55.2935 282.127 54.481 282.127C53.6769 282.127 53.0252 281.803 52.5259 281.156C52.0308 280.508 51.7832 279.626 51.7832 278.509ZM52.9639 278.642C52.9639 279.417 53.1226 280.026 53.4399 280.47C53.7573 280.91 54.2017 281.13 54.7729 281.13C55.5135 281.13 56.0573 280.794 56.4043 280.121V276.985C56.0446 276.329 55.505 276.001 54.7856 276.001C54.2144 276.001 53.7679 276.224 53.4463 276.668C53.1247 277.112 52.9639 277.77 52.9639 278.642ZM59.0513 278.502C59.0513 277.83 59.1825 277.224 59.4448 276.687C59.7114 276.15 60.0796 275.735 60.5493 275.443C61.0233 275.151 61.5628 275.005 62.168 275.005C63.1032 275.005 63.8586 275.329 64.4341 275.976C65.0138 276.624 65.3037 277.485 65.3037 278.56V278.642C65.3037 279.311 65.1746 279.912 64.9165 280.445C64.6626 280.974 64.2965 281.386 63.8184 281.683C63.3444 281.979 62.7985 282.127 62.1807 282.127C61.2497 282.127 60.4943 281.803 59.9146 281.156C59.339 280.508 59.0513 279.651 59.0513 278.585V278.502ZM60.2319 278.642C60.2319 279.404 60.4076 280.015 60.7588 280.477C61.1143 280.938 61.5882 281.168 62.1807 281.168C62.7773 281.168 63.2513 280.936 63.6025 280.47C63.9538 280 64.1294 279.345 64.1294 278.502C64.1294 277.749 63.9495 277.14 63.5898 276.674C63.2344 276.205 62.7604 275.97 62.168 275.97C61.5882 275.97 61.1206 276.2 60.7651 276.662C60.4097 277.123 60.2319 277.783 60.2319 278.642Z" fill="black"/>
<rect class="salon" id="Leche" y="328" width="96.0099" height="63.858" fill="#D3D36E"/>
<path d="M33.4243 363.003H37.8042V364H32.1992V354.758H33.4243V363.003ZM41.8604 364.127C40.9294 364.127 40.1719 363.822 39.5879 363.213C39.0039 362.599 38.7119 361.78 38.7119 360.756V360.541C38.7119 359.859 38.841 359.252 39.0991 358.719C39.3615 358.181 39.7254 357.762 40.1909 357.462C40.6606 357.157 41.1685 357.005 41.7144 357.005C42.6073 357.005 43.3013 357.299 43.7964 357.887C44.2915 358.475 44.5391 359.318 44.5391 360.414V360.902H39.8862C39.9032 361.579 40.0999 362.127 40.4766 362.546C40.8574 362.961 41.3398 363.168 41.9238 363.168C42.3385 363.168 42.6898 363.084 42.9775 362.915C43.2653 362.745 43.5171 362.521 43.7329 362.242L44.4502 362.8C43.8747 363.685 43.0114 364.127 41.8604 364.127ZM41.7144 357.97C41.2404 357.97 40.8426 358.143 40.521 358.49C40.1994 358.833 40.0005 359.315 39.9243 359.938H43.3647V359.849C43.3309 359.252 43.1701 358.791 42.8823 358.465C42.5946 358.135 42.2052 357.97 41.7144 357.97ZM48.6587 363.168C49.0776 363.168 49.4437 363.042 49.7568 362.788C50.07 362.534 50.2435 362.216 50.2773 361.835H51.3882C51.367 362.229 51.2316 362.604 50.9819 362.959C50.7323 363.314 50.3979 363.598 49.979 363.81C49.5643 364.021 49.1242 364.127 48.6587 364.127C47.7235 364.127 46.9787 363.816 46.4243 363.194C45.8742 362.568 45.5991 361.713 45.5991 360.629V360.433C45.5991 359.764 45.7218 359.169 45.9673 358.649C46.2127 358.128 46.564 357.724 47.021 357.437C47.4823 357.149 48.026 357.005 48.6523 357.005C49.4225 357.005 50.0615 357.236 50.5693 357.697C51.0814 358.158 51.3543 358.757 51.3882 359.493H50.2773C50.2435 359.049 50.0742 358.685 49.7695 358.401C49.4691 358.114 49.0967 357.97 48.6523 357.97C48.0557 357.97 47.5923 358.186 47.2622 358.617C46.9364 359.045 46.7734 359.665 46.7734 360.477V360.699C46.7734 361.491 46.9364 362.1 47.2622 362.527C47.5881 362.955 48.0535 363.168 48.6587 363.168ZM53.8828 357.963C54.4033 357.324 55.0804 357.005 55.9141 357.005C57.3656 357.005 58.0977 357.824 58.1104 359.461V364H56.936V359.455C56.9318 358.96 56.8175 358.594 56.5933 358.357C56.3732 358.12 56.0283 358.001 55.5586 358.001C55.1777 358.001 54.8434 358.103 54.5557 358.306C54.2679 358.509 54.0436 358.776 53.8828 359.106V364H52.7085V354.25H53.8828V357.963ZM62.7188 364.127C61.7878 364.127 61.0303 363.822 60.4463 363.213C59.8623 362.599 59.5703 361.78 59.5703 360.756V360.541C59.5703 359.859 59.6994 359.252 59.9575 358.719C60.2199 358.181 60.5838 357.762 61.0493 357.462C61.519 357.157 62.0269 357.005 62.5728 357.005C63.4657 357.005 64.1597 357.299 64.6548 357.887C65.1499 358.475 65.3975 359.318 65.3975 360.414V360.902H60.7446C60.7616 361.579 60.9583 362.127 61.335 362.546C61.7158 362.961 62.1982 363.168 62.7822 363.168C63.1969 363.168 63.5482 363.084 63.8359 362.915C64.1237 362.745 64.3755 362.521 64.5913 362.242L65.3086 362.8C64.7331 363.685 63.8698 364.127 62.7188 364.127ZM62.5728 357.97C62.0988 357.97 61.701 358.143 61.3794 358.49C61.0578 358.833 60.8589 359.315 60.7827 359.938H64.2231V359.849C64.1893 359.252 64.0285 358.791 63.7407 358.465C63.453 358.135 63.0636 357.97 62.5728 357.97Z" fill="black"/>
<rect class="salon" id="Affogato" x="129" y="82" width="96.0099" height="63.858" fill="#D3D36E"/>
<path d="M158.254 115.588H154.382L153.512 118H152.255L155.785 108.758H156.851L160.387 118H159.136L158.254 115.588ZM154.75 114.585H157.892L156.318 110.262L154.75 114.585ZM162.024 118V112.04H160.939V111.132H162.024V110.427C162.024 109.691 162.221 109.122 162.615 108.72C163.008 108.318 163.565 108.117 164.284 108.117C164.555 108.117 164.824 108.153 165.09 108.225L165.027 109.177C164.828 109.139 164.616 109.12 164.392 109.12C164.011 109.12 163.717 109.232 163.51 109.456C163.302 109.676 163.199 109.993 163.199 110.408V111.132H164.665V112.04H163.199V118H162.024ZM166.544 118V112.04H165.458V111.132H166.544V110.427C166.544 109.691 166.741 109.122 167.134 108.72C167.528 108.318 168.084 108.117 168.804 108.117C169.075 108.117 169.343 108.153 169.61 108.225L169.546 109.177C169.347 109.139 169.136 109.12 168.912 109.12C168.531 109.12 168.237 109.232 168.029 109.456C167.822 109.676 167.718 109.993 167.718 110.408V111.132H169.185V112.04H167.718V118H166.544ZM170.175 114.502C170.175 113.83 170.306 113.224 170.568 112.687C170.835 112.15 171.203 111.735 171.673 111.443C172.147 111.151 172.686 111.005 173.292 111.005C174.227 111.005 174.982 111.329 175.558 111.976C176.137 112.624 176.427 113.485 176.427 114.56V114.642C176.427 115.311 176.298 115.912 176.04 116.445C175.786 116.974 175.42 117.386 174.942 117.683C174.468 117.979 173.922 118.127 173.304 118.127C172.373 118.127 171.618 117.803 171.038 117.156C170.463 116.508 170.175 115.651 170.175 114.585V114.502ZM171.355 114.642C171.355 115.404 171.531 116.015 171.882 116.477C172.238 116.938 172.712 117.168 173.304 117.168C173.901 117.168 174.375 116.936 174.726 116.47C175.077 116 175.253 115.345 175.253 114.502C175.253 113.749 175.073 113.14 174.713 112.674C174.358 112.205 173.884 111.97 173.292 111.97C172.712 111.97 172.244 112.2 171.889 112.662C171.533 113.123 171.355 113.783 171.355 114.642ZM177.621 114.509C177.621 113.438 177.868 112.588 178.363 111.957C178.858 111.322 179.514 111.005 180.331 111.005C181.169 111.005 181.823 111.301 182.292 111.894L182.35 111.132H183.422V117.835C183.422 118.724 183.158 119.424 182.629 119.936C182.104 120.448 181.397 120.704 180.509 120.704C180.014 120.704 179.529 120.598 179.055 120.387C178.581 120.175 178.219 119.885 177.97 119.517L178.579 118.812C179.083 119.435 179.698 119.746 180.426 119.746C180.998 119.746 181.442 119.585 181.759 119.263C182.081 118.942 182.242 118.489 182.242 117.905V117.314C181.772 117.856 181.131 118.127 180.318 118.127C179.514 118.127 178.863 117.803 178.363 117.156C177.868 116.508 177.621 115.626 177.621 114.509ZM178.801 114.642C178.801 115.417 178.96 116.026 179.277 116.47C179.595 116.91 180.039 117.13 180.61 117.13C181.351 117.13 181.895 116.794 182.242 116.121V112.985C181.882 112.329 181.342 112.001 180.623 112.001C180.052 112.001 179.605 112.224 179.284 112.668C178.962 113.112 178.801 113.77 178.801 114.642ZM189.44 118C189.372 117.865 189.317 117.623 189.275 117.276C188.729 117.843 188.077 118.127 187.32 118.127C186.643 118.127 186.086 117.937 185.65 117.556C185.219 117.171 185.003 116.684 185.003 116.096C185.003 115.381 185.274 114.826 185.815 114.433C186.361 114.035 187.127 113.836 188.113 113.836H189.256V113.296C189.256 112.886 189.133 112.56 188.888 112.319C188.642 112.073 188.28 111.951 187.802 111.951C187.383 111.951 187.032 112.056 186.749 112.268C186.465 112.48 186.323 112.736 186.323 113.036H185.143C185.143 112.693 185.263 112.363 185.504 112.046C185.75 111.724 186.08 111.47 186.495 111.284C186.914 111.098 187.373 111.005 187.872 111.005C188.663 111.005 189.283 111.204 189.732 111.602C190.181 111.995 190.413 112.539 190.43 113.233V116.394C190.43 117.025 190.511 117.526 190.671 117.898V118H189.44ZM187.491 117.105C187.859 117.105 188.208 117.01 188.539 116.819C188.869 116.629 189.108 116.381 189.256 116.077V114.667H188.335C186.897 114.667 186.177 115.089 186.177 115.931C186.177 116.299 186.3 116.587 186.545 116.794C186.791 117.001 187.106 117.105 187.491 117.105ZM193.864 109.469V111.132H195.146V112.04H193.864V116.299C193.864 116.574 193.921 116.781 194.036 116.921C194.15 117.056 194.345 117.124 194.62 117.124C194.755 117.124 194.941 117.099 195.178 117.048V118C194.869 118.085 194.569 118.127 194.277 118.127C193.752 118.127 193.356 117.968 193.09 117.651C192.823 117.333 192.69 116.883 192.69 116.299V112.04H191.439V111.132H192.69V109.469H193.864ZM196.086 114.502C196.086 113.83 196.217 113.224 196.479 112.687C196.746 112.15 197.114 111.735 197.584 111.443C198.058 111.151 198.597 111.005 199.203 111.005C200.138 111.005 200.893 111.329 201.469 111.976C202.049 112.624 202.338 113.485 202.338 114.56V114.642C202.338 115.311 202.209 115.912 201.951 116.445C201.697 116.974 201.331 117.386 200.853 117.683C200.379 117.979 199.833 118.127 199.215 118.127C198.284 118.127 197.529 117.803 196.949 117.156C196.374 116.508 196.086 115.651 196.086 114.585V114.502ZM197.267 114.642C197.267 115.404 197.442 116.015 197.793 116.477C198.149 116.938 198.623 117.168 199.215 117.168C199.812 117.168 200.286 116.936 200.637 116.47C200.988 116 201.164 115.345 201.164 114.502C201.164 113.749 200.984 113.14 200.625 112.674C200.269 112.205 199.795 111.97 199.203 111.97C198.623 111.97 198.155 112.2 197.8 112.662C197.444 113.123 197.267 113.783 197.267 114.642Z" fill="black"/>
<rect class="salon" id="Dulcetto" x="129" width="96.0099" height="63.858" fill="#D3D36E"/>
<path d="M154.395 38V28.7578H157.003C157.807 28.7578 158.518 28.9355 159.136 29.291C159.754 29.6465 160.23 30.1522 160.564 30.8081C160.903 31.464 161.074 32.2173 161.079 33.0679V33.6582C161.079 34.5299 160.909 35.2938 160.571 35.9497C160.236 36.6056 159.756 37.1092 159.13 37.4604C158.508 37.8117 157.782 37.9915 156.953 38H154.395ZM155.613 29.7607V37.0034H156.896C157.835 37.0034 158.565 36.7114 159.085 36.1274C159.61 35.5435 159.873 34.7119 159.873 33.6328V33.0933C159.873 32.0438 159.625 31.2292 159.13 30.6494C158.639 30.0654 157.941 29.7692 157.035 29.7607H155.613ZM166.982 37.3208C166.525 37.8582 165.854 38.127 164.97 38.127C164.238 38.127 163.679 37.9154 163.294 37.4922C162.913 37.0648 162.721 36.4342 162.716 35.6006V31.1318H163.891V35.5688C163.891 36.6099 164.314 37.1304 165.16 37.1304C166.057 37.1304 166.654 36.7961 166.95 36.1274V31.1318H168.125V38H167.007L166.982 37.3208ZM171.19 38H170.016V28.25H171.19V38ZM175.831 37.1685C176.25 37.1685 176.616 37.0415 176.929 36.7876C177.242 36.5337 177.415 36.2163 177.449 35.8354H178.56C178.539 36.229 178.403 36.6035 178.154 36.959C177.904 37.3145 177.57 37.598 177.151 37.8096C176.736 38.0212 176.296 38.127 175.831 38.127C174.895 38.127 174.151 37.8159 173.596 37.1938C173.046 36.5675 172.771 35.7127 172.771 34.6294V34.4326C172.771 33.764 172.894 33.1694 173.139 32.6489C173.385 32.1284 173.736 31.7243 174.193 31.4365C174.654 31.1488 175.198 31.0049 175.824 31.0049C176.594 31.0049 177.233 31.2355 177.741 31.6968C178.253 32.158 178.526 32.7568 178.56 33.4932H177.449C177.415 33.0488 177.246 32.6849 176.941 32.4014C176.641 32.1136 176.269 31.9697 175.824 31.9697C175.228 31.9697 174.764 32.1855 174.434 32.6172C174.108 33.0446 173.945 33.6646 173.945 34.4771V34.6992C173.945 35.4906 174.108 36.0999 174.434 36.5273C174.76 36.9548 175.225 37.1685 175.831 37.1685ZM182.73 38.127C181.799 38.127 181.042 37.8223 180.458 37.2129C179.874 36.5993 179.582 35.7804 179.582 34.7563V34.5405C179.582 33.8592 179.711 33.252 179.969 32.7188C180.232 32.1813 180.596 31.7624 181.061 31.4619C181.531 31.1572 182.039 31.0049 182.584 31.0049C183.477 31.0049 184.171 31.299 184.667 31.8872C185.162 32.4754 185.409 33.3175 185.409 34.4136V34.9023H180.756C180.773 35.5794 180.97 36.1274 181.347 36.5464C181.728 36.9611 182.21 37.1685 182.794 37.1685C183.209 37.1685 183.56 37.0838 183.848 36.9146C184.135 36.7453 184.387 36.521 184.603 36.2417L185.32 36.8003C184.745 37.6847 183.882 38.127 182.73 38.127ZM182.584 31.9697C182.111 31.9697 181.713 32.1432 181.391 32.4902C181.069 32.833 180.871 33.3154 180.794 33.9375H184.235V33.8486C184.201 33.252 184.04 32.7907 183.752 32.4648C183.465 32.1348 183.075 31.9697 182.584 31.9697ZM188.367 29.4688V31.1318H189.649V32.0396H188.367V36.2988C188.367 36.5739 188.424 36.7812 188.539 36.9209C188.653 37.0563 188.847 37.124 189.123 37.124C189.258 37.124 189.444 37.0986 189.681 37.0479V38C189.372 38.0846 189.072 38.127 188.78 38.127C188.255 38.127 187.859 37.9683 187.593 37.6509C187.326 37.3335 187.193 36.8828 187.193 36.2988V32.0396H185.942V31.1318H187.193V29.4688H188.367ZM192.62 29.4688V31.1318H193.902V32.0396H192.62V36.2988C192.62 36.5739 192.677 36.7812 192.792 36.9209C192.906 37.0563 193.1 37.124 193.375 37.124C193.511 37.124 193.697 37.0986 193.934 37.0479V38C193.625 38.0846 193.325 38.127 193.033 38.127C192.508 38.127 192.112 37.9683 191.846 37.6509C191.579 37.3335 191.446 36.8828 191.446 36.2988V32.0396H190.195V31.1318H191.446V29.4688H192.62ZM194.842 34.5024C194.842 33.8296 194.973 33.2244 195.235 32.687C195.502 32.1496 195.87 31.7349 196.34 31.4429C196.814 31.1509 197.353 31.0049 197.958 31.0049C198.894 31.0049 199.649 31.3286 200.225 31.9761C200.804 32.6235 201.094 33.4847 201.094 34.5596V34.6421C201.094 35.3107 200.965 35.9116 200.707 36.4448C200.453 36.9738 200.087 37.3864 199.609 37.6826C199.135 37.9788 198.589 38.127 197.971 38.127C197.04 38.127 196.285 37.8032 195.705 37.1558C195.13 36.5083 194.842 35.6514 194.842 34.585V34.5024ZM196.022 34.6421C196.022 35.4038 196.198 36.0153 196.549 36.4766C196.905 36.9378 197.379 37.1685 197.971 37.1685C198.568 37.1685 199.042 36.9357 199.393 36.4702C199.744 36.0005 199.92 35.3446 199.92 34.5024C199.92 33.7492 199.74 33.1398 199.38 32.6743C199.025 32.2046 198.551 31.9697 197.958 31.9697C197.379 31.9697 196.911 32.2004 196.556 32.6616C196.2 33.1229 196.022 33.783 196.022 34.6421Z" fill="black"/>
<rect class="salon" id="Ambello" x="129" y="164" width="96.0099" height="63.858" fill="#D3D36E"/>
<path d="M159.271 197.588H155.399L154.529 200H153.272L156.802 190.758H157.868L161.404 200H160.153L159.271 197.588ZM155.767 196.585H158.909L157.335 192.262L155.767 196.585ZM163.568 193.132L163.6 193.894C164.104 193.301 164.783 193.005 165.638 193.005C166.598 193.005 167.252 193.373 167.599 194.109C167.828 193.779 168.124 193.513 168.488 193.31C168.856 193.106 169.29 193.005 169.789 193.005C171.296 193.005 172.062 193.803 172.087 195.398V200H170.913V195.468C170.913 194.977 170.8 194.611 170.576 194.37C170.352 194.124 169.975 194.001 169.446 194.001C169.01 194.001 168.649 194.133 168.361 194.395C168.073 194.653 167.906 195.002 167.859 195.442V200H166.679V195.5C166.679 194.501 166.19 194.001 165.212 194.001C164.442 194.001 163.915 194.329 163.632 194.985V200H162.458V193.132H163.568ZM179.679 196.642C179.679 197.692 179.438 198.536 178.955 199.175C178.473 199.81 177.825 200.127 177.013 200.127C176.145 200.127 175.474 199.82 175 199.207L174.943 200H173.864V190.25H175.039V193.887C175.513 193.299 176.166 193.005 177 193.005C177.834 193.005 178.487 193.32 178.961 193.951C179.44 194.581 179.679 195.444 179.679 196.541V196.642ZM178.504 196.509C178.504 195.709 178.35 195.091 178.041 194.655C177.732 194.219 177.288 194.001 176.708 194.001C175.934 194.001 175.377 194.361 175.039 195.081V198.051C175.398 198.771 175.959 199.13 176.721 199.13C177.284 199.13 177.722 198.912 178.035 198.477C178.348 198.041 178.504 197.385 178.504 196.509ZM184.014 200.127C183.083 200.127 182.326 199.822 181.742 199.213C181.158 198.599 180.866 197.78 180.866 196.756V196.541C180.866 195.859 180.995 195.252 181.253 194.719C181.515 194.181 181.879 193.762 182.345 193.462C182.814 193.157 183.322 193.005 183.868 193.005C184.761 193.005 185.455 193.299 185.95 193.887C186.445 194.475 186.693 195.318 186.693 196.414V196.902H182.04C182.057 197.579 182.254 198.127 182.63 198.546C183.011 198.961 183.494 199.168 184.078 199.168C184.492 199.168 184.844 199.084 185.131 198.915C185.419 198.745 185.671 198.521 185.887 198.242L186.604 198.8C186.028 199.685 185.165 200.127 184.014 200.127ZM183.868 193.97C183.394 193.97 182.996 194.143 182.675 194.49C182.353 194.833 182.154 195.315 182.078 195.938H185.519V195.849C185.485 195.252 185.324 194.791 185.036 194.465C184.748 194.135 184.359 193.97 183.868 193.97ZM189.333 200H188.159V190.25H189.333V200ZM192.495 200H191.32V190.25H192.495V200ZM194.069 196.502C194.069 195.83 194.2 195.224 194.462 194.687C194.729 194.15 195.097 193.735 195.567 193.443C196.041 193.151 196.58 193.005 197.186 193.005C198.121 193.005 198.876 193.329 199.452 193.976C200.031 194.624 200.321 195.485 200.321 196.56V196.642C200.321 197.311 200.192 197.912 199.934 198.445C199.68 198.974 199.314 199.386 198.836 199.683C198.362 199.979 197.816 200.127 197.198 200.127C196.267 200.127 195.512 199.803 194.932 199.156C194.357 198.508 194.069 197.651 194.069 196.585V196.502ZM195.25 196.642C195.25 197.404 195.425 198.015 195.776 198.477C196.132 198.938 196.606 199.168 197.198 199.168C197.795 199.168 198.269 198.936 198.62 198.47C198.971 198 199.147 197.345 199.147 196.502C199.147 195.749 198.967 195.14 198.607 194.674C198.252 194.205 197.778 193.97 197.186 193.97C196.606 193.97 196.138 194.2 195.783 194.662C195.427 195.123 195.25 195.783 195.25 196.642Z" fill="black"/>
<rect class="salon" id="Americain" x="129" y="246" width="96.0099" height="63.858" fill="#D3D36E"/>
<path d="M154.401 279.588H150.529L149.659 282H148.402L151.932 272.758H152.998L156.534 282H155.283L154.401 279.588ZM150.897 278.585H154.039L152.465 274.262L150.897 278.585ZM158.698 275.132L158.73 275.894C159.234 275.301 159.913 275.005 160.768 275.005C161.728 275.005 162.382 275.373 162.729 276.109C162.958 275.779 163.254 275.513 163.618 275.31C163.986 275.106 164.42 275.005 164.919 275.005C166.425 275.005 167.191 275.803 167.217 277.398V282H166.042V277.468C166.042 276.977 165.93 276.611 165.706 276.37C165.482 276.124 165.105 276.001 164.576 276.001C164.14 276.001 163.778 276.133 163.491 276.395C163.203 276.653 163.036 277.002 162.989 277.442V282H161.809V277.5C161.809 276.501 161.32 276.001 160.342 276.001C159.572 276.001 159.045 276.329 158.762 276.985V282H157.587V275.132H158.698ZM171.844 282.127C170.913 282.127 170.156 281.822 169.572 281.213C168.988 280.599 168.696 279.78 168.696 278.756V278.541C168.696 277.859 168.825 277.252 169.083 276.719C169.345 276.181 169.709 275.762 170.175 275.462C170.645 275.157 171.152 275.005 171.698 275.005C172.591 275.005 173.285 275.299 173.78 275.887C174.275 276.475 174.523 277.318 174.523 278.414V278.902H169.87C169.887 279.579 170.084 280.127 170.46 280.546C170.841 280.961 171.324 281.168 171.908 281.168C172.322 281.168 172.674 281.084 172.961 280.915C173.249 280.745 173.501 280.521 173.717 280.242L174.434 280.8C173.859 281.685 172.995 282.127 171.844 282.127ZM171.698 275.97C171.224 275.97 170.826 276.143 170.505 276.49C170.183 276.833 169.984 277.315 169.908 277.938H173.349V277.849C173.315 277.252 173.154 276.791 172.866 276.465C172.578 276.135 172.189 275.97 171.698 275.97ZM179.208 276.186C179.03 276.156 178.837 276.141 178.63 276.141C177.86 276.141 177.337 276.469 177.062 277.125V282H175.888V275.132H177.03L177.049 275.925C177.434 275.312 177.98 275.005 178.687 275.005C178.916 275.005 179.089 275.035 179.208 275.094V276.186ZM181.569 282H180.395V275.132H181.569V282ZM180.299 273.31C180.299 273.12 180.356 272.959 180.471 272.828C180.589 272.696 180.763 272.631 180.991 272.631C181.22 272.631 181.393 272.696 181.512 272.828C181.63 272.959 181.689 273.12 181.689 273.31C181.689 273.5 181.63 273.659 181.512 273.786C181.393 273.913 181.22 273.977 180.991 273.977C180.763 273.977 180.589 273.913 180.471 273.786C180.356 273.659 180.299 273.5 180.299 273.31ZM186.209 281.168C186.628 281.168 186.994 281.042 187.307 280.788C187.62 280.534 187.794 280.216 187.828 279.835H188.938C188.917 280.229 188.782 280.604 188.532 280.959C188.283 281.314 187.948 281.598 187.529 281.81C187.115 282.021 186.674 282.127 186.209 282.127C185.274 282.127 184.529 281.816 183.975 281.194C183.424 280.568 183.149 279.713 183.149 278.629V278.433C183.149 277.764 183.272 277.169 183.518 276.649C183.763 276.128 184.114 275.724 184.571 275.437C185.033 275.149 185.576 275.005 186.203 275.005C186.973 275.005 187.612 275.236 188.12 275.697C188.632 276.158 188.905 276.757 188.938 277.493H187.828C187.794 277.049 187.625 276.685 187.32 276.401C187.019 276.114 186.647 275.97 186.203 275.97C185.606 275.97 185.143 276.186 184.812 276.617C184.487 277.045 184.324 277.665 184.324 278.477V278.699C184.324 279.491 184.487 280.1 184.812 280.527C185.138 280.955 185.604 281.168 186.209 281.168ZM194.499 282C194.431 281.865 194.376 281.623 194.334 281.276C193.788 281.843 193.136 282.127 192.379 282.127C191.702 282.127 191.145 281.937 190.709 281.556C190.278 281.171 190.062 280.684 190.062 280.096C190.062 279.381 190.333 278.826 190.875 278.433C191.42 278.035 192.186 277.836 193.172 277.836H194.315V277.296C194.315 276.886 194.192 276.56 193.947 276.319C193.701 276.073 193.34 275.951 192.861 275.951C192.442 275.951 192.091 276.056 191.808 276.268C191.524 276.48 191.382 276.736 191.382 277.036H190.202C190.202 276.693 190.322 276.363 190.563 276.046C190.809 275.724 191.139 275.47 191.554 275.284C191.973 275.098 192.432 275.005 192.931 275.005C193.722 275.005 194.342 275.204 194.791 275.602C195.24 275.995 195.472 276.539 195.489 277.233V280.394C195.489 281.025 195.57 281.526 195.73 281.898V282H194.499ZM192.55 281.105C192.918 281.105 193.268 281.01 193.598 280.819C193.928 280.629 194.167 280.381 194.315 280.077V278.667H193.395C191.956 278.667 191.236 279.089 191.236 279.931C191.236 280.299 191.359 280.587 191.604 280.794C191.85 281.001 192.165 281.105 192.55 281.105ZM198.606 282H197.432V275.132H198.606V282ZM197.336 273.31C197.336 273.12 197.394 272.959 197.508 272.828C197.626 272.696 197.8 272.631 198.028 272.631C198.257 272.631 198.43 272.696 198.549 272.828C198.667 272.959 198.727 273.12 198.727 273.31C198.727 273.5 198.667 273.659 198.549 273.786C198.43 273.913 198.257 273.977 198.028 273.977C197.8 273.977 197.626 273.913 197.508 273.786C197.394 273.659 197.336 273.5 197.336 273.31ZM201.602 275.132L201.64 275.995C202.165 275.335 202.85 275.005 203.697 275.005C205.148 275.005 205.88 275.824 205.893 277.461V282H204.719V277.455C204.715 276.96 204.6 276.594 204.376 276.357C204.156 276.12 203.811 276.001 203.341 276.001C202.96 276.001 202.626 276.103 202.338 276.306C202.051 276.509 201.826 276.776 201.666 277.106V282H200.491V275.132H201.602Z" fill="black"/>
<rect class="salon" id="Noisette" x="129" y="328" width="96.0099" height="63.858" fill="#D3D36E"/>
<path d="M161.256 364H160.031L155.378 356.878V364H154.153V354.758H155.378L160.044 361.912V354.758H161.256V364ZM162.926 360.502C162.926 359.83 163.057 359.224 163.319 358.687C163.586 358.15 163.954 357.735 164.424 357.443C164.898 357.151 165.437 357.005 166.042 357.005C166.978 357.005 167.733 357.329 168.309 357.976C168.888 358.624 169.178 359.485 169.178 360.56V360.642C169.178 361.311 169.049 361.912 168.791 362.445C168.537 362.974 168.171 363.386 167.693 363.683C167.219 363.979 166.673 364.127 166.055 364.127C165.124 364.127 164.369 363.803 163.789 363.156C163.214 362.508 162.926 361.651 162.926 360.585V360.502ZM164.106 360.642C164.106 361.404 164.282 362.015 164.633 362.477C164.989 362.938 165.463 363.168 166.055 363.168C166.652 363.168 167.126 362.936 167.477 362.47C167.828 362 168.004 361.345 168.004 360.502C168.004 359.749 167.824 359.14 167.464 358.674C167.109 358.205 166.635 357.97 166.042 357.97C165.463 357.97 164.995 358.2 164.64 358.662C164.284 359.123 164.106 359.783 164.106 360.642ZM171.927 364H170.752V357.132H171.927V364ZM170.657 355.31C170.657 355.12 170.714 354.959 170.829 354.828C170.947 354.696 171.121 354.631 171.349 354.631C171.578 354.631 171.751 354.696 171.87 354.828C171.988 354.959 172.047 355.12 172.047 355.31C172.047 355.5 171.988 355.659 171.87 355.786C171.751 355.913 171.578 355.977 171.349 355.977C171.121 355.977 170.947 355.913 170.829 355.786C170.714 355.659 170.657 355.5 170.657 355.31ZM177.811 362.178C177.811 361.861 177.69 361.615 177.449 361.442C177.212 361.264 176.795 361.112 176.199 360.985C175.606 360.858 175.134 360.706 174.783 360.528C174.436 360.35 174.178 360.139 174.009 359.893C173.844 359.648 173.761 359.356 173.761 359.017C173.761 358.454 173.998 357.978 174.472 357.589C174.95 357.2 175.56 357.005 176.3 357.005C177.079 357.005 177.709 357.206 178.192 357.608C178.679 358.01 178.922 358.524 178.922 359.15H177.741C177.741 358.829 177.604 358.552 177.329 358.319C177.058 358.086 176.715 357.97 176.3 357.97C175.873 357.97 175.539 358.063 175.297 358.249C175.056 358.435 174.936 358.679 174.936 358.979C174.936 359.263 175.048 359.476 175.272 359.62C175.496 359.764 175.9 359.902 176.484 360.033C177.073 360.164 177.549 360.32 177.913 360.502C178.277 360.684 178.545 360.904 178.719 361.163C178.896 361.417 178.985 361.728 178.985 362.096C178.985 362.709 178.74 363.202 178.249 363.575C177.758 363.943 177.121 364.127 176.338 364.127C175.788 364.127 175.302 364.03 174.878 363.835C174.455 363.64 174.123 363.369 173.882 363.022C173.645 362.671 173.526 362.292 173.526 361.886H174.701C174.722 362.28 174.878 362.593 175.17 362.826C175.467 363.054 175.856 363.168 176.338 363.168C176.783 363.168 177.138 363.08 177.405 362.902C177.676 362.72 177.811 362.479 177.811 362.178ZM183.365 364.127C182.434 364.127 181.677 363.822 181.093 363.213C180.509 362.599 180.217 361.78 180.217 360.756V360.541C180.217 359.859 180.346 359.252 180.604 358.719C180.866 358.181 181.23 357.762 181.696 357.462C182.166 357.157 182.673 357.005 183.219 357.005C184.112 357.005 184.806 357.299 185.301 357.887C185.796 358.475 186.044 359.318 186.044 360.414V360.902H181.391C181.408 361.579 181.605 362.127 181.981 362.546C182.362 362.961 182.845 363.168 183.429 363.168C183.843 363.168 184.195 363.084 184.482 362.915C184.77 362.745 185.022 362.521 185.238 362.242L185.955 362.8C185.38 363.685 184.516 364.127 183.365 364.127ZM183.219 357.97C182.745 357.97 182.347 358.143 182.026 358.49C181.704 358.833 181.505 359.315 181.429 359.938H184.87V359.849C184.836 359.252 184.675 358.791 184.387 358.465C184.099 358.135 183.71 357.97 183.219 357.97ZM189.002 355.469V357.132H190.284V358.04H189.002V362.299C189.002 362.574 189.059 362.781 189.173 362.921C189.288 363.056 189.482 363.124 189.757 363.124C189.893 363.124 190.079 363.099 190.316 363.048V364C190.007 364.085 189.707 364.127 189.415 364.127C188.89 364.127 188.494 363.968 188.228 363.651C187.961 363.333 187.828 362.883 187.828 362.299V358.04H186.577V357.132H187.828V355.469H189.002ZM193.255 355.469V357.132H194.537V358.04H193.255V362.299C193.255 362.574 193.312 362.781 193.426 362.921C193.541 363.056 193.735 363.124 194.01 363.124C194.146 363.124 194.332 363.099 194.569 363.048V364C194.26 364.085 193.959 364.127 193.667 364.127C193.143 364.127 192.747 363.968 192.48 363.651C192.214 363.333 192.081 362.883 192.081 362.299V358.04H190.83V357.132H192.081V355.469H193.255ZM198.765 364.127C197.834 364.127 197.076 363.822 196.492 363.213C195.908 362.599 195.616 361.78 195.616 360.756V360.541C195.616 359.859 195.745 359.252 196.003 358.719C196.266 358.181 196.63 357.762 197.095 357.462C197.565 357.157 198.073 357.005 198.619 357.005C199.512 357.005 200.206 357.299 200.701 357.887C201.196 358.475 201.443 359.318 201.443 360.414V360.902H196.791C196.807 361.579 197.004 362.127 197.381 362.546C197.762 362.961 198.244 363.168 198.828 363.168C199.243 363.168 199.594 363.084 199.882 362.915C200.17 362.745 200.421 362.521 200.637 362.242L201.354 362.8C200.779 363.685 199.916 364.127 198.765 364.127ZM198.619 357.97C198.145 357.97 197.747 358.143 197.425 358.49C197.104 358.833 196.905 359.315 196.829 359.938H200.269V359.849C200.235 359.252 200.074 358.791 199.787 358.465C199.499 358.135 199.11 357.97 198.619 357.97Z" fill="black"/>
</svg>
