<svg width="58" height="57" viewBox="0 0 58 57" fill="none" xmlns="http://www.w3.org/2000/svg">
<path d="M34.7051 28.5C34.7051 31.5128 32.2628 33.9551 29.25 33.9551C26.2372 33.9551 23.7949 31.5128 23.7949 28.5C23.7949 25.4872 26.2372 23.0449 29.25 23.0449C32.2628 23.0449 34.7051 25.4872 34.7051 28.5Z" fill="#D3D36E"/>
<path d="M42.0073 18.8487C41.7451 18.1381 41.3267 17.4949 40.7831 16.967C40.2552 16.4234 39.6124 16.0051 38.9014 15.7428C38.3248 15.5189 37.4585 15.2523 35.8629 15.1797C34.1369 15.1009 33.6194 15.084 29.2498 15.084C24.8797 15.084 24.3622 15.1005 22.6366 15.1792C21.0411 15.2523 20.1744 15.5189 19.5982 15.7428C18.8871 16.0051 18.244 16.4234 17.7165 16.967C17.1729 17.4949 16.7545 18.1377 16.4918 18.8487C16.2679 19.4253 16.0013 20.2921 15.9287 21.8876C15.85 23.6132 15.833 24.1307 15.833 28.5008C15.833 32.8704 15.85 33.3879 15.9287 35.1139C16.0013 36.7095 16.2679 37.5757 16.4918 38.1524C16.7545 38.8634 17.1724 39.5062 17.716 40.0341C18.244 40.5777 18.8867 40.996 19.5977 41.2583C20.1744 41.4827 21.0411 41.7492 22.6366 41.8219C24.3622 41.9006 24.8793 41.9171 29.2494 41.9171C33.6199 41.9171 34.1374 41.9006 35.8625 41.8219C37.4581 41.7492 38.3248 41.4827 38.9014 41.2583C40.3287 40.7077 41.4567 39.5796 42.0073 38.1524C42.2313 37.5757 42.4978 36.7095 42.5709 35.1139C42.6496 33.3879 42.6661 32.8704 42.6661 28.5008C42.6661 24.1307 42.6496 23.6132 42.5709 21.8876C42.4983 20.2921 42.2317 19.4253 42.0073 18.8487ZM29.2498 36.9039C24.6084 36.9039 20.8458 33.1418 20.8458 28.5003C20.8458 23.8589 24.6084 20.0968 29.2498 20.0968C33.8908 20.0968 37.6533 23.8589 37.6533 28.5003C37.6533 33.1418 33.8908 36.9039 29.2498 36.9039ZM37.9856 21.7284C36.901 21.7284 36.0217 20.8491 36.0217 19.7645C36.0217 18.68 36.901 17.8007 37.9856 17.8007C39.0701 17.8007 39.9495 18.68 39.9495 19.7645C39.949 20.8491 39.0701 21.7284 37.9856 21.7284Z" fill="#D3D36E"/>
<path d="M29.25 0C13.5123 0 0.75 12.7623 0.75 28.5C0.75 44.2377 13.5123 57 29.25 57C44.9877 57 57.75 44.2377 57.75 28.5C57.75 12.7623 44.9877 0 29.25 0ZM45.5165 35.2471C45.4374 36.9892 45.1604 38.1786 44.7559 39.2197C43.9057 41.418 42.168 43.1557 39.9697 44.0059C38.929 44.4104 37.7392 44.6869 35.9975 44.7665C34.2524 44.8461 33.6949 44.8652 29.2504 44.8652C24.8056 44.8652 24.2485 44.8461 22.5029 44.7665C20.7612 44.6869 19.5714 44.4104 18.5308 44.0059C17.4383 43.595 16.4494 42.9509 15.6319 42.1181C14.7995 41.301 14.1555 40.3117 13.7445 39.2197C13.3401 38.179 13.0631 36.9892 12.9839 35.2475C12.9035 33.5019 12.8848 32.9444 12.8848 28.5C12.8848 24.0556 12.9035 23.4981 12.9835 21.7529C13.0626 20.0108 13.3392 18.8214 13.7436 17.7803C14.1546 16.6883 14.7991 15.699 15.6319 14.8819C16.449 14.0491 17.4383 13.405 18.5303 12.9941C19.5714 12.5896 20.7608 12.3131 22.5029 12.2335C24.2481 12.1539 24.8056 12.1348 29.25 12.1348C33.6944 12.1348 34.2519 12.1539 35.9971 12.2339C37.7392 12.3131 38.9286 12.5896 39.9697 12.9936C41.0617 13.4046 42.051 14.0491 42.8686 14.8819C43.7009 15.6994 44.3454 16.6883 44.7559 17.7803C45.1608 18.8214 45.4374 20.0108 45.517 21.7529C45.5965 23.4981 45.6152 24.0556 45.6152 28.5C45.6152 32.9444 45.5965 33.5019 45.5165 35.2471Z" fill="#D3D36E"/>
</svg>
