<svg width="58" height="57" viewBox="0 0 58 57" fill="none" xmlns="http://www.w3.org/2000/svg">
<path d="M29.25 0C13.5123 0 0.75 12.7623 0.75 28.5C0.75 44.2377 13.5123 57 29.25 57C44.9877 57 57.75 44.2377 57.75 28.5C57.75 12.7623 44.9877 0 29.25 0ZM20.9682 43.084H14.0272V22.2017H20.9682V43.084ZM17.4979 19.3502H17.4527C15.1235 19.3502 13.6171 17.7468 13.6171 15.7429C13.6171 13.6938 15.1696 12.1348 17.544 12.1348C19.9184 12.1348 21.3796 13.6938 21.4249 15.7429C21.4249 17.7468 19.9184 19.3502 17.4979 19.3502ZM45.9962 43.084H39.056V31.9125C39.056 29.1049 38.051 27.1902 35.5396 27.1902C33.6222 27.1902 32.4803 28.4817 31.9784 29.7285C31.7949 30.1747 31.7501 30.7983 31.7501 31.4224V43.084H24.8095C24.8095 43.084 24.9004 24.1608 24.8095 22.2017H31.7501V25.1584C32.6725 23.7355 34.3228 21.7116 38.0053 21.7116C42.572 21.7116 45.9962 24.6961 45.9962 31.1101V43.084Z" fill="#D3D36E"/>
</svg>
