<svg width="35" height="35" viewBox="0 0 240 240" fill="none" xmlns="http://www.w3.org/2000/svg">
<path d="M120 0C53.76 0 0 53.76 0 120C0 186.24 53.76 240 120 240C186.24 240 240 186.24 240 120C240 53.76 186.24 0 120 0ZM120 36C139.92 36 156 52.08 156 72C156 91.92 139.92 108 120 108C100.08 108 84 91.92 84 72C84 52.08 100.08 36 120 36ZM120 206.4C90 206.4 63.48 191.04 48 167.76C48.36 143.88 96 130.8 120 130.8C143.88 130.8 191.64 143.88 192 167.76C176.52 191.04 150 206.4 120 206.4Z" fill="black"/>
</svg>
